%TF.GenerationSoftware,KiCad,Pcbnew,(6.0.5)*%
%TF.CreationDate,2023-04-25T20:10:58+03:00*%
%TF.ProjectId,AT90USB162,41543930-5553-4423-9136-322e6b696361,rev?*%
%TF.SameCoordinates,Original*%
%TF.FileFunction,Legend,Bot*%
%TF.FilePolarity,Positive*%
%FSLAX46Y46*%
G04 Gerber Fmt 4.6, Leading zero omitted, Abs format (unit mm)*
G04 Created by KiCad (PCBNEW (6.0.5)) date 2023-04-25 20:10:58*
%MOMM*%
%LPD*%
G01*
G04 APERTURE LIST*
%ADD10C,0.125000*%
%ADD11C,0.150000*%
%ADD12C,0.250000*%
G04 APERTURE END LIST*
D10*
X65303809Y-104919047D02*
X65803809Y-104919047D01*
X65803809Y-104728571D01*
X65780000Y-104680952D01*
X65756190Y-104657142D01*
X65708571Y-104633333D01*
X65637142Y-104633333D01*
X65589523Y-104657142D01*
X65565714Y-104680952D01*
X65541904Y-104728571D01*
X65541904Y-104919047D01*
X65303809Y-104419047D02*
X65803809Y-104419047D01*
X65803809Y-104300000D01*
X65780000Y-104228571D01*
X65732380Y-104180952D01*
X65684761Y-104157142D01*
X65589523Y-104133333D01*
X65518095Y-104133333D01*
X65422857Y-104157142D01*
X65375238Y-104180952D01*
X65327619Y-104228571D01*
X65303809Y-104300000D01*
X65303809Y-104419047D01*
X65803809Y-103680952D02*
X65803809Y-103919047D01*
X65565714Y-103942857D01*
X65589523Y-103919047D01*
X65613333Y-103871428D01*
X65613333Y-103752380D01*
X65589523Y-103704761D01*
X65565714Y-103680952D01*
X65518095Y-103657142D01*
X65399047Y-103657142D01*
X65351428Y-103680952D01*
X65327619Y-103704761D01*
X65303809Y-103752380D01*
X65303809Y-103871428D01*
X65327619Y-103919047D01*
X65351428Y-103942857D01*
X80678809Y-97494047D02*
X81178809Y-97494047D01*
X81178809Y-97303571D01*
X81155000Y-97255952D01*
X81131190Y-97232142D01*
X81083571Y-97208333D01*
X81012142Y-97208333D01*
X80964523Y-97232142D01*
X80940714Y-97255952D01*
X80916904Y-97303571D01*
X80916904Y-97494047D01*
X80726428Y-96708333D02*
X80702619Y-96732142D01*
X80678809Y-96803571D01*
X80678809Y-96851190D01*
X80702619Y-96922619D01*
X80750238Y-96970238D01*
X80797857Y-96994047D01*
X80893095Y-97017857D01*
X80964523Y-97017857D01*
X81059761Y-96994047D01*
X81107380Y-96970238D01*
X81155000Y-96922619D01*
X81178809Y-96851190D01*
X81178809Y-96803571D01*
X81155000Y-96732142D01*
X81131190Y-96708333D01*
X81178809Y-96541666D02*
X81178809Y-96208333D01*
X80678809Y-96422619D01*
X80728809Y-102469047D02*
X81228809Y-102469047D01*
X81228809Y-102278571D01*
X81205000Y-102230952D01*
X81181190Y-102207142D01*
X81133571Y-102183333D01*
X81062142Y-102183333D01*
X81014523Y-102207142D01*
X80990714Y-102230952D01*
X80966904Y-102278571D01*
X80966904Y-102469047D01*
X80990714Y-101802380D02*
X80966904Y-101730952D01*
X80943095Y-101707142D01*
X80895476Y-101683333D01*
X80824047Y-101683333D01*
X80776428Y-101707142D01*
X80752619Y-101730952D01*
X80728809Y-101778571D01*
X80728809Y-101969047D01*
X81228809Y-101969047D01*
X81228809Y-101802380D01*
X81205000Y-101754761D01*
X81181190Y-101730952D01*
X81133571Y-101707142D01*
X81085952Y-101707142D01*
X81038333Y-101730952D01*
X81014523Y-101754761D01*
X80990714Y-101802380D01*
X80990714Y-101969047D01*
X81228809Y-101254761D02*
X81228809Y-101350000D01*
X81205000Y-101397619D01*
X81181190Y-101421428D01*
X81109761Y-101469047D01*
X81014523Y-101492857D01*
X80824047Y-101492857D01*
X80776428Y-101469047D01*
X80752619Y-101445238D01*
X80728809Y-101397619D01*
X80728809Y-101302380D01*
X80752619Y-101254761D01*
X80776428Y-101230952D01*
X80824047Y-101207142D01*
X80943095Y-101207142D01*
X80990714Y-101230952D01*
X81014523Y-101254761D01*
X81038333Y-101302380D01*
X81038333Y-101397619D01*
X81014523Y-101445238D01*
X80990714Y-101469047D01*
X80943095Y-101492857D01*
X65328809Y-109994047D02*
X65828809Y-109994047D01*
X65828809Y-109803571D01*
X65805000Y-109755952D01*
X65781190Y-109732142D01*
X65733571Y-109708333D01*
X65662142Y-109708333D01*
X65614523Y-109732142D01*
X65590714Y-109755952D01*
X65566904Y-109803571D01*
X65566904Y-109994047D01*
X65328809Y-109494047D02*
X65828809Y-109494047D01*
X65828809Y-109375000D01*
X65805000Y-109303571D01*
X65757380Y-109255952D01*
X65709761Y-109232142D01*
X65614523Y-109208333D01*
X65543095Y-109208333D01*
X65447857Y-109232142D01*
X65400238Y-109255952D01*
X65352619Y-109303571D01*
X65328809Y-109375000D01*
X65328809Y-109494047D01*
X65828809Y-109041666D02*
X65828809Y-108708333D01*
X65328809Y-108922619D01*
D11*
X72330000Y-103025000D02*
X72044285Y-103025000D01*
X72387142Y-103196428D02*
X72187142Y-102596428D01*
X71987142Y-103196428D01*
X71872857Y-102596428D02*
X71530000Y-102596428D01*
X71701428Y-103196428D02*
X71701428Y-102596428D01*
X71301428Y-103196428D02*
X71187142Y-103196428D01*
X71130000Y-103167857D01*
X71101428Y-103139285D01*
X71044285Y-103053571D01*
X71015714Y-102939285D01*
X71015714Y-102710714D01*
X71044285Y-102653571D01*
X71072857Y-102625000D01*
X71130000Y-102596428D01*
X71244285Y-102596428D01*
X71301428Y-102625000D01*
X71330000Y-102653571D01*
X71358571Y-102710714D01*
X71358571Y-102853571D01*
X71330000Y-102910714D01*
X71301428Y-102939285D01*
X71244285Y-102967857D01*
X71130000Y-102967857D01*
X71072857Y-102939285D01*
X71044285Y-102910714D01*
X71015714Y-102853571D01*
X70644285Y-102596428D02*
X70587142Y-102596428D01*
X70530000Y-102625000D01*
X70501428Y-102653571D01*
X70472857Y-102710714D01*
X70444285Y-102825000D01*
X70444285Y-102967857D01*
X70472857Y-103082142D01*
X70501428Y-103139285D01*
X70530000Y-103167857D01*
X70587142Y-103196428D01*
X70644285Y-103196428D01*
X70701428Y-103167857D01*
X70730000Y-103139285D01*
X70758571Y-103082142D01*
X70787142Y-102967857D01*
X70787142Y-102825000D01*
X70758571Y-102710714D01*
X70730000Y-102653571D01*
X70701428Y-102625000D01*
X70644285Y-102596428D01*
X70187142Y-102596428D02*
X70187142Y-103082142D01*
X70158571Y-103139285D01*
X70130000Y-103167857D01*
X70072857Y-103196428D01*
X69958571Y-103196428D01*
X69901428Y-103167857D01*
X69872857Y-103139285D01*
X69844285Y-103082142D01*
X69844285Y-102596428D01*
X69587142Y-103167857D02*
X69501428Y-103196428D01*
X69358571Y-103196428D01*
X69301428Y-103167857D01*
X69272857Y-103139285D01*
X69244285Y-103082142D01*
X69244285Y-103025000D01*
X69272857Y-102967857D01*
X69301428Y-102939285D01*
X69358571Y-102910714D01*
X69472857Y-102882142D01*
X69530000Y-102853571D01*
X69558571Y-102825000D01*
X69587142Y-102767857D01*
X69587142Y-102710714D01*
X69558571Y-102653571D01*
X69530000Y-102625000D01*
X69472857Y-102596428D01*
X69330000Y-102596428D01*
X69244285Y-102625000D01*
X68787142Y-102882142D02*
X68701428Y-102910714D01*
X68672857Y-102939285D01*
X68644285Y-102996428D01*
X68644285Y-103082142D01*
X68672857Y-103139285D01*
X68701428Y-103167857D01*
X68758571Y-103196428D01*
X68987142Y-103196428D01*
X68987142Y-102596428D01*
X68787142Y-102596428D01*
X68730000Y-102625000D01*
X68701428Y-102653571D01*
X68672857Y-102710714D01*
X68672857Y-102767857D01*
X68701428Y-102825000D01*
X68730000Y-102853571D01*
X68787142Y-102882142D01*
X68987142Y-102882142D01*
X68072857Y-103196428D02*
X68415714Y-103196428D01*
X68244285Y-103196428D02*
X68244285Y-102596428D01*
X68301428Y-102682142D01*
X68358571Y-102739285D01*
X68415714Y-102767857D01*
X67558571Y-102596428D02*
X67672857Y-102596428D01*
X67730000Y-102625000D01*
X67758571Y-102653571D01*
X67815714Y-102739285D01*
X67844285Y-102853571D01*
X67844285Y-103082142D01*
X67815714Y-103139285D01*
X67787142Y-103167857D01*
X67730000Y-103196428D01*
X67615714Y-103196428D01*
X67558571Y-103167857D01*
X67530000Y-103139285D01*
X67501428Y-103082142D01*
X67501428Y-102939285D01*
X67530000Y-102882142D01*
X67558571Y-102853571D01*
X67615714Y-102825000D01*
X67730000Y-102825000D01*
X67787142Y-102853571D01*
X67815714Y-102882142D01*
X67844285Y-102939285D01*
X67272857Y-102653571D02*
X67244285Y-102625000D01*
X67187142Y-102596428D01*
X67044285Y-102596428D01*
X66987142Y-102625000D01*
X66958571Y-102653571D01*
X66930000Y-102710714D01*
X66930000Y-102767857D01*
X66958571Y-102853571D01*
X67301428Y-103196428D01*
X66930000Y-103196428D01*
D10*
X73920000Y-103405952D02*
X73920000Y-102905952D01*
X73278809Y-103001190D02*
X73516904Y-103167857D01*
X73278809Y-103286904D02*
X73778809Y-103286904D01*
X73778809Y-103096428D01*
X73755000Y-103048809D01*
X73731190Y-103025000D01*
X73683571Y-103001190D01*
X73612142Y-103001190D01*
X73564523Y-103025000D01*
X73540714Y-103048809D01*
X73516904Y-103096428D01*
X73516904Y-103286904D01*
X73920000Y-102905952D02*
X73920000Y-102453571D01*
X73540714Y-102786904D02*
X73540714Y-102620238D01*
X73278809Y-102548809D02*
X73278809Y-102786904D01*
X73778809Y-102786904D01*
X73778809Y-102548809D01*
X73920000Y-102453571D02*
X73920000Y-101977380D01*
X73302619Y-102358333D02*
X73278809Y-102286904D01*
X73278809Y-102167857D01*
X73302619Y-102120238D01*
X73326428Y-102096428D01*
X73374047Y-102072619D01*
X73421666Y-102072619D01*
X73469285Y-102096428D01*
X73493095Y-102120238D01*
X73516904Y-102167857D01*
X73540714Y-102263095D01*
X73564523Y-102310714D01*
X73588333Y-102334523D01*
X73635952Y-102358333D01*
X73683571Y-102358333D01*
X73731190Y-102334523D01*
X73755000Y-102310714D01*
X73778809Y-102263095D01*
X73778809Y-102144047D01*
X73755000Y-102072619D01*
X73920000Y-101977380D02*
X73920000Y-101525000D01*
X73540714Y-101858333D02*
X73540714Y-101691666D01*
X73278809Y-101620238D02*
X73278809Y-101858333D01*
X73778809Y-101858333D01*
X73778809Y-101620238D01*
X73920000Y-101525000D02*
X73920000Y-101144047D01*
X73778809Y-101477380D02*
X73778809Y-101191666D01*
X73278809Y-101334523D02*
X73778809Y-101334523D01*
X65303809Y-112519047D02*
X65803809Y-112519047D01*
X65803809Y-112328571D01*
X65780000Y-112280952D01*
X65756190Y-112257142D01*
X65708571Y-112233333D01*
X65637142Y-112233333D01*
X65589523Y-112257142D01*
X65565714Y-112280952D01*
X65541904Y-112328571D01*
X65541904Y-112519047D01*
X65565714Y-111852380D02*
X65541904Y-111780952D01*
X65518095Y-111757142D01*
X65470476Y-111733333D01*
X65399047Y-111733333D01*
X65351428Y-111757142D01*
X65327619Y-111780952D01*
X65303809Y-111828571D01*
X65303809Y-112019047D01*
X65803809Y-112019047D01*
X65803809Y-111852380D01*
X65780000Y-111804761D01*
X65756190Y-111780952D01*
X65708571Y-111757142D01*
X65660952Y-111757142D01*
X65613333Y-111780952D01*
X65589523Y-111804761D01*
X65565714Y-111852380D01*
X65565714Y-112019047D01*
X65803809Y-111423809D02*
X65803809Y-111376190D01*
X65780000Y-111328571D01*
X65756190Y-111304761D01*
X65708571Y-111280952D01*
X65613333Y-111257142D01*
X65494285Y-111257142D01*
X65399047Y-111280952D01*
X65351428Y-111304761D01*
X65327619Y-111328571D01*
X65303809Y-111376190D01*
X65303809Y-111423809D01*
X65327619Y-111471428D01*
X65351428Y-111495238D01*
X65399047Y-111519047D01*
X65494285Y-111542857D01*
X65613333Y-111542857D01*
X65708571Y-111519047D01*
X65756190Y-111495238D01*
X65780000Y-111471428D01*
X65803809Y-111423809D01*
X65303809Y-102319047D02*
X65803809Y-102319047D01*
X65803809Y-102128571D01*
X65780000Y-102080952D01*
X65756190Y-102057142D01*
X65708571Y-102033333D01*
X65637142Y-102033333D01*
X65589523Y-102057142D01*
X65565714Y-102080952D01*
X65541904Y-102128571D01*
X65541904Y-102319047D01*
X65303809Y-101819047D02*
X65803809Y-101819047D01*
X65803809Y-101700000D01*
X65780000Y-101628571D01*
X65732380Y-101580952D01*
X65684761Y-101557142D01*
X65589523Y-101533333D01*
X65518095Y-101533333D01*
X65422857Y-101557142D01*
X65375238Y-101580952D01*
X65327619Y-101628571D01*
X65303809Y-101700000D01*
X65303809Y-101819047D01*
X65637142Y-101104761D02*
X65303809Y-101104761D01*
X65827619Y-101223809D02*
X65470476Y-101342857D01*
X65470476Y-101033333D01*
X80703809Y-104994047D02*
X81203809Y-104994047D01*
X81203809Y-104803571D01*
X81180000Y-104755952D01*
X81156190Y-104732142D01*
X81108571Y-104708333D01*
X81037142Y-104708333D01*
X80989523Y-104732142D01*
X80965714Y-104755952D01*
X80941904Y-104803571D01*
X80941904Y-104994047D01*
X80965714Y-104327380D02*
X80941904Y-104255952D01*
X80918095Y-104232142D01*
X80870476Y-104208333D01*
X80799047Y-104208333D01*
X80751428Y-104232142D01*
X80727619Y-104255952D01*
X80703809Y-104303571D01*
X80703809Y-104494047D01*
X81203809Y-104494047D01*
X81203809Y-104327380D01*
X81180000Y-104279761D01*
X81156190Y-104255952D01*
X81108571Y-104232142D01*
X81060952Y-104232142D01*
X81013333Y-104255952D01*
X80989523Y-104279761D01*
X80965714Y-104327380D01*
X80965714Y-104494047D01*
X81203809Y-103755952D02*
X81203809Y-103994047D01*
X80965714Y-104017857D01*
X80989523Y-103994047D01*
X81013333Y-103946428D01*
X81013333Y-103827380D01*
X80989523Y-103779761D01*
X80965714Y-103755952D01*
X80918095Y-103732142D01*
X80799047Y-103732142D01*
X80751428Y-103755952D01*
X80727619Y-103779761D01*
X80703809Y-103827380D01*
X80703809Y-103946428D01*
X80727619Y-103994047D01*
X80751428Y-104017857D01*
X80703809Y-94869047D02*
X81203809Y-94869047D01*
X81203809Y-94678571D01*
X81180000Y-94630952D01*
X81156190Y-94607142D01*
X81108571Y-94583333D01*
X81037142Y-94583333D01*
X80989523Y-94607142D01*
X80965714Y-94630952D01*
X80941904Y-94678571D01*
X80941904Y-94869047D01*
X80751428Y-94083333D02*
X80727619Y-94107142D01*
X80703809Y-94178571D01*
X80703809Y-94226190D01*
X80727619Y-94297619D01*
X80775238Y-94345238D01*
X80822857Y-94369047D01*
X80918095Y-94392857D01*
X80989523Y-94392857D01*
X81084761Y-94369047D01*
X81132380Y-94345238D01*
X81180000Y-94297619D01*
X81203809Y-94226190D01*
X81203809Y-94178571D01*
X81180000Y-94107142D01*
X81156190Y-94083333D01*
X81203809Y-93654761D02*
X81203809Y-93750000D01*
X81180000Y-93797619D01*
X81156190Y-93821428D01*
X81084761Y-93869047D01*
X80989523Y-93892857D01*
X80799047Y-93892857D01*
X80751428Y-93869047D01*
X80727619Y-93845238D01*
X80703809Y-93797619D01*
X80703809Y-93702380D01*
X80727619Y-93654761D01*
X80751428Y-93630952D01*
X80799047Y-93607142D01*
X80918095Y-93607142D01*
X80965714Y-93630952D01*
X80989523Y-93654761D01*
X81013333Y-93702380D01*
X81013333Y-93797619D01*
X80989523Y-93845238D01*
X80965714Y-93869047D01*
X80918095Y-93892857D01*
D12*
X79738333Y-104972380D02*
X79166904Y-104972380D01*
X79452619Y-105972380D02*
X79452619Y-104972380D01*
X78690714Y-105972380D02*
X78785952Y-105924761D01*
X78833571Y-105877142D01*
X78881190Y-105781904D01*
X78881190Y-105496190D01*
X78833571Y-105400952D01*
X78785952Y-105353333D01*
X78690714Y-105305714D01*
X78547857Y-105305714D01*
X78452619Y-105353333D01*
X78405000Y-105400952D01*
X78357380Y-105496190D01*
X78357380Y-105781904D01*
X78405000Y-105877142D01*
X78452619Y-105924761D01*
X78547857Y-105972380D01*
X78690714Y-105972380D01*
X77928809Y-105305714D02*
X77928809Y-105972380D01*
X77928809Y-105400952D02*
X77881190Y-105353333D01*
X77785952Y-105305714D01*
X77643095Y-105305714D01*
X77547857Y-105353333D01*
X77500238Y-105448571D01*
X77500238Y-105972380D01*
X77024047Y-105972380D02*
X77024047Y-105305714D01*
X77024047Y-104972380D02*
X77071666Y-105020000D01*
X77024047Y-105067619D01*
X76976428Y-105020000D01*
X77024047Y-104972380D01*
X77024047Y-105067619D01*
X76547857Y-105972380D02*
X76547857Y-104972380D01*
X76452619Y-105591428D02*
X76166904Y-105972380D01*
X76166904Y-105305714D02*
X76547857Y-105686666D01*
X75738333Y-105972380D02*
X75738333Y-105305714D01*
X75738333Y-104972380D02*
X75785952Y-105020000D01*
X75738333Y-105067619D01*
X75690714Y-105020000D01*
X75738333Y-104972380D01*
X75738333Y-105067619D01*
X75119285Y-105972380D02*
X75214523Y-105924761D01*
X75262142Y-105829523D01*
X75262142Y-104972380D01*
X74595476Y-105972380D02*
X74690714Y-105924761D01*
X74738333Y-105829523D01*
X74738333Y-104972380D01*
X73833571Y-105924761D02*
X73928809Y-105972380D01*
X74119285Y-105972380D01*
X74214523Y-105924761D01*
X74262142Y-105829523D01*
X74262142Y-105448571D01*
X74214523Y-105353333D01*
X74119285Y-105305714D01*
X73928809Y-105305714D01*
X73833571Y-105353333D01*
X73785952Y-105448571D01*
X73785952Y-105543809D01*
X74262142Y-105639047D01*
X73357380Y-105972380D02*
X73357380Y-105305714D01*
X73357380Y-105496190D02*
X73309761Y-105400952D01*
X73262142Y-105353333D01*
X73166904Y-105305714D01*
X73071666Y-105305714D01*
X78024047Y-107582380D02*
X78595476Y-107582380D01*
X78309761Y-107582380D02*
X78309761Y-106582380D01*
X78405000Y-106725238D01*
X78500238Y-106820476D01*
X78595476Y-106868095D01*
X77405000Y-106582380D02*
X77309761Y-106582380D01*
X77214523Y-106630000D01*
X77166904Y-106677619D01*
X77119285Y-106772857D01*
X77071666Y-106963333D01*
X77071666Y-107201428D01*
X77119285Y-107391904D01*
X77166904Y-107487142D01*
X77214523Y-107534761D01*
X77309761Y-107582380D01*
X77405000Y-107582380D01*
X77500238Y-107534761D01*
X77547857Y-107487142D01*
X77595476Y-107391904D01*
X77643095Y-107201428D01*
X77643095Y-106963333D01*
X77595476Y-106772857D01*
X77547857Y-106677619D01*
X77500238Y-106630000D01*
X77405000Y-106582380D01*
X76452619Y-106582380D02*
X76357380Y-106582380D01*
X76262142Y-106630000D01*
X76214523Y-106677619D01*
X76166904Y-106772857D01*
X76119285Y-106963333D01*
X76119285Y-107201428D01*
X76166904Y-107391904D01*
X76214523Y-107487142D01*
X76262142Y-107534761D01*
X76357380Y-107582380D01*
X76452619Y-107582380D01*
X76547857Y-107534761D01*
X76595476Y-107487142D01*
X76643095Y-107391904D01*
X76690714Y-107201428D01*
X76690714Y-106963333D01*
X76643095Y-106772857D01*
X76595476Y-106677619D01*
X76547857Y-106630000D01*
X76452619Y-106582380D01*
X75500238Y-106582380D02*
X75405000Y-106582380D01*
X75309761Y-106630000D01*
X75262142Y-106677619D01*
X75214523Y-106772857D01*
X75166904Y-106963333D01*
X75166904Y-107201428D01*
X75214523Y-107391904D01*
X75262142Y-107487142D01*
X75309761Y-107534761D01*
X75405000Y-107582380D01*
X75500238Y-107582380D01*
X75595476Y-107534761D01*
X75643095Y-107487142D01*
X75690714Y-107391904D01*
X75738333Y-107201428D01*
X75738333Y-106963333D01*
X75690714Y-106772857D01*
X75643095Y-106677619D01*
X75595476Y-106630000D01*
X75500238Y-106582380D01*
X74547857Y-106582380D02*
X74452619Y-106582380D01*
X74357380Y-106630000D01*
X74309761Y-106677619D01*
X74262142Y-106772857D01*
X74214523Y-106963333D01*
X74214523Y-107201428D01*
X74262142Y-107391904D01*
X74309761Y-107487142D01*
X74357380Y-107534761D01*
X74452619Y-107582380D01*
X74547857Y-107582380D01*
X74643095Y-107534761D01*
X74690714Y-107487142D01*
X74738333Y-107391904D01*
X74785952Y-107201428D01*
X74785952Y-106963333D01*
X74738333Y-106772857D01*
X74690714Y-106677619D01*
X74643095Y-106630000D01*
X74547857Y-106582380D01*
D10*
X72638333Y-110076190D02*
X72805000Y-109838095D01*
X72924047Y-110076190D02*
X72924047Y-109576190D01*
X72733571Y-109576190D01*
X72685952Y-109600000D01*
X72662142Y-109623809D01*
X72638333Y-109671428D01*
X72638333Y-109742857D01*
X72662142Y-109790476D01*
X72685952Y-109814285D01*
X72733571Y-109838095D01*
X72924047Y-109838095D01*
X72471666Y-109576190D02*
X72138333Y-110076190D01*
X72138333Y-109576190D02*
X72471666Y-110076190D01*
X80753809Y-92394047D02*
X81253809Y-92394047D01*
X81253809Y-92203571D01*
X81230000Y-92155952D01*
X81206190Y-92132142D01*
X81158571Y-92108333D01*
X81087142Y-92108333D01*
X81039523Y-92132142D01*
X81015714Y-92155952D01*
X80991904Y-92203571D01*
X80991904Y-92394047D01*
X80801428Y-91608333D02*
X80777619Y-91632142D01*
X80753809Y-91703571D01*
X80753809Y-91751190D01*
X80777619Y-91822619D01*
X80825238Y-91870238D01*
X80872857Y-91894047D01*
X80968095Y-91917857D01*
X81039523Y-91917857D01*
X81134761Y-91894047D01*
X81182380Y-91870238D01*
X81230000Y-91822619D01*
X81253809Y-91751190D01*
X81253809Y-91703571D01*
X81230000Y-91632142D01*
X81206190Y-91608333D01*
X81253809Y-91155952D02*
X81253809Y-91394047D01*
X81015714Y-91417857D01*
X81039523Y-91394047D01*
X81063333Y-91346428D01*
X81063333Y-91227380D01*
X81039523Y-91179761D01*
X81015714Y-91155952D01*
X80968095Y-91132142D01*
X80849047Y-91132142D01*
X80801428Y-91155952D01*
X80777619Y-91179761D01*
X80753809Y-91227380D01*
X80753809Y-91346428D01*
X80777619Y-91394047D01*
X80801428Y-91417857D01*
X83135952Y-109550000D02*
X83183571Y-109526190D01*
X83255000Y-109526190D01*
X83326428Y-109550000D01*
X83374047Y-109597619D01*
X83397857Y-109645238D01*
X83421666Y-109740476D01*
X83421666Y-109811904D01*
X83397857Y-109907142D01*
X83374047Y-109954761D01*
X83326428Y-110002380D01*
X83255000Y-110026190D01*
X83207380Y-110026190D01*
X83135952Y-110002380D01*
X83112142Y-109978571D01*
X83112142Y-109811904D01*
X83207380Y-109811904D01*
X82897857Y-110026190D02*
X82897857Y-109526190D01*
X82612142Y-110026190D01*
X82612142Y-109526190D01*
X82374047Y-110026190D02*
X82374047Y-109526190D01*
X82255000Y-109526190D01*
X82183571Y-109550000D01*
X82135952Y-109597619D01*
X82112142Y-109645238D01*
X82088333Y-109740476D01*
X82088333Y-109811904D01*
X82112142Y-109907142D01*
X82135952Y-109954761D01*
X82183571Y-110002380D01*
X82255000Y-110026190D01*
X82374047Y-110026190D01*
X80753809Y-107619047D02*
X81253809Y-107619047D01*
X81253809Y-107428571D01*
X81230000Y-107380952D01*
X81206190Y-107357142D01*
X81158571Y-107333333D01*
X81087142Y-107333333D01*
X81039523Y-107357142D01*
X81015714Y-107380952D01*
X80991904Y-107428571D01*
X80991904Y-107619047D01*
X81015714Y-106952380D02*
X80991904Y-106880952D01*
X80968095Y-106857142D01*
X80920476Y-106833333D01*
X80849047Y-106833333D01*
X80801428Y-106857142D01*
X80777619Y-106880952D01*
X80753809Y-106928571D01*
X80753809Y-107119047D01*
X81253809Y-107119047D01*
X81253809Y-106952380D01*
X81230000Y-106904761D01*
X81206190Y-106880952D01*
X81158571Y-106857142D01*
X81110952Y-106857142D01*
X81063333Y-106880952D01*
X81039523Y-106904761D01*
X81015714Y-106952380D01*
X81015714Y-107119047D01*
X81087142Y-106404761D02*
X80753809Y-106404761D01*
X81277619Y-106523809D02*
X80920476Y-106642857D01*
X80920476Y-106333333D01*
X78903809Y-100510714D02*
X79403809Y-100510714D01*
X79046666Y-100344047D01*
X79403809Y-100177380D01*
X78903809Y-100177380D01*
X79403809Y-99844047D02*
X79403809Y-99748809D01*
X79380000Y-99701190D01*
X79332380Y-99653571D01*
X79237142Y-99629761D01*
X79070476Y-99629761D01*
X78975238Y-99653571D01*
X78927619Y-99701190D01*
X78903809Y-99748809D01*
X78903809Y-99844047D01*
X78927619Y-99891666D01*
X78975238Y-99939285D01*
X79070476Y-99963095D01*
X79237142Y-99963095D01*
X79332380Y-99939285D01*
X79380000Y-99891666D01*
X79403809Y-99844047D01*
X78927619Y-99439285D02*
X78903809Y-99367857D01*
X78903809Y-99248809D01*
X78927619Y-99201190D01*
X78951428Y-99177380D01*
X78999047Y-99153571D01*
X79046666Y-99153571D01*
X79094285Y-99177380D01*
X79118095Y-99201190D01*
X79141904Y-99248809D01*
X79165714Y-99344047D01*
X79189523Y-99391666D01*
X79213333Y-99415476D01*
X79260952Y-99439285D01*
X79308571Y-99439285D01*
X79356190Y-99415476D01*
X79380000Y-99391666D01*
X79403809Y-99344047D01*
X79403809Y-99225000D01*
X79380000Y-99153571D01*
X78903809Y-98939285D02*
X79403809Y-98939285D01*
X65303809Y-107494047D02*
X65803809Y-107494047D01*
X65803809Y-107303571D01*
X65780000Y-107255952D01*
X65756190Y-107232142D01*
X65708571Y-107208333D01*
X65637142Y-107208333D01*
X65589523Y-107232142D01*
X65565714Y-107255952D01*
X65541904Y-107303571D01*
X65541904Y-107494047D01*
X65303809Y-106994047D02*
X65803809Y-106994047D01*
X65803809Y-106875000D01*
X65780000Y-106803571D01*
X65732380Y-106755952D01*
X65684761Y-106732142D01*
X65589523Y-106708333D01*
X65518095Y-106708333D01*
X65422857Y-106732142D01*
X65375238Y-106755952D01*
X65327619Y-106803571D01*
X65303809Y-106875000D01*
X65303809Y-106994047D01*
X65803809Y-106279761D02*
X65803809Y-106375000D01*
X65780000Y-106422619D01*
X65756190Y-106446428D01*
X65684761Y-106494047D01*
X65589523Y-106517857D01*
X65399047Y-106517857D01*
X65351428Y-106494047D01*
X65327619Y-106470238D01*
X65303809Y-106422619D01*
X65303809Y-106327380D01*
X65327619Y-106279761D01*
X65351428Y-106255952D01*
X65399047Y-106232142D01*
X65518095Y-106232142D01*
X65565714Y-106255952D01*
X65589523Y-106279761D01*
X65613333Y-106327380D01*
X65613333Y-106422619D01*
X65589523Y-106470238D01*
X65565714Y-106494047D01*
X65518095Y-106517857D01*
X80728809Y-99944047D02*
X81228809Y-99944047D01*
X81228809Y-99753571D01*
X81205000Y-99705952D01*
X81181190Y-99682142D01*
X81133571Y-99658333D01*
X81062142Y-99658333D01*
X81014523Y-99682142D01*
X80990714Y-99705952D01*
X80966904Y-99753571D01*
X80966904Y-99944047D01*
X80990714Y-99277380D02*
X80966904Y-99205952D01*
X80943095Y-99182142D01*
X80895476Y-99158333D01*
X80824047Y-99158333D01*
X80776428Y-99182142D01*
X80752619Y-99205952D01*
X80728809Y-99253571D01*
X80728809Y-99444047D01*
X81228809Y-99444047D01*
X81228809Y-99277380D01*
X81205000Y-99229761D01*
X81181190Y-99205952D01*
X81133571Y-99182142D01*
X81085952Y-99182142D01*
X81038333Y-99205952D01*
X81014523Y-99229761D01*
X80990714Y-99277380D01*
X80990714Y-99444047D01*
X81228809Y-98991666D02*
X81228809Y-98658333D01*
X80728809Y-98872619D01*
X65303809Y-94744047D02*
X65803809Y-94744047D01*
X65803809Y-94553571D01*
X65780000Y-94505952D01*
X65756190Y-94482142D01*
X65708571Y-94458333D01*
X65637142Y-94458333D01*
X65589523Y-94482142D01*
X65565714Y-94505952D01*
X65541904Y-94553571D01*
X65541904Y-94744047D01*
X65351428Y-93958333D02*
X65327619Y-93982142D01*
X65303809Y-94053571D01*
X65303809Y-94101190D01*
X65327619Y-94172619D01*
X65375238Y-94220238D01*
X65422857Y-94244047D01*
X65518095Y-94267857D01*
X65589523Y-94267857D01*
X65684761Y-94244047D01*
X65732380Y-94220238D01*
X65780000Y-94172619D01*
X65803809Y-94101190D01*
X65803809Y-94053571D01*
X65780000Y-93982142D01*
X65756190Y-93958333D01*
X65756190Y-93767857D02*
X65780000Y-93744047D01*
X65803809Y-93696428D01*
X65803809Y-93577380D01*
X65780000Y-93529761D01*
X65756190Y-93505952D01*
X65708571Y-93482142D01*
X65660952Y-93482142D01*
X65589523Y-93505952D01*
X65303809Y-93791666D01*
X65303809Y-93482142D01*
X65328809Y-99794047D02*
X65828809Y-99794047D01*
X65828809Y-99603571D01*
X65805000Y-99555952D01*
X65781190Y-99532142D01*
X65733571Y-99508333D01*
X65662142Y-99508333D01*
X65614523Y-99532142D01*
X65590714Y-99555952D01*
X65566904Y-99603571D01*
X65566904Y-99794047D01*
X65328809Y-99294047D02*
X65828809Y-99294047D01*
X65828809Y-99175000D01*
X65805000Y-99103571D01*
X65757380Y-99055952D01*
X65709761Y-99032142D01*
X65614523Y-99008333D01*
X65543095Y-99008333D01*
X65447857Y-99032142D01*
X65400238Y-99055952D01*
X65352619Y-99103571D01*
X65328809Y-99175000D01*
X65328809Y-99294047D01*
X65328809Y-98532142D02*
X65328809Y-98817857D01*
X65328809Y-98675000D02*
X65828809Y-98675000D01*
X65757380Y-98722619D01*
X65709761Y-98770238D01*
X65685952Y-98817857D01*
D11*
X68544285Y-109346428D02*
X68344285Y-109946428D01*
X68144285Y-109346428D01*
X67630000Y-109946428D02*
X67972857Y-109946428D01*
X67801428Y-109946428D02*
X67801428Y-109346428D01*
X67858571Y-109432142D01*
X67915714Y-109489285D01*
X67972857Y-109517857D01*
X67372857Y-109889285D02*
X67344285Y-109917857D01*
X67372857Y-109946428D01*
X67401428Y-109917857D01*
X67372857Y-109889285D01*
X67372857Y-109946428D01*
X66972857Y-109346428D02*
X66915714Y-109346428D01*
X66858571Y-109375000D01*
X66830000Y-109403571D01*
X66801428Y-109460714D01*
X66772857Y-109575000D01*
X66772857Y-109717857D01*
X66801428Y-109832142D01*
X66830000Y-109889285D01*
X66858571Y-109917857D01*
X66915714Y-109946428D01*
X66972857Y-109946428D01*
X67030000Y-109917857D01*
X67058571Y-109889285D01*
X67087142Y-109832142D01*
X67115714Y-109717857D01*
X67115714Y-109575000D01*
X67087142Y-109460714D01*
X67058571Y-109403571D01*
X67030000Y-109375000D01*
X66972857Y-109346428D01*
D10*
X73203809Y-98060714D02*
X73703809Y-98060714D01*
X73346666Y-97894047D01*
X73703809Y-97727380D01*
X73203809Y-97727380D01*
X73203809Y-97489285D02*
X73703809Y-97489285D01*
X73227619Y-97275000D02*
X73203809Y-97203571D01*
X73203809Y-97084523D01*
X73227619Y-97036904D01*
X73251428Y-97013095D01*
X73299047Y-96989285D01*
X73346666Y-96989285D01*
X73394285Y-97013095D01*
X73418095Y-97036904D01*
X73441904Y-97084523D01*
X73465714Y-97179761D01*
X73489523Y-97227380D01*
X73513333Y-97251190D01*
X73560952Y-97275000D01*
X73608571Y-97275000D01*
X73656190Y-97251190D01*
X73680000Y-97227380D01*
X73703809Y-97179761D01*
X73703809Y-97060714D01*
X73680000Y-96989285D01*
X73703809Y-96679761D02*
X73703809Y-96584523D01*
X73680000Y-96536904D01*
X73632380Y-96489285D01*
X73537142Y-96465476D01*
X73370476Y-96465476D01*
X73275238Y-96489285D01*
X73227619Y-96536904D01*
X73203809Y-96584523D01*
X73203809Y-96679761D01*
X73227619Y-96727380D01*
X73275238Y-96775000D01*
X73370476Y-96798809D01*
X73537142Y-96798809D01*
X73632380Y-96775000D01*
X73680000Y-96727380D01*
X73703809Y-96679761D01*
X75560952Y-109551190D02*
X75275238Y-109551190D01*
X75418095Y-110051190D02*
X75418095Y-109551190D01*
X75156190Y-109551190D02*
X74822857Y-110051190D01*
X74822857Y-109551190D02*
X75156190Y-110051190D01*
X79355000Y-102955952D02*
X79378809Y-103003571D01*
X79378809Y-103075000D01*
X79355000Y-103146428D01*
X79307380Y-103194047D01*
X79259761Y-103217857D01*
X79164523Y-103241666D01*
X79093095Y-103241666D01*
X78997857Y-103217857D01*
X78950238Y-103194047D01*
X78902619Y-103146428D01*
X78878809Y-103075000D01*
X78878809Y-103027380D01*
X78902619Y-102955952D01*
X78926428Y-102932142D01*
X79093095Y-102932142D01*
X79093095Y-103027380D01*
X78878809Y-102717857D02*
X79378809Y-102717857D01*
X78878809Y-102432142D01*
X79378809Y-102432142D01*
X78878809Y-102194047D02*
X79378809Y-102194047D01*
X79378809Y-102075000D01*
X79355000Y-102003571D01*
X79307380Y-101955952D01*
X79259761Y-101932142D01*
X79164523Y-101908333D01*
X79093095Y-101908333D01*
X78997857Y-101932142D01*
X78950238Y-101955952D01*
X78902619Y-102003571D01*
X78878809Y-102075000D01*
X78878809Y-102194047D01*
X80853809Y-89919047D02*
X81353809Y-89919047D01*
X81353809Y-89728571D01*
X81330000Y-89680952D01*
X81306190Y-89657142D01*
X81258571Y-89633333D01*
X81187142Y-89633333D01*
X81139523Y-89657142D01*
X81115714Y-89680952D01*
X81091904Y-89728571D01*
X81091904Y-89919047D01*
X80901428Y-89133333D02*
X80877619Y-89157142D01*
X80853809Y-89228571D01*
X80853809Y-89276190D01*
X80877619Y-89347619D01*
X80925238Y-89395238D01*
X80972857Y-89419047D01*
X81068095Y-89442857D01*
X81139523Y-89442857D01*
X81234761Y-89419047D01*
X81282380Y-89395238D01*
X81330000Y-89347619D01*
X81353809Y-89276190D01*
X81353809Y-89228571D01*
X81330000Y-89157142D01*
X81306190Y-89133333D01*
X81187142Y-88704761D02*
X80853809Y-88704761D01*
X81377619Y-88823809D02*
X81020476Y-88942857D01*
X81020476Y-88633333D01*
X70651428Y-110101190D02*
X70651428Y-109601190D01*
X70532380Y-109601190D01*
X70460952Y-109625000D01*
X70413333Y-109672619D01*
X70389523Y-109720238D01*
X70365714Y-109815476D01*
X70365714Y-109886904D01*
X70389523Y-109982142D01*
X70413333Y-110029761D01*
X70460952Y-110077380D01*
X70532380Y-110101190D01*
X70651428Y-110101190D01*
X70222857Y-109601190D02*
X69937142Y-109601190D01*
X70080000Y-110101190D02*
X70080000Y-109601190D01*
X69484761Y-110101190D02*
X69651428Y-109863095D01*
X69770476Y-110101190D02*
X69770476Y-109601190D01*
X69580000Y-109601190D01*
X69532380Y-109625000D01*
X69508571Y-109648809D01*
X69484761Y-109696428D01*
X69484761Y-109767857D01*
X69508571Y-109815476D01*
X69532380Y-109839285D01*
X69580000Y-109863095D01*
X69770476Y-109863095D01*
X80428809Y-110028571D02*
X80452619Y-110052380D01*
X80524047Y-110076190D01*
X80571666Y-110076190D01*
X80643095Y-110052380D01*
X80690714Y-110004761D01*
X80714523Y-109957142D01*
X80738333Y-109861904D01*
X80738333Y-109790476D01*
X80714523Y-109695238D01*
X80690714Y-109647619D01*
X80643095Y-109600000D01*
X80571666Y-109576190D01*
X80524047Y-109576190D01*
X80452619Y-109600000D01*
X80428809Y-109623809D01*
X80285952Y-109576190D02*
X80000238Y-109576190D01*
X80143095Y-110076190D02*
X80143095Y-109576190D01*
X79857380Y-110052380D02*
X79785952Y-110076190D01*
X79666904Y-110076190D01*
X79619285Y-110052380D01*
X79595476Y-110028571D01*
X79571666Y-109980952D01*
X79571666Y-109933333D01*
X79595476Y-109885714D01*
X79619285Y-109861904D01*
X79666904Y-109838095D01*
X79762142Y-109814285D01*
X79809761Y-109790476D01*
X79833571Y-109766666D01*
X79857380Y-109719047D01*
X79857380Y-109671428D01*
X79833571Y-109623809D01*
X79809761Y-109600000D01*
X79762142Y-109576190D01*
X79643095Y-109576190D01*
X79571666Y-109600000D01*
X77825238Y-109576190D02*
X78063333Y-109576190D01*
X78087142Y-109814285D01*
X78063333Y-109790476D01*
X78015714Y-109766666D01*
X77896666Y-109766666D01*
X77849047Y-109790476D01*
X77825238Y-109814285D01*
X77801428Y-109861904D01*
X77801428Y-109980952D01*
X77825238Y-110028571D01*
X77849047Y-110052380D01*
X77896666Y-110076190D01*
X78015714Y-110076190D01*
X78063333Y-110052380D01*
X78087142Y-110028571D01*
X77658571Y-109576190D02*
X77491904Y-110076190D01*
X77325238Y-109576190D01*
X79403809Y-97791666D02*
X78903809Y-97625000D01*
X79403809Y-97458333D01*
X78951428Y-97005952D02*
X78927619Y-97029761D01*
X78903809Y-97101190D01*
X78903809Y-97148809D01*
X78927619Y-97220238D01*
X78975238Y-97267857D01*
X79022857Y-97291666D01*
X79118095Y-97315476D01*
X79189523Y-97315476D01*
X79284761Y-97291666D01*
X79332380Y-97267857D01*
X79380000Y-97220238D01*
X79403809Y-97148809D01*
X79403809Y-97101190D01*
X79380000Y-97029761D01*
X79356190Y-97005952D01*
X78951428Y-96505952D02*
X78927619Y-96529761D01*
X78903809Y-96601190D01*
X78903809Y-96648809D01*
X78927619Y-96720238D01*
X78975238Y-96767857D01*
X79022857Y-96791666D01*
X79118095Y-96815476D01*
X79189523Y-96815476D01*
X79284761Y-96791666D01*
X79332380Y-96767857D01*
X79380000Y-96720238D01*
X79403809Y-96648809D01*
X79403809Y-96601190D01*
X79380000Y-96529761D01*
X79356190Y-96505952D01*
X65303809Y-97519047D02*
X65803809Y-97519047D01*
X65803809Y-97328571D01*
X65780000Y-97280952D01*
X65756190Y-97257142D01*
X65708571Y-97233333D01*
X65637142Y-97233333D01*
X65589523Y-97257142D01*
X65565714Y-97280952D01*
X65541904Y-97328571D01*
X65541904Y-97519047D01*
X65303809Y-97019047D02*
X65803809Y-97019047D01*
X65803809Y-96900000D01*
X65780000Y-96828571D01*
X65732380Y-96780952D01*
X65684761Y-96757142D01*
X65589523Y-96733333D01*
X65518095Y-96733333D01*
X65422857Y-96757142D01*
X65375238Y-96780952D01*
X65327619Y-96828571D01*
X65303809Y-96900000D01*
X65303809Y-97019047D01*
X65803809Y-96423809D02*
X65803809Y-96376190D01*
X65780000Y-96328571D01*
X65756190Y-96304761D01*
X65708571Y-96280952D01*
X65613333Y-96257142D01*
X65494285Y-96257142D01*
X65399047Y-96280952D01*
X65351428Y-96304761D01*
X65327619Y-96328571D01*
X65303809Y-96376190D01*
X65303809Y-96423809D01*
X65327619Y-96471428D01*
X65351428Y-96495238D01*
X65399047Y-96519047D01*
X65494285Y-96542857D01*
X65613333Y-96542857D01*
X65708571Y-96519047D01*
X65756190Y-96495238D01*
X65780000Y-96471428D01*
X65803809Y-96423809D01*
X73252619Y-100595238D02*
X73228809Y-100523809D01*
X73228809Y-100404761D01*
X73252619Y-100357142D01*
X73276428Y-100333333D01*
X73324047Y-100309523D01*
X73371666Y-100309523D01*
X73419285Y-100333333D01*
X73443095Y-100357142D01*
X73466904Y-100404761D01*
X73490714Y-100500000D01*
X73514523Y-100547619D01*
X73538333Y-100571428D01*
X73585952Y-100595238D01*
X73633571Y-100595238D01*
X73681190Y-100571428D01*
X73705000Y-100547619D01*
X73728809Y-100500000D01*
X73728809Y-100380952D01*
X73705000Y-100309523D01*
X73276428Y-99809523D02*
X73252619Y-99833333D01*
X73228809Y-99904761D01*
X73228809Y-99952380D01*
X73252619Y-100023809D01*
X73300238Y-100071428D01*
X73347857Y-100095238D01*
X73443095Y-100119047D01*
X73514523Y-100119047D01*
X73609761Y-100095238D01*
X73657380Y-100071428D01*
X73705000Y-100023809D01*
X73728809Y-99952380D01*
X73728809Y-99904761D01*
X73705000Y-99833333D01*
X73681190Y-99809523D01*
X73228809Y-99357142D02*
X73228809Y-99595238D01*
X73728809Y-99595238D01*
X73228809Y-99190476D02*
X73728809Y-99190476D01*
X73228809Y-98904761D02*
X73514523Y-99119047D01*
X73728809Y-98904761D02*
X73443095Y-99190476D01*
%TO.C,G\u002A\u002A\u002A*%
G36*
X71918203Y-103836539D02*
G01*
X71925191Y-103840227D01*
X71950484Y-103858110D01*
X71972019Y-103880743D01*
X71988461Y-103906789D01*
X71999787Y-103929785D01*
X72000819Y-104057658D01*
X72000822Y-104058031D01*
X72001020Y-104096467D01*
X72000958Y-104129574D01*
X72000641Y-104157068D01*
X72000076Y-104178663D01*
X71999266Y-104194074D01*
X71998217Y-104203017D01*
X71997781Y-104205048D01*
X71988219Y-104233948D01*
X71973429Y-104258868D01*
X71953822Y-104279369D01*
X71929811Y-104295014D01*
X71901809Y-104305366D01*
X71900891Y-104305584D01*
X71893462Y-104306734D01*
X71882314Y-104307643D01*
X71866940Y-104308322D01*
X71846834Y-104308785D01*
X71821492Y-104309043D01*
X71790406Y-104309109D01*
X71753071Y-104308995D01*
X71621226Y-104308347D01*
X71597658Y-104296759D01*
X71582094Y-104287822D01*
X71559724Y-104270264D01*
X71540638Y-104249512D01*
X71526573Y-104227261D01*
X71516653Y-104206990D01*
X71515657Y-104077338D01*
X71515473Y-104043157D01*
X71515505Y-104007412D01*
X71515816Y-103978110D01*
X71516404Y-103955327D01*
X71517269Y-103939141D01*
X71518409Y-103929629D01*
X71522800Y-103913433D01*
X71534670Y-103887281D01*
X71551247Y-103864497D01*
X71571743Y-103846073D01*
X71595368Y-103832996D01*
X71595465Y-103832957D01*
X71600330Y-103831052D01*
X71605050Y-103829488D01*
X71610316Y-103828232D01*
X71616819Y-103827249D01*
X71625247Y-103826507D01*
X71636292Y-103825971D01*
X71650643Y-103825609D01*
X71668991Y-103825385D01*
X71692025Y-103825267D01*
X71720437Y-103825221D01*
X71754915Y-103825213D01*
X71895198Y-103825213D01*
X71918203Y-103836539D01*
G37*
G36*
X68109377Y-107881172D02*
G01*
X67943828Y-107881172D01*
X67943828Y-107715623D01*
X68109377Y-107715623D01*
X68109377Y-107881172D01*
G37*
G36*
X70946522Y-104800094D02*
G01*
X70944883Y-104800097D01*
X70915026Y-104800130D01*
X70881417Y-104800128D01*
X70846684Y-104800093D01*
X70813452Y-104800028D01*
X70784351Y-104799935D01*
X70704110Y-104799610D01*
X70704110Y-105283061D01*
X70866281Y-105283061D01*
X70866281Y-105445232D01*
X71025390Y-105445232D01*
X71190622Y-105445232D01*
X71349539Y-105445232D01*
X71348632Y-105366680D01*
X71347725Y-105288129D01*
X71269174Y-105287222D01*
X71190622Y-105286315D01*
X71190622Y-105445232D01*
X71025390Y-105445232D01*
X71025065Y-105364991D01*
X71025058Y-105363385D01*
X71024967Y-105333957D01*
X71024904Y-105300559D01*
X71024871Y-105265819D01*
X71024871Y-105232363D01*
X71024906Y-105202820D01*
X71025073Y-105120890D01*
X71352793Y-105120890D01*
X71352793Y-105283061D01*
X71511585Y-105283061D01*
X71511585Y-105120890D01*
X71677135Y-105120890D01*
X71677135Y-105283061D01*
X71835887Y-105283061D01*
X71835063Y-105123424D01*
X71834238Y-104963787D01*
X71590982Y-104963027D01*
X71570146Y-104962962D01*
X71527501Y-104962834D01*
X71485255Y-104962711D01*
X71444205Y-104962596D01*
X71405143Y-104962490D01*
X71368865Y-104962397D01*
X71336166Y-104962317D01*
X71307839Y-104962253D01*
X71284681Y-104962208D01*
X71267485Y-104962182D01*
X71187244Y-104962098D01*
X71187244Y-104796548D01*
X72001476Y-104796548D01*
X72001476Y-105283061D01*
X72160340Y-105283061D01*
X72160189Y-105121735D01*
X72160172Y-105101635D01*
X72160147Y-105064840D01*
X72160129Y-105027715D01*
X72160118Y-104991441D01*
X72160115Y-104957199D01*
X72160120Y-104926170D01*
X72160133Y-104899536D01*
X72160154Y-104878478D01*
X72160269Y-104796548D01*
X72325818Y-104796548D01*
X72325818Y-105448610D01*
X72244733Y-105448683D01*
X72224917Y-105448698D01*
X72192915Y-105448715D01*
X72156070Y-105448730D01*
X72115435Y-105448741D01*
X72072065Y-105448748D01*
X72027015Y-105448752D01*
X71981339Y-105448752D01*
X71936093Y-105448749D01*
X71892331Y-105448743D01*
X71851107Y-105448733D01*
X71813477Y-105448720D01*
X71780494Y-105448703D01*
X71753213Y-105448683D01*
X71673878Y-105448610D01*
X71672973Y-105368369D01*
X71672067Y-105288129D01*
X71593515Y-105287222D01*
X71514964Y-105286315D01*
X71514964Y-105448610D01*
X71352793Y-105448610D01*
X71352793Y-105607402D01*
X71677135Y-105607402D01*
X71677135Y-105769573D01*
X71998098Y-105769573D01*
X71998098Y-105607402D01*
X72163647Y-105607402D01*
X72163647Y-105769573D01*
X72325818Y-105769573D01*
X72325818Y-106097063D01*
X72243888Y-106098023D01*
X72242622Y-106098038D01*
X72212657Y-106098283D01*
X72178746Y-106098404D01*
X72143564Y-106098401D01*
X72109786Y-106098273D01*
X72080089Y-106098021D01*
X71998220Y-106097060D01*
X71997314Y-106016936D01*
X71996409Y-105936812D01*
X71834238Y-105936067D01*
X71812956Y-105935971D01*
X71776207Y-105935815D01*
X71739244Y-105935669D01*
X71703229Y-105935536D01*
X71669324Y-105935421D01*
X71638691Y-105935328D01*
X71612492Y-105935260D01*
X71591887Y-105935222D01*
X71511708Y-105935122D01*
X71511670Y-105931744D01*
X72001476Y-105931744D01*
X72160393Y-105931744D01*
X72159486Y-105853192D01*
X72158579Y-105774641D01*
X72080028Y-105773734D01*
X72001476Y-105772827D01*
X72001476Y-105931744D01*
X71511670Y-105931744D01*
X71510802Y-105854882D01*
X71509896Y-105774641D01*
X71431345Y-105773734D01*
X71352793Y-105772827D01*
X71352793Y-105935122D01*
X71190622Y-105935122D01*
X71190622Y-106093915D01*
X71352793Y-106093915D01*
X71352793Y-106256086D01*
X71677135Y-106256086D01*
X71677135Y-106421635D01*
X71514964Y-106421635D01*
X71514964Y-106580427D01*
X71677135Y-106580427D01*
X71677135Y-106745976D01*
X71514964Y-106745976D01*
X71514964Y-106904769D01*
X71839306Y-106904769D01*
X71839306Y-107070318D01*
X71677135Y-107070318D01*
X71677135Y-107232489D01*
X71514964Y-107232489D01*
X71514964Y-107391281D01*
X72001476Y-107391281D01*
X72001476Y-107556830D01*
X71920391Y-107556896D01*
X71911556Y-107556902D01*
X71890884Y-107556913D01*
X71864683Y-107556923D01*
X71833742Y-107556932D01*
X71798847Y-107556940D01*
X71760788Y-107556947D01*
X71720352Y-107556953D01*
X71678329Y-107556958D01*
X71635506Y-107556960D01*
X71592671Y-107556961D01*
X71568506Y-107556961D01*
X71525670Y-107556959D01*
X71483335Y-107556955D01*
X71442282Y-107556950D01*
X71403295Y-107556944D01*
X71367154Y-107556936D01*
X71334642Y-107556927D01*
X71306541Y-107556917D01*
X71283634Y-107556907D01*
X71266701Y-107556896D01*
X71187366Y-107556830D01*
X71186460Y-107476590D01*
X71185555Y-107396349D01*
X70944832Y-107395552D01*
X70704110Y-107394754D01*
X70704110Y-107553452D01*
X71028452Y-107553452D01*
X71028452Y-107718771D01*
X70946522Y-107719731D01*
X70945255Y-107719745D01*
X70915291Y-107719991D01*
X70881379Y-107720112D01*
X70846197Y-107720109D01*
X70812420Y-107719981D01*
X70782722Y-107719729D01*
X70700853Y-107718768D01*
X70699948Y-107638644D01*
X70699042Y-107558520D01*
X70620491Y-107557613D01*
X70541939Y-107556706D01*
X70541939Y-108205514D01*
X70379768Y-108205514D01*
X70379768Y-108526477D01*
X70538561Y-108526477D01*
X70538561Y-108364306D01*
X70862974Y-108364306D01*
X70862823Y-108202980D01*
X70862806Y-108182880D01*
X70862780Y-108146085D01*
X70862762Y-108108960D01*
X70862752Y-108072686D01*
X70862749Y-108038444D01*
X70862753Y-108007415D01*
X70862766Y-107980781D01*
X70862787Y-107959723D01*
X70862902Y-107877793D01*
X71028452Y-107877793D01*
X71028452Y-108529855D01*
X70866281Y-108529855D01*
X70866281Y-108688647D01*
X71028452Y-108688647D01*
X71028452Y-108854077D01*
X70946522Y-108854981D01*
X70942625Y-108855023D01*
X70912632Y-108855249D01*
X70878822Y-108855375D01*
X70843757Y-108855399D01*
X70810005Y-108855319D01*
X70780128Y-108855131D01*
X70775321Y-108855089D01*
X70744992Y-108854856D01*
X70711544Y-108854647D01*
X70677445Y-108854474D01*
X70645165Y-108854349D01*
X70617173Y-108854286D01*
X70538683Y-108854197D01*
X70536871Y-108693715D01*
X70456692Y-108692810D01*
X70376512Y-108691904D01*
X70375606Y-108611724D01*
X70374701Y-108531544D01*
X70296149Y-108530638D01*
X70217598Y-108529731D01*
X70217598Y-108692026D01*
X70052048Y-108692026D01*
X70052048Y-108526477D01*
X70214344Y-108526477D01*
X70213437Y-108447925D01*
X70212530Y-108369374D01*
X70052048Y-108367562D01*
X70051909Y-108287382D01*
X70051908Y-108286640D01*
X70051827Y-108257243D01*
X70051688Y-108223828D01*
X70051574Y-108202135D01*
X70217598Y-108202135D01*
X70376514Y-108202135D01*
X70375608Y-108123584D01*
X70374701Y-108045032D01*
X70296149Y-108044125D01*
X70217598Y-108043218D01*
X70217598Y-108202135D01*
X70051574Y-108202135D01*
X70051506Y-108189060D01*
X70051293Y-108155601D01*
X70051065Y-108126117D01*
X70050359Y-108045032D01*
X69971808Y-108044125D01*
X69893256Y-108043218D01*
X69893256Y-108367454D01*
X69811326Y-108368414D01*
X69810074Y-108368428D01*
X69780106Y-108368674D01*
X69746183Y-108368795D01*
X69710984Y-108368792D01*
X69677186Y-108368664D01*
X69647466Y-108368412D01*
X69565536Y-108367450D01*
X69565536Y-108202135D01*
X69727831Y-108202135D01*
X69726924Y-108123584D01*
X69726017Y-108045032D01*
X69645777Y-108044126D01*
X69565536Y-108043220D01*
X69565536Y-108039964D01*
X69731085Y-108039964D01*
X69890002Y-108039964D01*
X69889095Y-107961413D01*
X69888188Y-107882861D01*
X69809637Y-107881954D01*
X69731085Y-107881047D01*
X69731085Y-108039964D01*
X69565536Y-108039964D01*
X69565536Y-107877793D01*
X69727707Y-107877793D01*
X69893256Y-107877793D01*
X70052173Y-107877793D01*
X70051266Y-107799242D01*
X70050359Y-107720690D01*
X69971808Y-107719784D01*
X69893256Y-107718877D01*
X69893256Y-107877793D01*
X69727707Y-107877793D01*
X69727707Y-107715623D01*
X69890002Y-107715623D01*
X69889095Y-107637071D01*
X69888188Y-107558520D01*
X69807947Y-107557614D01*
X69727707Y-107556708D01*
X69727701Y-107553452D01*
X69893256Y-107553452D01*
X70217598Y-107553452D01*
X70217598Y-107715623D01*
X70376462Y-107715623D01*
X70376311Y-107554296D01*
X70376293Y-107534197D01*
X70376268Y-107497402D01*
X70376250Y-107460277D01*
X70376239Y-107424002D01*
X70376236Y-107391281D01*
X71190622Y-107391281D01*
X71349539Y-107391281D01*
X71348632Y-107312730D01*
X71347725Y-107234178D01*
X71269174Y-107233271D01*
X71190622Y-107232364D01*
X71190622Y-107391281D01*
X70376236Y-107391281D01*
X70376236Y-107389761D01*
X70376241Y-107358732D01*
X70376254Y-107332098D01*
X70376275Y-107311040D01*
X70376390Y-107229110D01*
X71511546Y-107229110D01*
X71510721Y-107069473D01*
X71509896Y-106909837D01*
X71190622Y-106908187D01*
X71190622Y-107066939D01*
X71352793Y-107066939D01*
X71352793Y-107229110D01*
X71187368Y-107229110D01*
X71186461Y-107150559D01*
X71185555Y-107072007D01*
X71025918Y-107071182D01*
X70866281Y-107070358D01*
X70866281Y-107229110D01*
X70538521Y-107229110D01*
X70537696Y-107069473D01*
X70536871Y-106909837D01*
X70377235Y-106909012D01*
X70217598Y-106908187D01*
X70217598Y-107070318D01*
X70052171Y-107070318D01*
X70051265Y-106990077D01*
X70050359Y-106909837D01*
X69971808Y-106908930D01*
X69893256Y-106908023D01*
X69893256Y-107553452D01*
X69727701Y-107553452D01*
X69727568Y-107476528D01*
X69727567Y-107475786D01*
X69727485Y-107446389D01*
X69727347Y-107412974D01*
X69727164Y-107378206D01*
X69726952Y-107344747D01*
X69726723Y-107315263D01*
X69726017Y-107234178D01*
X69645777Y-107233272D01*
X69565536Y-107232367D01*
X69565536Y-107066939D01*
X69727831Y-107066939D01*
X69726017Y-106909837D01*
X69645838Y-106908931D01*
X69565658Y-106908025D01*
X69564752Y-106827845D01*
X69563847Y-106747666D01*
X69323124Y-106746868D01*
X69082402Y-106746071D01*
X69082402Y-106908147D01*
X68920231Y-106908147D01*
X68920231Y-107066939D01*
X69082402Y-107066939D01*
X69082402Y-107232489D01*
X68920231Y-107232489D01*
X68920231Y-107391281D01*
X69082402Y-107391281D01*
X69082402Y-107553452D01*
X69403490Y-107553452D01*
X69402583Y-107474900D01*
X69401676Y-107396349D01*
X69241194Y-107394537D01*
X69241194Y-107229110D01*
X69406744Y-107229110D01*
X69406744Y-107391281D01*
X69568914Y-107391281D01*
X69568914Y-107556830D01*
X69406744Y-107556830D01*
X69406744Y-107881172D01*
X69244573Y-107881172D01*
X69244573Y-108039964D01*
X69406744Y-108039964D01*
X69406744Y-108205514D01*
X69241317Y-108205514D01*
X69239505Y-108045032D01*
X69159264Y-108044126D01*
X69079024Y-108043220D01*
X69079024Y-107877793D01*
X69241319Y-107877793D01*
X69240412Y-107799242D01*
X69239505Y-107720690D01*
X69079868Y-107719866D01*
X68920231Y-107719041D01*
X68920231Y-108202135D01*
X69082402Y-108202135D01*
X69082402Y-108364306D01*
X69244573Y-108364306D01*
X69244573Y-108854197D01*
X69079146Y-108854197D01*
X69077334Y-108693715D01*
X68917697Y-108692890D01*
X68758061Y-108692066D01*
X68758061Y-108854197D01*
X68676131Y-108854292D01*
X68644850Y-108854324D01*
X68588802Y-108854366D01*
X68533903Y-108854387D01*
X68480555Y-108854386D01*
X68429158Y-108854365D01*
X68380113Y-108854325D01*
X68333821Y-108854267D01*
X68290680Y-108854191D01*
X68251093Y-108854098D01*
X68215460Y-108853990D01*
X68184181Y-108853867D01*
X68157656Y-108853730D01*
X68136287Y-108853580D01*
X68120473Y-108853417D01*
X68110615Y-108853244D01*
X68107114Y-108853059D01*
X68106867Y-108849594D01*
X68106602Y-108840029D01*
X68106329Y-108825029D01*
X68106057Y-108805258D01*
X68105794Y-108781379D01*
X68105546Y-108754055D01*
X68105324Y-108723949D01*
X68105135Y-108691725D01*
X68105119Y-108688647D01*
X68271548Y-108688647D01*
X68592636Y-108688647D01*
X68591729Y-108610096D01*
X68590822Y-108531544D01*
X68431185Y-108530720D01*
X68271548Y-108529895D01*
X68271548Y-108688647D01*
X68105119Y-108688647D01*
X68104310Y-108531544D01*
X67944673Y-108530720D01*
X67785036Y-108529895D01*
X67785036Y-108688647D01*
X67947207Y-108688647D01*
X67947207Y-108854197D01*
X67781780Y-108854197D01*
X67779968Y-108693715D01*
X67701416Y-108692808D01*
X67622865Y-108691901D01*
X67622865Y-108854197D01*
X67457438Y-108854197D01*
X67455626Y-108693715D01*
X67377075Y-108692808D01*
X67298523Y-108691901D01*
X67298523Y-108854197D01*
X67132974Y-108854197D01*
X67132974Y-108688647D01*
X67295145Y-108688647D01*
X67295145Y-108526477D01*
X67457221Y-108526477D01*
X67622865Y-108526477D01*
X67781782Y-108526477D01*
X68920231Y-108526477D01*
X69079148Y-108526477D01*
X69078241Y-108447925D01*
X69077334Y-108369374D01*
X68998783Y-108368467D01*
X68920231Y-108367560D01*
X68920231Y-108526477D01*
X67781782Y-108526477D01*
X67780875Y-108447925D01*
X67779968Y-108369374D01*
X67701416Y-108368467D01*
X67622865Y-108367560D01*
X67622865Y-108526477D01*
X67457221Y-108526477D01*
X67456684Y-108364306D01*
X67785036Y-108364306D01*
X68268294Y-108364306D01*
X68267387Y-108285754D01*
X68266480Y-108207203D01*
X68025758Y-108206406D01*
X67785036Y-108205608D01*
X67785036Y-108364306D01*
X67456684Y-108364306D01*
X67456424Y-108285754D01*
X67456147Y-108202135D01*
X68433719Y-108202135D01*
X68754807Y-108202135D01*
X68753900Y-108123584D01*
X68752993Y-108045032D01*
X68672813Y-108044126D01*
X68592633Y-108043221D01*
X68591728Y-107963041D01*
X68590822Y-107882861D01*
X68512270Y-107881954D01*
X68433719Y-107881047D01*
X68433719Y-108202135D01*
X67456147Y-108202135D01*
X67455626Y-108045032D01*
X67377075Y-108044125D01*
X67298523Y-108043218D01*
X67298523Y-108205514D01*
X67136353Y-108205514D01*
X67136353Y-108367684D01*
X66970803Y-108367684D01*
X66970711Y-108288288D01*
X66970706Y-108283957D01*
X66970679Y-108254754D01*
X66970655Y-108221706D01*
X66970636Y-108187306D01*
X66970623Y-108154049D01*
X66970619Y-108124428D01*
X66970619Y-108120227D01*
X66970625Y-108089690D01*
X66970638Y-108055746D01*
X66970647Y-108039964D01*
X67785036Y-108039964D01*
X68268075Y-108039964D01*
X68267538Y-107877793D01*
X68595890Y-107877793D01*
X68754642Y-107877793D01*
X68753818Y-107718157D01*
X68752993Y-107558520D01*
X68674441Y-107557613D01*
X68595890Y-107556706D01*
X68595890Y-107877793D01*
X68267538Y-107877793D01*
X68267278Y-107799242D01*
X68266480Y-107558520D01*
X68025758Y-107557722D01*
X67785036Y-107556925D01*
X67785036Y-108039964D01*
X66970647Y-108039964D01*
X66970658Y-108020935D01*
X66970683Y-107987799D01*
X66970711Y-107958879D01*
X66970803Y-107877793D01*
X67133099Y-107877793D01*
X67132192Y-107799242D01*
X67131285Y-107720690D01*
X67051161Y-107719785D01*
X66971037Y-107718879D01*
X66970075Y-107637010D01*
X66970061Y-107635745D01*
X66969814Y-107605796D01*
X66969693Y-107571892D01*
X66969694Y-107553452D01*
X67298523Y-107553452D01*
X67460694Y-107553452D01*
X67460694Y-107877793D01*
X67619558Y-107877793D01*
X67619407Y-107716467D01*
X67619390Y-107696368D01*
X67619364Y-107659573D01*
X67619346Y-107622447D01*
X67619336Y-107586173D01*
X67619333Y-107551931D01*
X67619338Y-107520903D01*
X67619350Y-107494269D01*
X67619371Y-107473211D01*
X67619481Y-107394535D01*
X68433719Y-107394535D01*
X68433719Y-107553452D01*
X68592636Y-107553452D01*
X68758061Y-107553452D01*
X68916977Y-107553452D01*
X68916070Y-107474900D01*
X68915163Y-107396349D01*
X68758061Y-107394535D01*
X68758061Y-107553452D01*
X68592636Y-107553452D01*
X68591729Y-107474900D01*
X68590822Y-107396349D01*
X68512270Y-107395442D01*
X68433719Y-107394535D01*
X67619481Y-107394535D01*
X67619486Y-107391281D01*
X67781974Y-107391281D01*
X67947207Y-107391281D01*
X68268170Y-107391281D01*
X68268170Y-107229110D01*
X68916977Y-107229110D01*
X68916070Y-107150559D01*
X68915163Y-107072007D01*
X68758061Y-107070193D01*
X68758061Y-107229110D01*
X68592636Y-107229110D01*
X68591729Y-107150559D01*
X68590822Y-107072007D01*
X68510581Y-107071102D01*
X68430340Y-107070196D01*
X68430340Y-107066939D01*
X68595890Y-107066939D01*
X68754807Y-107066939D01*
X68752993Y-106909837D01*
X68674441Y-106908930D01*
X68595890Y-106908023D01*
X68595890Y-107066939D01*
X68430340Y-107066939D01*
X68430340Y-106904769D01*
X68592636Y-106904769D01*
X68591729Y-106826217D01*
X68590822Y-106747666D01*
X68271548Y-106746016D01*
X68271548Y-106908147D01*
X68109377Y-106908147D01*
X68109377Y-107070318D01*
X67947207Y-107070318D01*
X67947207Y-107391281D01*
X67781974Y-107391281D01*
X67781649Y-107311040D01*
X67781643Y-107309435D01*
X67781551Y-107280007D01*
X67781488Y-107246609D01*
X67781455Y-107211868D01*
X67781455Y-107178413D01*
X67781491Y-107148869D01*
X67781657Y-107066939D01*
X67943828Y-107066939D01*
X67943828Y-106904769D01*
X68106123Y-106904769D01*
X68105216Y-106826217D01*
X68104310Y-106747666D01*
X67785036Y-106746016D01*
X67785036Y-106908147D01*
X67703106Y-106908314D01*
X67701467Y-106908317D01*
X67671610Y-106908351D01*
X67638001Y-106908349D01*
X67603268Y-106908314D01*
X67570036Y-106908248D01*
X67540935Y-106908155D01*
X67460694Y-106907830D01*
X67460694Y-107066939D01*
X67622865Y-107066939D01*
X67622865Y-107232489D01*
X67460694Y-107232489D01*
X67460694Y-107394660D01*
X67298523Y-107394660D01*
X67298523Y-107553452D01*
X66969694Y-107553452D01*
X66969695Y-107536710D01*
X66969822Y-107502924D01*
X66970074Y-107473211D01*
X66971033Y-107391281D01*
X67295269Y-107391281D01*
X67294362Y-107312730D01*
X67293456Y-107234178D01*
X67213276Y-107233272D01*
X67133096Y-107232367D01*
X67133059Y-107229110D01*
X67298523Y-107229110D01*
X67457440Y-107229110D01*
X67456533Y-107150559D01*
X67455626Y-107072007D01*
X67377075Y-107071100D01*
X67298523Y-107070193D01*
X67298523Y-107229110D01*
X67133059Y-107229110D01*
X67132190Y-107152187D01*
X67131285Y-107072007D01*
X67051044Y-107071102D01*
X66970803Y-107070196D01*
X66970803Y-107066939D01*
X67136353Y-107066939D01*
X67295269Y-107066939D01*
X67294362Y-106988388D01*
X67293456Y-106909837D01*
X67214904Y-106908930D01*
X67136353Y-106908023D01*
X67136353Y-107066939D01*
X66970803Y-107066939D01*
X66970803Y-106904769D01*
X67132974Y-106904769D01*
X67298523Y-106904769D01*
X67457440Y-106904769D01*
X67456533Y-106826217D01*
X67455626Y-106747666D01*
X67377075Y-106746759D01*
X67298523Y-106745852D01*
X67298523Y-106904769D01*
X67132974Y-106904769D01*
X67132974Y-106742598D01*
X67295269Y-106742598D01*
X68109377Y-106742598D01*
X68268170Y-106742598D01*
X68595890Y-106742598D01*
X68916925Y-106742598D01*
X68916774Y-106581272D01*
X68916773Y-106580427D01*
X69082402Y-106580427D01*
X69403490Y-106580427D01*
X69402583Y-106501876D01*
X69401676Y-106423324D01*
X69242039Y-106422499D01*
X69082402Y-106421675D01*
X69082402Y-106580427D01*
X68916773Y-106580427D01*
X68916756Y-106561172D01*
X68916731Y-106524377D01*
X68916713Y-106487252D01*
X68916702Y-106450978D01*
X68916699Y-106416736D01*
X68916704Y-106385707D01*
X68916717Y-106359073D01*
X68916738Y-106338016D01*
X68916853Y-106256086D01*
X69079148Y-106256086D01*
X69244573Y-106256086D01*
X69403490Y-106256086D01*
X69402583Y-106177534D01*
X69401676Y-106098983D01*
X69323124Y-106098076D01*
X69244573Y-106097169D01*
X69244573Y-106256086D01*
X69079148Y-106256086D01*
X69078241Y-106177534D01*
X69077334Y-106098983D01*
X68917697Y-106098158D01*
X68758061Y-106097333D01*
X68758061Y-106583806D01*
X68595890Y-106583806D01*
X68595890Y-106742598D01*
X68268170Y-106742598D01*
X68268170Y-106580427D01*
X68592636Y-106580427D01*
X68591729Y-106501876D01*
X68590822Y-106423324D01*
X68510642Y-106422418D01*
X68430462Y-106421513D01*
X68429557Y-106341333D01*
X68428651Y-106261153D01*
X68350100Y-106260246D01*
X68271548Y-106259340D01*
X68271548Y-106421635D01*
X68109377Y-106421635D01*
X68109377Y-106742598D01*
X67295269Y-106742598D01*
X67294362Y-106664046D01*
X67293456Y-106585495D01*
X67213276Y-106584589D01*
X67133096Y-106583684D01*
X67133059Y-106580427D01*
X67460694Y-106580427D01*
X67619611Y-106580427D01*
X67618704Y-106501876D01*
X67617797Y-106423324D01*
X67539246Y-106422417D01*
X67460694Y-106421510D01*
X67460694Y-106580427D01*
X67133059Y-106580427D01*
X67132190Y-106503504D01*
X67131285Y-106423324D01*
X67051161Y-106422419D01*
X66971037Y-106421513D01*
X66970075Y-106339644D01*
X66970061Y-106338379D01*
X66969814Y-106308430D01*
X66969693Y-106274526D01*
X66969695Y-106239344D01*
X66969822Y-106205558D01*
X66970074Y-106175845D01*
X66971033Y-106093915D01*
X67136353Y-106093915D01*
X67136353Y-106418256D01*
X67295145Y-106418256D01*
X67622865Y-106418256D01*
X67781782Y-106418256D01*
X67780875Y-106339705D01*
X67779968Y-106261153D01*
X67701416Y-106260246D01*
X67622865Y-106259340D01*
X67622865Y-106418256D01*
X67295145Y-106418256D01*
X67295145Y-106256086D01*
X67457440Y-106256086D01*
X67456533Y-106177534D01*
X67455626Y-106098983D01*
X67375447Y-106098077D01*
X67295267Y-106097171D01*
X67295267Y-106097169D01*
X67947207Y-106097169D01*
X67947207Y-106256086D01*
X68106123Y-106256086D01*
X68105216Y-106177534D01*
X68104310Y-106098983D01*
X68025758Y-106098076D01*
X67947207Y-106097169D01*
X67295267Y-106097169D01*
X67295230Y-106093915D01*
X67622865Y-106093915D01*
X67781782Y-106093915D01*
X68271548Y-106093915D01*
X68433719Y-106093915D01*
X68433719Y-106256086D01*
X68592511Y-106256086D01*
X68592511Y-106093915D01*
X69565660Y-106093915D01*
X69564754Y-106015363D01*
X69563847Y-105936812D01*
X69485295Y-105935905D01*
X69406744Y-105934998D01*
X69406744Y-106093915D01*
X68754807Y-106093915D01*
X68753900Y-106015363D01*
X68752993Y-105936812D01*
X68592633Y-105935000D01*
X68592596Y-105931744D01*
X68758061Y-105931744D01*
X69079148Y-105931744D01*
X69078241Y-105853192D01*
X69077334Y-105774641D01*
X68997155Y-105773735D01*
X68916975Y-105772830D01*
X68915163Y-105612470D01*
X68758061Y-105610656D01*
X68758061Y-105931744D01*
X68592596Y-105931744D01*
X68591728Y-105854821D01*
X68590822Y-105774641D01*
X68512270Y-105773734D01*
X68433719Y-105772827D01*
X68433719Y-105935122D01*
X68271548Y-105935122D01*
X68271548Y-106093915D01*
X67781782Y-106093915D01*
X67780875Y-106015363D01*
X67779968Y-105936812D01*
X67701416Y-105935905D01*
X67622865Y-105934998D01*
X67622865Y-106093915D01*
X67295230Y-106093915D01*
X67294361Y-106016992D01*
X67293456Y-105936812D01*
X67133096Y-105935000D01*
X67133059Y-105931744D01*
X67298523Y-105931744D01*
X67457440Y-105931744D01*
X67456533Y-105853192D01*
X67455626Y-105774641D01*
X67377075Y-105773734D01*
X67298523Y-105772827D01*
X67298523Y-105931744D01*
X67133059Y-105931744D01*
X67132190Y-105854821D01*
X67131285Y-105774641D01*
X67051161Y-105773735D01*
X66971037Y-105772830D01*
X66970999Y-105769573D01*
X67460694Y-105769573D01*
X67943953Y-105769573D01*
X68109377Y-105769573D01*
X68430301Y-105769573D01*
X68429463Y-105607402D01*
X68595890Y-105607402D01*
X68754807Y-105607402D01*
X68920231Y-105607402D01*
X69082402Y-105607402D01*
X69082402Y-105769573D01*
X69244573Y-105769573D01*
X69244573Y-105931744D01*
X69403325Y-105931744D01*
X69568914Y-105931744D01*
X69731085Y-105931744D01*
X69731085Y-106418256D01*
X69893256Y-106418256D01*
X69893256Y-106583806D01*
X69731085Y-106583806D01*
X69731085Y-106904769D01*
X69889878Y-106904769D01*
X70055427Y-106904769D01*
X70863027Y-106904769D01*
X70862120Y-106826217D01*
X70861213Y-106747666D01*
X70541939Y-106746016D01*
X70541939Y-106904769D01*
X70214344Y-106904769D01*
X70213437Y-106826217D01*
X70212530Y-106747666D01*
X70133978Y-106746759D01*
X70055427Y-106745852D01*
X70055427Y-106904769D01*
X69889878Y-106904769D01*
X69889878Y-106742598D01*
X70052365Y-106742598D01*
X70379768Y-106742598D01*
X71511710Y-106742598D01*
X71510803Y-106664046D01*
X71509896Y-106585495D01*
X71269174Y-106584698D01*
X71028452Y-106583900D01*
X71028452Y-106742598D01*
X70538685Y-106742598D01*
X70537778Y-106664046D01*
X70536871Y-106585495D01*
X70458320Y-106584588D01*
X70379768Y-106583681D01*
X70379768Y-106742598D01*
X70052365Y-106742598D01*
X70052040Y-106662357D01*
X70052034Y-106660752D01*
X70051942Y-106631323D01*
X70051879Y-106597926D01*
X70051846Y-106563185D01*
X70051846Y-106529730D01*
X70051882Y-106500186D01*
X70052048Y-106418256D01*
X71349539Y-106418256D01*
X71348632Y-106339705D01*
X71347725Y-106261153D01*
X71267546Y-106260248D01*
X71187366Y-106259342D01*
X71186460Y-106179162D01*
X71185555Y-106098983D01*
X71107003Y-106098076D01*
X71028452Y-106097169D01*
X71028452Y-106418256D01*
X70862863Y-106418256D01*
X70862038Y-106258619D01*
X70861213Y-106098983D01*
X70700853Y-106097171D01*
X70700816Y-106093915D01*
X70866281Y-106093915D01*
X71024978Y-106093915D01*
X71024181Y-105853192D01*
X71023384Y-105612470D01*
X70944832Y-105611563D01*
X70866281Y-105610656D01*
X71190622Y-105610656D01*
X71190622Y-105769573D01*
X71349539Y-105769573D01*
X71348632Y-105691022D01*
X71347725Y-105612470D01*
X71269174Y-105611563D01*
X71190622Y-105610656D01*
X70866281Y-105610656D01*
X70866281Y-106093915D01*
X70700816Y-106093915D01*
X70699948Y-106016992D01*
X70699042Y-105936812D01*
X70620491Y-105935905D01*
X70541939Y-105934998D01*
X70541939Y-106097293D01*
X70379768Y-106097293D01*
X70379768Y-106259464D01*
X70297838Y-106259579D01*
X70280537Y-106259601D01*
X70235170Y-106259641D01*
X70190528Y-106259655D01*
X70147116Y-106259644D01*
X70105434Y-106259609D01*
X70065986Y-106259552D01*
X70029275Y-106259474D01*
X69995802Y-106259377D01*
X69966071Y-106259262D01*
X69940584Y-106259130D01*
X69919844Y-106258983D01*
X69904353Y-106258822D01*
X69894614Y-106258648D01*
X69891130Y-106258464D01*
X69891111Y-106258431D01*
X69890821Y-106254438D01*
X69890555Y-106244317D01*
X69890317Y-106228659D01*
X69890110Y-106208055D01*
X69889937Y-106183097D01*
X69889802Y-106154375D01*
X69889709Y-106122480D01*
X69889668Y-106093915D01*
X70217598Y-106093915D01*
X70376514Y-106093915D01*
X70375608Y-106015363D01*
X70374701Y-105936812D01*
X70296149Y-105935905D01*
X70217598Y-105934998D01*
X70217598Y-106093915D01*
X69889668Y-106093915D01*
X69889660Y-106088004D01*
X69889660Y-106051539D01*
X69889711Y-106013674D01*
X69889878Y-105931744D01*
X70052173Y-105931744D01*
X70051266Y-105853192D01*
X70050359Y-105774641D01*
X69809637Y-105773844D01*
X69568914Y-105773046D01*
X69568914Y-105931744D01*
X69403325Y-105931744D01*
X69402501Y-105772107D01*
X69401676Y-105612470D01*
X69321435Y-105611564D01*
X69241194Y-105610659D01*
X69241194Y-105445232D01*
X69406744Y-105445232D01*
X69406744Y-105607402D01*
X69727707Y-105607402D01*
X69727707Y-105445232D01*
X69890002Y-105445232D01*
X69889095Y-105366680D01*
X69888188Y-105288129D01*
X69808008Y-105287223D01*
X69727829Y-105286317D01*
X69726923Y-105206138D01*
X69726017Y-105125958D01*
X69645838Y-105125052D01*
X69565658Y-105124147D01*
X69565621Y-105120890D01*
X69731085Y-105120890D01*
X69893256Y-105120890D01*
X69893256Y-105283061D01*
X70055427Y-105283061D01*
X70055427Y-105448610D01*
X69893256Y-105448610D01*
X69893256Y-105607402D01*
X70055427Y-105607402D01*
X70055427Y-105769573D01*
X70214219Y-105769573D01*
X70214219Y-105607402D01*
X70379768Y-105607402D01*
X70379768Y-105769573D01*
X70700856Y-105769573D01*
X70699949Y-105691022D01*
X70699042Y-105612470D01*
X70618862Y-105611565D01*
X70538683Y-105610659D01*
X70538646Y-105607402D01*
X71028452Y-105607402D01*
X71187368Y-105607402D01*
X71186461Y-105528851D01*
X71185555Y-105450299D01*
X71107003Y-105449392D01*
X71028452Y-105448486D01*
X71028452Y-105607402D01*
X70538646Y-105607402D01*
X70536871Y-105450299D01*
X70456631Y-105449394D01*
X70376390Y-105448488D01*
X70376251Y-105368308D01*
X70376250Y-105367566D01*
X70376169Y-105338169D01*
X70376030Y-105304754D01*
X70375847Y-105269985D01*
X70375635Y-105236527D01*
X70375406Y-105207043D01*
X70374701Y-105125958D01*
X70294521Y-105125052D01*
X70214341Y-105124147D01*
X70214304Y-105120890D01*
X70379768Y-105120890D01*
X70538685Y-105120890D01*
X70537778Y-105042339D01*
X70536871Y-104963787D01*
X70458320Y-104962880D01*
X70379768Y-104961973D01*
X70379768Y-105120890D01*
X70214304Y-105120890D01*
X70213435Y-105043967D01*
X70212530Y-104963787D01*
X69971808Y-104962990D01*
X69731085Y-104962192D01*
X69731085Y-105120890D01*
X69565621Y-105120890D01*
X69564752Y-105043967D01*
X69563847Y-104963787D01*
X69485295Y-104962880D01*
X69406744Y-104961973D01*
X69406744Y-105286439D01*
X69241317Y-105286439D01*
X69240411Y-105206199D01*
X69239505Y-105125958D01*
X69160954Y-105125051D01*
X69082402Y-105124144D01*
X69082402Y-105286439D01*
X68920231Y-105286439D01*
X68920231Y-105607402D01*
X68754807Y-105607402D01*
X68753900Y-105528851D01*
X68752993Y-105450299D01*
X68674441Y-105449392D01*
X68595890Y-105448486D01*
X68595890Y-105607402D01*
X68429463Y-105607402D01*
X68428651Y-105450299D01*
X68350100Y-105449392D01*
X68271548Y-105448486D01*
X68271548Y-105610781D01*
X68109377Y-105610781D01*
X68109377Y-105769573D01*
X67943953Y-105769573D01*
X67943046Y-105691022D01*
X67942139Y-105612470D01*
X67701416Y-105611673D01*
X67460694Y-105610876D01*
X67460694Y-105769573D01*
X66970999Y-105769573D01*
X66970075Y-105690961D01*
X66970061Y-105689695D01*
X66969814Y-105659746D01*
X66969693Y-105625843D01*
X66969694Y-105607402D01*
X67136353Y-105607402D01*
X67457440Y-105607402D01*
X67947207Y-105607402D01*
X68106123Y-105607402D01*
X68105216Y-105528851D01*
X68104310Y-105450299D01*
X68025758Y-105449392D01*
X67947207Y-105448486D01*
X67947207Y-105607402D01*
X67457440Y-105607402D01*
X67456533Y-105528851D01*
X67455626Y-105450299D01*
X67295990Y-105449475D01*
X67136353Y-105448650D01*
X67136353Y-105607402D01*
X66969694Y-105607402D01*
X66969695Y-105590660D01*
X66969822Y-105556875D01*
X66970074Y-105527162D01*
X66971033Y-105445232D01*
X67132934Y-105445232D01*
X67785036Y-105445232D01*
X67943788Y-105445232D01*
X67942964Y-105285595D01*
X67942139Y-105125958D01*
X67863587Y-105125051D01*
X67785036Y-105124144D01*
X67785036Y-105445232D01*
X67132934Y-105445232D01*
X67132110Y-105285595D01*
X67132097Y-105283061D01*
X67460694Y-105283061D01*
X67619611Y-105283061D01*
X67618704Y-105204509D01*
X67617797Y-105125958D01*
X67539246Y-105125051D01*
X67460694Y-105124144D01*
X67460694Y-105283061D01*
X67132097Y-105283061D01*
X67131285Y-105125958D01*
X66970803Y-105124146D01*
X66970803Y-104958719D01*
X67136353Y-104958719D01*
X67136353Y-105120890D01*
X67295462Y-105120890D01*
X67295137Y-105040649D01*
X67295130Y-105039044D01*
X67295039Y-105009616D01*
X67294975Y-104976218D01*
X67294961Y-104961973D01*
X67622865Y-104961973D01*
X67622865Y-105120890D01*
X67781782Y-105120890D01*
X67780875Y-105042339D01*
X67779968Y-104963787D01*
X67701416Y-104962880D01*
X67622865Y-104961973D01*
X67294961Y-104961973D01*
X67294942Y-104941477D01*
X67294943Y-104908022D01*
X67294978Y-104878478D01*
X67295145Y-104796548D01*
X68109377Y-104796548D01*
X68109377Y-105120890D01*
X68268170Y-105120890D01*
X68268170Y-104958719D01*
X68595890Y-104958719D01*
X68595890Y-105124269D01*
X68433719Y-105124269D01*
X68433719Y-105283061D01*
X68754999Y-105283061D01*
X68754674Y-105202820D01*
X68754667Y-105201214D01*
X68754576Y-105171786D01*
X68754513Y-105138389D01*
X68754480Y-105103648D01*
X68754480Y-105070193D01*
X68754515Y-105040649D01*
X68754682Y-104958719D01*
X68916977Y-104958719D01*
X68916070Y-104880168D01*
X68915163Y-104801616D01*
X68834984Y-104800711D01*
X68754804Y-104799805D01*
X68753898Y-104719625D01*
X68752993Y-104639445D01*
X68674441Y-104638539D01*
X68595890Y-104637632D01*
X68595890Y-104799697D01*
X68513960Y-104800657D01*
X68512680Y-104800671D01*
X68482719Y-104800917D01*
X68448818Y-104801038D01*
X68413652Y-104801035D01*
X68379893Y-104800907D01*
X68350216Y-104800655D01*
X68268403Y-104799694D01*
X68267441Y-104717880D01*
X68267427Y-104716603D01*
X68267181Y-104686672D01*
X68267059Y-104652786D01*
X68267061Y-104617618D01*
X68267188Y-104583844D01*
X68267440Y-104554137D01*
X68268400Y-104472207D01*
X68433719Y-104472207D01*
X68433719Y-104634378D01*
X68592511Y-104634378D01*
X68592511Y-104472207D01*
X68758061Y-104472207D01*
X68758061Y-104634378D01*
X68917170Y-104634378D01*
X68916845Y-104554137D01*
X68916838Y-104552531D01*
X68916747Y-104523103D01*
X68916683Y-104489705D01*
X68916650Y-104454965D01*
X68916650Y-104421509D01*
X68916686Y-104391966D01*
X68916853Y-104310036D01*
X69082402Y-104310036D01*
X69082402Y-104637756D01*
X68920231Y-104637756D01*
X68920231Y-104796548D01*
X69082402Y-104796548D01*
X69082402Y-104958719D01*
X69241194Y-104958719D01*
X69241194Y-104796548D01*
X69568914Y-104796548D01*
X69568914Y-104958719D01*
X69727667Y-104958719D01*
X69726829Y-104796548D01*
X69893256Y-104796548D01*
X70214179Y-104796548D01*
X70379768Y-104796548D01*
X70700856Y-104796548D01*
X70699949Y-104717997D01*
X70699042Y-104639445D01*
X70618862Y-104638540D01*
X70538683Y-104637634D01*
X70537777Y-104557454D01*
X70536871Y-104477275D01*
X70458320Y-104476368D01*
X70379768Y-104475461D01*
X70379768Y-104796548D01*
X70214179Y-104796548D01*
X70213355Y-104636912D01*
X70212530Y-104477275D01*
X70133978Y-104476368D01*
X70055427Y-104475461D01*
X70055427Y-104637756D01*
X69893256Y-104637756D01*
X69893256Y-104796548D01*
X69726829Y-104796548D01*
X69726017Y-104639445D01*
X69645893Y-104638540D01*
X69565769Y-104637634D01*
X69565731Y-104634378D01*
X69731085Y-104634378D01*
X69890002Y-104634378D01*
X69889095Y-104555826D01*
X69888188Y-104477275D01*
X69809637Y-104476368D01*
X69731085Y-104475461D01*
X69731085Y-104634378D01*
X69565731Y-104634378D01*
X69564808Y-104555765D01*
X69564793Y-104554500D01*
X69564547Y-104524551D01*
X69564425Y-104490647D01*
X69564427Y-104472207D01*
X69893256Y-104472207D01*
X70052048Y-104472207D01*
X70541939Y-104472207D01*
X70704110Y-104472207D01*
X70704110Y-104634378D01*
X70862808Y-104634378D01*
X70862010Y-104393655D01*
X70861213Y-104152933D01*
X70782661Y-104152026D01*
X70704110Y-104151119D01*
X70704110Y-104313415D01*
X70541939Y-104313415D01*
X70541939Y-104472207D01*
X70052048Y-104472207D01*
X70052048Y-104310036D01*
X70214179Y-104310036D01*
X70379768Y-104310036D01*
X70538561Y-104310036D01*
X70538561Y-104147865D01*
X70700856Y-104147865D01*
X70699949Y-104069314D01*
X70699042Y-103990762D01*
X70539405Y-103989937D01*
X70379768Y-103989113D01*
X70379768Y-104310036D01*
X70214179Y-104310036D01*
X70213355Y-104150399D01*
X70212530Y-103990762D01*
X70133978Y-103989855D01*
X70055427Y-103988948D01*
X70055427Y-104151244D01*
X69893256Y-104151244D01*
X69893256Y-104472207D01*
X69564427Y-104472207D01*
X69564428Y-104455465D01*
X69564555Y-104421679D01*
X69564806Y-104391966D01*
X69565766Y-104310036D01*
X69727831Y-104310036D01*
X69726924Y-104231485D01*
X69726017Y-104152933D01*
X69645838Y-104152027D01*
X69565658Y-104151122D01*
X69565621Y-104147865D01*
X69731085Y-104147865D01*
X69889878Y-104147865D01*
X69889878Y-103985694D01*
X70052173Y-103985694D01*
X70217598Y-103985694D01*
X70376390Y-103985694D01*
X70376390Y-103823524D01*
X70538685Y-103823524D01*
X70537778Y-103744972D01*
X70536871Y-103666421D01*
X70377235Y-103665596D01*
X70217598Y-103664771D01*
X70217598Y-103985694D01*
X70052173Y-103985694D01*
X70051266Y-103907143D01*
X70050359Y-103828591D01*
X69890722Y-103827767D01*
X69731085Y-103826942D01*
X69731085Y-104147865D01*
X69565621Y-104147865D01*
X69564752Y-104070942D01*
X69563847Y-103990762D01*
X69323124Y-103989965D01*
X69082402Y-103989168D01*
X69082402Y-104151244D01*
X69000472Y-104151339D01*
X68993112Y-104151346D01*
X68972716Y-104151359D01*
X68946740Y-104151370D01*
X68915987Y-104151376D01*
X68881260Y-104151380D01*
X68843362Y-104151380D01*
X68803097Y-104151377D01*
X68761268Y-104151371D01*
X68718678Y-104151361D01*
X68676131Y-104151347D01*
X68433719Y-104151261D01*
X68433719Y-104313415D01*
X68268170Y-104313415D01*
X68268077Y-104234018D01*
X68268073Y-104229687D01*
X68268045Y-104200485D01*
X68268021Y-104167437D01*
X68268002Y-104133037D01*
X68267990Y-104099779D01*
X68267985Y-104070158D01*
X68267985Y-104065957D01*
X68267991Y-104035421D01*
X68268005Y-104001476D01*
X68268025Y-103966666D01*
X68268049Y-103933529D01*
X68268077Y-103904609D01*
X68268170Y-103823524D01*
X68433719Y-103823524D01*
X68433719Y-103985694D01*
X68916853Y-103985694D01*
X68916853Y-103823524D01*
X69403490Y-103823524D01*
X69402583Y-103744972D01*
X69401676Y-103666421D01*
X69239505Y-103665676D01*
X69218235Y-103665580D01*
X69181481Y-103665424D01*
X69144511Y-103665278D01*
X69108487Y-103665145D01*
X69074570Y-103665030D01*
X69043925Y-103664937D01*
X69017712Y-103664869D01*
X68997094Y-103664831D01*
X68916853Y-103664731D01*
X68916853Y-103499182D01*
X69731085Y-103499182D01*
X69731085Y-103661353D01*
X70052048Y-103661353D01*
X70052048Y-103499182D01*
X70866281Y-103499182D01*
X70866281Y-103823524D01*
X71028452Y-103823524D01*
X71028452Y-104799927D01*
X70946522Y-104800094D01*
G37*
G36*
X69731085Y-108854077D02*
G01*
X69649155Y-108855008D01*
X69633150Y-108855172D01*
X69611473Y-108855335D01*
X69592605Y-108855407D01*
X69577534Y-108855387D01*
X69567245Y-108855274D01*
X69562726Y-108855068D01*
X69561108Y-108854934D01*
X69553409Y-108854697D01*
X69540508Y-108854495D01*
X69523427Y-108854336D01*
X69503183Y-108854233D01*
X69480796Y-108854197D01*
X69403365Y-108854197D01*
X69403365Y-108688647D01*
X69565536Y-108688647D01*
X69565536Y-108526477D01*
X69731085Y-108526477D01*
X69731085Y-108854077D01*
G37*
G36*
X72325974Y-104155739D02*
G01*
X72325593Y-104191449D01*
X72325086Y-104224696D01*
X72324453Y-104254768D01*
X72323694Y-104280949D01*
X72322810Y-104302527D01*
X72321799Y-104318789D01*
X72320663Y-104329020D01*
X72313500Y-104362503D01*
X72298084Y-104409356D01*
X72276913Y-104452727D01*
X72249896Y-104492793D01*
X72216940Y-104529730D01*
X72188538Y-104554912D01*
X72148415Y-104582525D01*
X72104417Y-104604609D01*
X72056558Y-104621157D01*
X72004855Y-104632161D01*
X72002073Y-104632322D01*
X71992806Y-104632544D01*
X71977755Y-104632765D01*
X71957484Y-104632980D01*
X71932557Y-104633185D01*
X71903537Y-104633375D01*
X71870990Y-104633548D01*
X71835478Y-104633699D01*
X71797566Y-104633823D01*
X71757818Y-104633918D01*
X71754988Y-104633923D01*
X71706423Y-104634004D01*
X71664047Y-104634026D01*
X71627322Y-104633956D01*
X71595710Y-104633762D01*
X71568672Y-104633411D01*
X71545671Y-104632870D01*
X71526168Y-104632107D01*
X71509624Y-104631087D01*
X71495502Y-104629780D01*
X71483263Y-104628152D01*
X71472368Y-104626169D01*
X71462280Y-104623801D01*
X71452461Y-104621013D01*
X71442371Y-104617772D01*
X71431472Y-104614047D01*
X71415080Y-104607902D01*
X71372079Y-104586994D01*
X71332555Y-104560582D01*
X71296891Y-104529084D01*
X71265470Y-104492920D01*
X71238672Y-104452510D01*
X71216880Y-104408272D01*
X71200477Y-104360626D01*
X71199776Y-104358076D01*
X71198344Y-104352644D01*
X71197111Y-104347255D01*
X71196061Y-104341385D01*
X71195175Y-104334511D01*
X71194435Y-104326110D01*
X71193824Y-104315660D01*
X71193323Y-104302636D01*
X71192914Y-104286517D01*
X71192580Y-104266778D01*
X71192303Y-104242898D01*
X71192065Y-104214353D01*
X71191847Y-104180620D01*
X71191633Y-104141176D01*
X71191404Y-104095498D01*
X71191303Y-104072927D01*
X71191166Y-104024149D01*
X71191161Y-103979878D01*
X71191210Y-103964011D01*
X71353167Y-103964011D01*
X71353197Y-103995838D01*
X71353314Y-104033308D01*
X71353508Y-104076978D01*
X71354518Y-104284697D01*
X71363679Y-104311725D01*
X71375801Y-104340555D01*
X71395892Y-104373249D01*
X71421181Y-104402586D01*
X71451017Y-104427936D01*
X71484747Y-104448672D01*
X71521721Y-104464164D01*
X71523430Y-104464707D01*
X71527859Y-104465894D01*
X71533115Y-104466906D01*
X71539738Y-104467759D01*
X71548266Y-104468469D01*
X71559238Y-104469052D01*
X71573194Y-104469524D01*
X71590673Y-104469900D01*
X71612213Y-104470197D01*
X71638355Y-104470431D01*
X71669636Y-104470617D01*
X71706596Y-104470772D01*
X71749774Y-104470911D01*
X71752307Y-104470919D01*
X71789747Y-104470980D01*
X71825533Y-104470955D01*
X71859027Y-104470849D01*
X71889591Y-104470669D01*
X71916588Y-104470421D01*
X71939378Y-104470109D01*
X71957325Y-104469740D01*
X71969791Y-104469320D01*
X71976137Y-104468854D01*
X72007377Y-104461260D01*
X72039861Y-104447754D01*
X72070174Y-104429473D01*
X72097219Y-104407200D01*
X72119900Y-104381716D01*
X72137123Y-104353806D01*
X72137911Y-104352200D01*
X72142603Y-104342683D01*
X72146642Y-104334250D01*
X72150078Y-104326342D01*
X72152958Y-104318398D01*
X72155333Y-104309859D01*
X72157250Y-104300163D01*
X72158758Y-104288752D01*
X72159906Y-104275064D01*
X72160743Y-104258540D01*
X72161317Y-104238620D01*
X72161678Y-104214743D01*
X72161873Y-104186350D01*
X72161953Y-104152880D01*
X72161965Y-104113773D01*
X72161958Y-104068469D01*
X72161958Y-103848863D01*
X72154101Y-103825213D01*
X72145671Y-103802905D01*
X72132352Y-103777033D01*
X72115238Y-103753015D01*
X72093038Y-103728809D01*
X72092751Y-103728525D01*
X72077293Y-103713846D01*
X72063940Y-103702888D01*
X72050621Y-103694114D01*
X72035262Y-103685988D01*
X72029632Y-103683253D01*
X72020215Y-103678805D01*
X72011371Y-103674995D01*
X72002536Y-103671777D01*
X71993146Y-103669103D01*
X71982639Y-103666928D01*
X71970449Y-103665206D01*
X71956013Y-103663890D01*
X71938767Y-103662934D01*
X71918147Y-103662292D01*
X71893590Y-103661918D01*
X71864531Y-103661765D01*
X71830406Y-103661788D01*
X71790653Y-103661939D01*
X71744706Y-103662174D01*
X71533546Y-103663292D01*
X71506294Y-103672395D01*
X71499626Y-103674731D01*
X71464451Y-103691055D01*
X71433466Y-103712523D01*
X71406997Y-103738760D01*
X71385370Y-103769392D01*
X71368913Y-103804045D01*
X71357952Y-103842345D01*
X71357320Y-103845656D01*
X71356275Y-103852402D01*
X71355401Y-103860334D01*
X71354688Y-103870008D01*
X71354126Y-103881981D01*
X71353703Y-103896810D01*
X71353409Y-103915054D01*
X71353234Y-103937268D01*
X71353167Y-103964011D01*
X71191210Y-103964011D01*
X71191284Y-103940436D01*
X71191532Y-103906144D01*
X71191903Y-103877323D01*
X71192394Y-103854296D01*
X71193002Y-103837381D01*
X71193724Y-103826902D01*
X71199105Y-103791261D01*
X71209973Y-103749677D01*
X71225908Y-103709928D01*
X71234815Y-103691914D01*
X71248411Y-103668071D01*
X71263462Y-103646484D01*
X71281383Y-103625190D01*
X71303587Y-103602228D01*
X71324488Y-103582928D01*
X71356570Y-103558365D01*
X71390829Y-103538324D01*
X71428671Y-103522019D01*
X71471505Y-103508667D01*
X71474513Y-103507878D01*
X71479863Y-103506564D01*
X71485354Y-103505430D01*
X71491493Y-103504459D01*
X71498791Y-103503637D01*
X71507756Y-103502946D01*
X71518897Y-103502371D01*
X71532724Y-103501896D01*
X71549744Y-103501505D01*
X71570468Y-103501183D01*
X71595404Y-103500913D01*
X71625060Y-103500679D01*
X71659947Y-103500465D01*
X71700573Y-103500256D01*
X71747447Y-103500036D01*
X71796623Y-103499823D01*
X71840400Y-103499681D01*
X71878448Y-103499640D01*
X71911286Y-103499725D01*
X71939432Y-103499963D01*
X71963405Y-103500378D01*
X71983722Y-103500997D01*
X72000902Y-103501846D01*
X72015463Y-103502949D01*
X72027924Y-103504333D01*
X72038804Y-103506023D01*
X72048619Y-103508045D01*
X72057889Y-103510425D01*
X72067132Y-103513189D01*
X72076866Y-103516361D01*
X72085866Y-103519495D01*
X72129945Y-103538911D01*
X72170762Y-103563710D01*
X72207846Y-103593352D01*
X72240724Y-103627299D01*
X72268924Y-103665011D01*
X72291977Y-103705949D01*
X72309409Y-103749573D01*
X72320749Y-103795344D01*
X72321797Y-103804435D01*
X72322813Y-103820147D01*
X72323701Y-103841244D01*
X72324461Y-103867013D01*
X72325094Y-103896741D01*
X72325600Y-103929713D01*
X72325980Y-103965217D01*
X72326232Y-104002539D01*
X72326357Y-104040966D01*
X72326356Y-104079784D01*
X72326243Y-104113773D01*
X72326228Y-104118279D01*
X72325974Y-104155739D01*
G37*
G36*
X69406744Y-107070318D02*
G01*
X69241194Y-107070318D01*
X69241194Y-106904769D01*
X69406744Y-106904769D01*
X69406744Y-107070318D01*
G37*
G36*
X69406744Y-104637756D02*
G01*
X69241194Y-104637756D01*
X69241194Y-104472207D01*
X69406744Y-104472207D01*
X69406744Y-104637756D01*
G37*
G36*
X67701762Y-103836539D02*
G01*
X67708751Y-103840227D01*
X67734044Y-103858110D01*
X67755579Y-103880743D01*
X67772020Y-103906789D01*
X67783347Y-103929785D01*
X67784379Y-104057658D01*
X67784382Y-104058031D01*
X67784579Y-104096467D01*
X67784517Y-104129574D01*
X67784201Y-104157068D01*
X67783635Y-104178663D01*
X67782825Y-104194074D01*
X67781777Y-104203017D01*
X67781341Y-104205048D01*
X67771779Y-104233948D01*
X67756988Y-104258868D01*
X67737382Y-104279369D01*
X67713371Y-104295014D01*
X67685368Y-104305366D01*
X67684450Y-104305584D01*
X67677021Y-104306734D01*
X67665873Y-104307643D01*
X67650499Y-104308322D01*
X67630394Y-104308785D01*
X67605051Y-104309043D01*
X67573966Y-104309109D01*
X67536631Y-104308995D01*
X67404786Y-104308347D01*
X67381217Y-104296759D01*
X67365653Y-104287822D01*
X67343283Y-104270264D01*
X67324198Y-104249512D01*
X67310132Y-104227261D01*
X67300213Y-104206990D01*
X67299216Y-104077338D01*
X67299032Y-104043157D01*
X67299064Y-104007412D01*
X67299375Y-103978110D01*
X67299964Y-103955327D01*
X67300829Y-103939141D01*
X67301968Y-103929629D01*
X67306360Y-103913433D01*
X67318230Y-103887281D01*
X67334807Y-103864497D01*
X67355302Y-103846073D01*
X67378928Y-103832996D01*
X67379024Y-103832957D01*
X67383889Y-103831052D01*
X67388610Y-103829488D01*
X67393876Y-103828232D01*
X67400378Y-103827249D01*
X67408807Y-103826507D01*
X67419851Y-103825971D01*
X67434203Y-103825609D01*
X67452550Y-103825385D01*
X67475585Y-103825267D01*
X67503996Y-103825221D01*
X67538474Y-103825213D01*
X67678758Y-103825213D01*
X67701762Y-103836539D01*
G37*
G36*
X68109533Y-104155739D02*
G01*
X68109152Y-104191449D01*
X68108646Y-104224696D01*
X68108013Y-104254768D01*
X68107254Y-104280949D01*
X68106369Y-104302527D01*
X68105358Y-104318789D01*
X68104222Y-104329020D01*
X68097059Y-104362503D01*
X68081644Y-104409356D01*
X68060473Y-104452727D01*
X68033455Y-104492793D01*
X68000499Y-104529730D01*
X67972097Y-104554912D01*
X67931975Y-104582525D01*
X67887977Y-104604609D01*
X67840118Y-104621157D01*
X67788414Y-104632161D01*
X67785632Y-104632322D01*
X67776365Y-104632544D01*
X67761314Y-104632765D01*
X67741043Y-104632980D01*
X67716116Y-104633185D01*
X67687097Y-104633375D01*
X67654549Y-104633548D01*
X67619038Y-104633699D01*
X67581126Y-104633823D01*
X67541378Y-104633918D01*
X67538548Y-104633923D01*
X67489982Y-104634004D01*
X67447606Y-104634026D01*
X67410881Y-104633956D01*
X67379269Y-104633762D01*
X67352232Y-104633411D01*
X67329230Y-104632870D01*
X67309727Y-104632107D01*
X67293184Y-104631087D01*
X67279061Y-104629780D01*
X67266822Y-104628152D01*
X67255928Y-104626169D01*
X67245840Y-104623801D01*
X67236020Y-104621013D01*
X67225930Y-104617772D01*
X67215032Y-104614047D01*
X67198639Y-104607902D01*
X67155638Y-104586994D01*
X67116115Y-104560582D01*
X67080451Y-104529084D01*
X67049029Y-104492920D01*
X67022231Y-104452510D01*
X67000440Y-104408272D01*
X66984037Y-104360626D01*
X66983335Y-104358076D01*
X66981903Y-104352644D01*
X66980671Y-104347255D01*
X66979621Y-104341385D01*
X66978735Y-104334511D01*
X66977995Y-104326110D01*
X66977383Y-104315660D01*
X66976882Y-104302636D01*
X66976474Y-104286517D01*
X66976140Y-104266778D01*
X66975863Y-104242898D01*
X66975624Y-104214353D01*
X66975407Y-104180620D01*
X66975192Y-104141176D01*
X66974963Y-104095498D01*
X66974862Y-104072927D01*
X66974726Y-104024149D01*
X66974721Y-103979878D01*
X66974770Y-103964011D01*
X67136726Y-103964011D01*
X67136757Y-103995838D01*
X67136874Y-104033308D01*
X67137067Y-104076978D01*
X67138077Y-104284697D01*
X67147238Y-104311725D01*
X67159361Y-104340555D01*
X67179451Y-104373249D01*
X67204740Y-104402586D01*
X67234576Y-104427936D01*
X67268307Y-104448672D01*
X67305281Y-104464164D01*
X67306989Y-104464707D01*
X67311418Y-104465894D01*
X67316675Y-104466906D01*
X67323297Y-104467759D01*
X67331825Y-104468469D01*
X67342798Y-104469052D01*
X67356754Y-104469524D01*
X67374232Y-104469900D01*
X67395773Y-104470197D01*
X67421914Y-104470431D01*
X67453195Y-104470617D01*
X67490155Y-104470772D01*
X67533333Y-104470911D01*
X67535866Y-104470919D01*
X67573307Y-104470980D01*
X67609093Y-104470955D01*
X67642587Y-104470849D01*
X67673151Y-104470669D01*
X67700147Y-104470421D01*
X67722937Y-104470109D01*
X67740884Y-104469740D01*
X67753350Y-104469320D01*
X67759697Y-104468854D01*
X67790936Y-104461260D01*
X67823421Y-104447754D01*
X67853733Y-104429473D01*
X67880778Y-104407200D01*
X67903460Y-104381716D01*
X67920683Y-104353806D01*
X67921470Y-104352200D01*
X67926162Y-104342683D01*
X67930202Y-104334250D01*
X67933637Y-104326342D01*
X67936518Y-104318398D01*
X67938892Y-104309859D01*
X67940809Y-104300163D01*
X67942317Y-104288752D01*
X67943465Y-104275064D01*
X67944302Y-104258540D01*
X67944877Y-104238620D01*
X67945237Y-104214743D01*
X67945433Y-104186350D01*
X67945512Y-104152880D01*
X67945524Y-104113773D01*
X67945517Y-104068469D01*
X67945517Y-103848863D01*
X67937660Y-103825213D01*
X67929230Y-103802905D01*
X67915911Y-103777033D01*
X67898798Y-103753015D01*
X67876597Y-103728809D01*
X67876311Y-103728525D01*
X67860852Y-103713846D01*
X67847500Y-103702888D01*
X67834181Y-103694114D01*
X67818821Y-103685988D01*
X67813192Y-103683253D01*
X67803774Y-103678805D01*
X67794930Y-103674995D01*
X67786095Y-103671777D01*
X67776706Y-103669103D01*
X67766198Y-103666928D01*
X67754008Y-103665206D01*
X67739572Y-103663890D01*
X67722326Y-103662934D01*
X67701707Y-103662292D01*
X67677149Y-103661918D01*
X67648090Y-103661765D01*
X67613966Y-103661788D01*
X67574212Y-103661939D01*
X67528265Y-103662174D01*
X67317105Y-103663292D01*
X67289854Y-103672395D01*
X67283185Y-103674731D01*
X67248011Y-103691055D01*
X67217025Y-103712523D01*
X67190556Y-103738760D01*
X67168930Y-103769392D01*
X67152473Y-103804045D01*
X67141511Y-103842345D01*
X67140879Y-103845656D01*
X67139834Y-103852402D01*
X67138961Y-103860334D01*
X67138248Y-103870008D01*
X67137685Y-103881981D01*
X67137262Y-103896810D01*
X67136969Y-103915054D01*
X67136793Y-103937268D01*
X67136726Y-103964011D01*
X66974770Y-103964011D01*
X66974843Y-103940436D01*
X66975092Y-103906144D01*
X66975463Y-103877323D01*
X66975954Y-103854296D01*
X66976562Y-103837381D01*
X66977284Y-103826902D01*
X66982665Y-103791261D01*
X66993533Y-103749677D01*
X67009468Y-103709928D01*
X67018374Y-103691914D01*
X67031971Y-103668071D01*
X67047022Y-103646484D01*
X67064942Y-103625190D01*
X67087146Y-103602228D01*
X67108048Y-103582928D01*
X67140130Y-103558365D01*
X67174388Y-103538324D01*
X67212230Y-103522019D01*
X67255065Y-103508667D01*
X67258073Y-103507878D01*
X67263423Y-103506564D01*
X67268913Y-103505430D01*
X67275053Y-103504459D01*
X67282351Y-103503637D01*
X67291316Y-103502946D01*
X67302457Y-103502371D01*
X67316283Y-103501896D01*
X67333304Y-103501505D01*
X67354027Y-103501183D01*
X67378963Y-103500913D01*
X67408620Y-103500679D01*
X67443507Y-103500465D01*
X67484133Y-103500256D01*
X67531007Y-103500036D01*
X67580183Y-103499823D01*
X67623959Y-103499681D01*
X67662008Y-103499640D01*
X67694846Y-103499725D01*
X67722992Y-103499963D01*
X67746964Y-103500378D01*
X67767281Y-103500997D01*
X67784461Y-103501846D01*
X67799023Y-103502949D01*
X67811484Y-103504333D01*
X67822363Y-103506023D01*
X67832179Y-103508045D01*
X67841449Y-103510425D01*
X67850691Y-103513189D01*
X67860426Y-103516361D01*
X67869425Y-103519495D01*
X67913505Y-103538911D01*
X67954322Y-103563710D01*
X67991405Y-103593352D01*
X68024283Y-103627299D01*
X68052484Y-103665011D01*
X68075536Y-103705949D01*
X68092968Y-103749573D01*
X68104309Y-103795344D01*
X68105357Y-103804435D01*
X68106372Y-103820147D01*
X68107260Y-103841244D01*
X68108021Y-103867013D01*
X68108654Y-103896741D01*
X68109160Y-103929713D01*
X68109539Y-103965217D01*
X68109791Y-104002539D01*
X68109917Y-104040966D01*
X68109915Y-104079784D01*
X68109802Y-104113773D01*
X68109787Y-104118279D01*
X68109533Y-104155739D01*
G37*
G36*
X69406744Y-104313415D02*
G01*
X69241194Y-104313415D01*
X69241194Y-104147865D01*
X69406744Y-104147865D01*
X69406744Y-104313415D01*
G37*
G36*
X72001476Y-106418256D02*
G01*
X72325818Y-106418256D01*
X72325818Y-106583806D01*
X72243888Y-106583972D01*
X72242249Y-106583976D01*
X72212392Y-106584009D01*
X72178784Y-106584007D01*
X72144050Y-106583972D01*
X72110819Y-106583907D01*
X72081717Y-106583814D01*
X72001476Y-106583489D01*
X72001476Y-106742598D01*
X72163647Y-106742598D01*
X72163647Y-106904769D01*
X72325818Y-106904769D01*
X72325818Y-107556830D01*
X72160269Y-107556830D01*
X72160169Y-107476590D01*
X72160150Y-107465073D01*
X72160094Y-107440989D01*
X72160011Y-107412001D01*
X72159904Y-107379271D01*
X72159778Y-107343961D01*
X72159636Y-107307235D01*
X72159484Y-107270253D01*
X72159324Y-107234178D01*
X72158579Y-107072007D01*
X72078339Y-107071102D01*
X71998098Y-107070196D01*
X71997959Y-106990016D01*
X71997958Y-106989274D01*
X71997876Y-106959877D01*
X71997738Y-106926462D01*
X71997555Y-106891693D01*
X71997343Y-106858235D01*
X71997114Y-106828751D01*
X71996409Y-106747666D01*
X71835927Y-106745854D01*
X71835927Y-106580427D01*
X71998222Y-106580427D01*
X71997315Y-106501876D01*
X71996409Y-106423324D01*
X71916168Y-106422418D01*
X71835927Y-106421513D01*
X71835927Y-106256086D01*
X72001476Y-106256086D01*
X72001476Y-106418256D01*
G37*
G36*
X72325974Y-108372179D02*
G01*
X72325593Y-108407890D01*
X72325086Y-108441137D01*
X72324453Y-108471208D01*
X72323694Y-108497390D01*
X72322810Y-108518968D01*
X72321799Y-108535229D01*
X72320663Y-108545461D01*
X72313500Y-108578943D01*
X72298084Y-108625796D01*
X72276913Y-108669167D01*
X72249896Y-108709233D01*
X72216940Y-108746171D01*
X72188538Y-108771352D01*
X72148415Y-108798965D01*
X72104417Y-108821050D01*
X72056558Y-108837598D01*
X72004855Y-108848602D01*
X72002073Y-108848762D01*
X71992806Y-108848985D01*
X71977755Y-108849206D01*
X71957484Y-108849421D01*
X71932557Y-108849625D01*
X71903537Y-108849816D01*
X71870990Y-108849989D01*
X71835478Y-108850139D01*
X71797566Y-108850264D01*
X71757818Y-108850358D01*
X71754988Y-108850363D01*
X71706423Y-108850444D01*
X71664047Y-108850466D01*
X71627322Y-108850397D01*
X71595710Y-108850203D01*
X71568672Y-108849852D01*
X71545671Y-108849311D01*
X71526168Y-108848547D01*
X71509624Y-108847528D01*
X71495502Y-108846221D01*
X71483263Y-108844592D01*
X71472368Y-108842610D01*
X71462280Y-108840241D01*
X71452461Y-108837453D01*
X71442371Y-108834213D01*
X71431472Y-108830488D01*
X71415080Y-108824343D01*
X71372079Y-108803435D01*
X71332555Y-108777022D01*
X71296891Y-108745524D01*
X71265470Y-108709361D01*
X71238672Y-108668950D01*
X71216880Y-108624712D01*
X71200477Y-108577066D01*
X71199776Y-108574516D01*
X71198344Y-108569085D01*
X71197111Y-108563696D01*
X71196061Y-108557825D01*
X71195175Y-108550952D01*
X71194435Y-108542551D01*
X71193824Y-108532100D01*
X71193323Y-108519077D01*
X71192914Y-108502957D01*
X71192580Y-108483219D01*
X71192303Y-108459339D01*
X71192065Y-108430794D01*
X71191847Y-108397060D01*
X71191633Y-108357616D01*
X71191404Y-108311938D01*
X71191303Y-108289368D01*
X71191166Y-108240589D01*
X71191161Y-108196318D01*
X71191210Y-108180451D01*
X71353167Y-108180451D01*
X71353197Y-108212279D01*
X71353314Y-108249749D01*
X71353508Y-108293418D01*
X71354518Y-108501137D01*
X71363679Y-108528166D01*
X71375801Y-108556995D01*
X71395892Y-108589689D01*
X71421181Y-108619026D01*
X71451017Y-108644377D01*
X71484747Y-108665112D01*
X71521721Y-108680604D01*
X71523430Y-108681148D01*
X71527859Y-108682335D01*
X71533115Y-108683347D01*
X71539738Y-108684200D01*
X71548266Y-108684910D01*
X71559238Y-108685493D01*
X71573194Y-108685964D01*
X71590673Y-108686340D01*
X71612213Y-108686638D01*
X71638355Y-108686871D01*
X71669636Y-108687058D01*
X71706596Y-108687212D01*
X71749774Y-108687352D01*
X71752307Y-108687359D01*
X71789747Y-108687420D01*
X71825533Y-108687395D01*
X71859027Y-108687290D01*
X71889591Y-108687110D01*
X71916588Y-108686861D01*
X71939378Y-108686550D01*
X71957325Y-108686181D01*
X71969791Y-108685760D01*
X71976137Y-108685294D01*
X72007377Y-108677700D01*
X72039861Y-108664195D01*
X72070174Y-108645914D01*
X72097219Y-108623640D01*
X72119900Y-108598157D01*
X72137123Y-108570246D01*
X72137911Y-108568641D01*
X72142603Y-108559124D01*
X72146642Y-108550691D01*
X72150078Y-108542783D01*
X72152958Y-108534839D01*
X72155333Y-108526299D01*
X72157250Y-108516604D01*
X72158758Y-108505192D01*
X72159906Y-108491505D01*
X72160743Y-108474981D01*
X72161317Y-108455060D01*
X72161678Y-108431184D01*
X72161873Y-108402790D01*
X72161953Y-108369320D01*
X72161965Y-108330213D01*
X72161958Y-108284910D01*
X72161958Y-108065303D01*
X72154101Y-108041653D01*
X72145671Y-108019346D01*
X72132352Y-107993474D01*
X72115238Y-107969455D01*
X72093038Y-107945249D01*
X72092751Y-107944965D01*
X72077293Y-107930287D01*
X72063940Y-107919329D01*
X72050621Y-107910555D01*
X72035262Y-107902428D01*
X72029632Y-107899693D01*
X72020215Y-107895246D01*
X72011371Y-107891436D01*
X72002536Y-107888217D01*
X71993146Y-107885543D01*
X71982639Y-107883369D01*
X71970449Y-107881646D01*
X71956013Y-107880330D01*
X71938767Y-107879374D01*
X71918147Y-107878732D01*
X71893590Y-107878358D01*
X71864531Y-107878206D01*
X71830406Y-107878228D01*
X71790653Y-107878380D01*
X71744706Y-107878614D01*
X71533546Y-107879732D01*
X71506294Y-107888835D01*
X71499626Y-107891171D01*
X71464451Y-107907496D01*
X71433466Y-107928963D01*
X71406997Y-107955200D01*
X71385370Y-107985833D01*
X71368913Y-108020486D01*
X71357952Y-108058786D01*
X71357320Y-108062096D01*
X71356275Y-108068843D01*
X71355401Y-108076775D01*
X71354688Y-108086448D01*
X71354126Y-108098421D01*
X71353703Y-108113251D01*
X71353409Y-108131494D01*
X71353234Y-108153709D01*
X71353167Y-108180451D01*
X71191210Y-108180451D01*
X71191284Y-108156876D01*
X71191532Y-108122584D01*
X71191903Y-108093764D01*
X71192394Y-108070736D01*
X71193002Y-108053822D01*
X71193724Y-108043343D01*
X71199105Y-108007702D01*
X71209973Y-107966117D01*
X71225908Y-107926368D01*
X71234815Y-107908354D01*
X71248411Y-107884512D01*
X71263462Y-107862924D01*
X71281383Y-107841631D01*
X71303587Y-107818669D01*
X71324488Y-107799368D01*
X71356570Y-107774806D01*
X71390829Y-107754765D01*
X71428671Y-107738460D01*
X71471505Y-107725107D01*
X71474513Y-107724318D01*
X71479863Y-107723004D01*
X71485354Y-107721870D01*
X71491493Y-107720900D01*
X71498791Y-107720077D01*
X71507756Y-107719386D01*
X71518897Y-107718811D01*
X71532724Y-107718337D01*
X71549744Y-107717946D01*
X71570468Y-107717623D01*
X71595404Y-107717353D01*
X71625060Y-107717119D01*
X71659947Y-107716906D01*
X71700573Y-107716697D01*
X71747447Y-107716477D01*
X71796623Y-107716263D01*
X71840400Y-107716121D01*
X71878448Y-107716080D01*
X71911286Y-107716166D01*
X71939432Y-107716403D01*
X71963405Y-107716819D01*
X71983722Y-107717438D01*
X72000902Y-107718286D01*
X72015463Y-107719389D01*
X72027924Y-107720773D01*
X72038804Y-107722464D01*
X72048619Y-107724486D01*
X72057889Y-107726866D01*
X72067132Y-107729629D01*
X72076866Y-107732802D01*
X72085866Y-107735936D01*
X72129945Y-107755351D01*
X72170762Y-107780150D01*
X72207846Y-107809793D01*
X72240724Y-107843740D01*
X72268924Y-107881452D01*
X72291977Y-107922389D01*
X72309409Y-107966014D01*
X72320749Y-108011785D01*
X72321797Y-108020876D01*
X72322813Y-108036587D01*
X72323701Y-108057684D01*
X72324461Y-108083454D01*
X72325094Y-108113181D01*
X72325600Y-108146154D01*
X72325980Y-108181658D01*
X72326232Y-108218980D01*
X72326357Y-108257407D01*
X72326356Y-108296224D01*
X72326243Y-108330213D01*
X72326228Y-108334720D01*
X72325974Y-108372179D01*
G37*
G36*
X68595890Y-103661353D02*
G01*
X68758061Y-103661353D01*
X68758061Y-103826902D01*
X68592633Y-103826902D01*
X68591728Y-103746661D01*
X68590822Y-103666421D01*
X68430340Y-103664609D01*
X68430340Y-103499182D01*
X68595890Y-103499182D01*
X68595890Y-103661353D01*
G37*
G36*
X71918203Y-108052980D02*
G01*
X71925191Y-108056668D01*
X71950484Y-108074551D01*
X71972019Y-108097183D01*
X71988461Y-108123229D01*
X71999787Y-108146225D01*
X72000864Y-108273003D01*
X72001093Y-108312284D01*
X72001052Y-108346066D01*
X72000728Y-108373512D01*
X72000116Y-108394833D01*
X71999214Y-108410239D01*
X71998016Y-108419939D01*
X71997916Y-108420449D01*
X71989060Y-108449197D01*
X71974823Y-108473961D01*
X71955488Y-108494441D01*
X71931336Y-108510337D01*
X71902651Y-108521347D01*
X71901286Y-108521701D01*
X71894889Y-108522923D01*
X71886342Y-108523896D01*
X71874988Y-108524636D01*
X71860168Y-108525163D01*
X71841225Y-108525495D01*
X71817499Y-108525649D01*
X71788334Y-108525645D01*
X71753071Y-108525501D01*
X71621226Y-108524787D01*
X71597658Y-108513200D01*
X71582094Y-108504263D01*
X71559724Y-108486705D01*
X71540638Y-108465953D01*
X71526573Y-108443702D01*
X71516653Y-108423431D01*
X71515657Y-108293778D01*
X71515473Y-108259598D01*
X71515505Y-108223853D01*
X71515816Y-108194550D01*
X71516404Y-108171767D01*
X71517269Y-108155581D01*
X71518409Y-108146070D01*
X71522800Y-108129874D01*
X71534670Y-108103721D01*
X71551247Y-108080938D01*
X71571743Y-108062513D01*
X71595368Y-108049437D01*
X71595465Y-108049398D01*
X71600330Y-108047493D01*
X71605050Y-108045929D01*
X71610316Y-108044672D01*
X71616819Y-108043690D01*
X71625247Y-108042948D01*
X71636292Y-108042412D01*
X71650643Y-108042049D01*
X71668991Y-108041825D01*
X71692025Y-108041707D01*
X71720437Y-108041661D01*
X71754915Y-108041653D01*
X71895198Y-108041653D01*
X71918203Y-108052980D01*
G37*
%TD*%
M02*
