%TF.GenerationSoftware,KiCad,Pcbnew,(6.0.5)*%
%TF.CreationDate,2023-04-25T20:10:58+03:00*%
%TF.ProjectId,AT90USB162,41543930-5553-4423-9136-322e6b696361,rev?*%
%TF.SameCoordinates,Original*%
%TF.FileFunction,Paste,Top*%
%TF.FilePolarity,Positive*%
%FSLAX46Y46*%
G04 Gerber Fmt 4.6, Leading zero omitted, Abs format (unit mm)*
G04 Created by KiCad (PCBNEW (6.0.5)) date 2023-04-25 20:10:58*
%MOMM*%
%LPD*%
G01*
G04 APERTURE LIST*
G04 Aperture macros list*
%AMRoundRect*
0 Rectangle with rounded corners*
0 $1 Rounding radius*
0 $2 $3 $4 $5 $6 $7 $8 $9 X,Y pos of 4 corners*
0 Add a 4 corners polygon primitive as box body*
4,1,4,$2,$3,$4,$5,$6,$7,$8,$9,$2,$3,0*
0 Add four circle primitives for the rounded corners*
1,1,$1+$1,$2,$3*
1,1,$1+$1,$4,$5*
1,1,$1+$1,$6,$7*
1,1,$1+$1,$8,$9*
0 Add four rect primitives between the rounded corners*
20,1,$1+$1,$2,$3,$4,$5,0*
20,1,$1+$1,$4,$5,$6,$7,0*
20,1,$1+$1,$6,$7,$8,$9,0*
20,1,$1+$1,$8,$9,$2,$3,0*%
G04 Aperture macros list end*
%ADD10RoundRect,0.250000X-0.625000X0.312500X-0.625000X-0.312500X0.625000X-0.312500X0.625000X0.312500X0*%
%ADD11R,1.300000X1.550000*%
%ADD12RoundRect,0.250000X-0.312500X-0.625000X0.312500X-0.625000X0.312500X0.625000X-0.312500X0.625000X0*%
%ADD13RoundRect,0.242500X-0.242500X-0.242500X0.242500X-0.242500X0.242500X0.242500X-0.242500X0.242500X0*%
%ADD14RoundRect,0.062500X-0.337500X-0.062500X0.337500X-0.062500X0.337500X0.062500X-0.337500X0.062500X0*%
%ADD15RoundRect,0.062500X-0.062500X-0.337500X0.062500X-0.337500X0.062500X0.337500X-0.062500X0.337500X0*%
%ADD16RoundRect,0.250000X0.475000X-0.250000X0.475000X0.250000X-0.475000X0.250000X-0.475000X-0.250000X0*%
%ADD17R,1.100000X2.500000*%
%ADD18RoundRect,0.250000X0.312500X0.625000X-0.312500X0.625000X-0.312500X-0.625000X0.312500X-0.625000X0*%
%ADD19RoundRect,0.250000X-0.475000X0.250000X-0.475000X-0.250000X0.475000X-0.250000X0.475000X0.250000X0*%
%ADD20RoundRect,0.250000X0.250000X0.475000X-0.250000X0.475000X-0.250000X-0.475000X0.250000X-0.475000X0*%
%ADD21R,0.400000X1.900000*%
%ADD22R,2.500000X2.200000*%
%ADD23R,1.550000X2.200000*%
G04 APERTURE END LIST*
D10*
%TO.C,22R*%
X157500000Y-82718750D03*
X157500000Y-85643750D03*
%TD*%
D11*
%TO.C,RESET*%
X167450000Y-76500000D03*
X167450000Y-84450000D03*
X171950000Y-76500000D03*
X171950000Y-84450000D03*
%TD*%
D12*
%TO.C,100nF*%
X132531500Y-106312000D03*
X135456500Y-106312000D03*
%TD*%
D13*
%TO.C,AT90USB162*%
X129794000Y-91062000D03*
X128594000Y-89862000D03*
X129794000Y-92262000D03*
X130994000Y-92262000D03*
X130994000Y-89862000D03*
X128594000Y-92262000D03*
X130994000Y-91062000D03*
X129794000Y-89862000D03*
X128594000Y-91062000D03*
D14*
X127344000Y-89312000D03*
X127344000Y-89812000D03*
X127344000Y-90312000D03*
X127344000Y-90812000D03*
X127344000Y-91312000D03*
X127344000Y-91812000D03*
X127344000Y-92312000D03*
X127344000Y-92812000D03*
D15*
X128044000Y-93512000D03*
X128544000Y-93512000D03*
X129044000Y-93512000D03*
X129544000Y-93512000D03*
X130044000Y-93512000D03*
X130544000Y-93512000D03*
X131044000Y-93512000D03*
X131544000Y-93512000D03*
D14*
X132244000Y-92812000D03*
X132244000Y-92312000D03*
X132244000Y-91812000D03*
X132244000Y-91312000D03*
X132244000Y-90812000D03*
X132244000Y-90312000D03*
X132244000Y-89812000D03*
X132244000Y-89312000D03*
D15*
X131544000Y-88612000D03*
X131044000Y-88612000D03*
X130544000Y-88612000D03*
X130044000Y-88612000D03*
X129544000Y-88612000D03*
X129044000Y-88612000D03*
X128544000Y-88612000D03*
X128044000Y-88612000D03*
%TD*%
D11*
%TO.C,RESET*%
X79030000Y-85900000D03*
X79030000Y-77950000D03*
X83530000Y-85900000D03*
X83530000Y-77950000D03*
%TD*%
D16*
%TO.C,22pF*%
X152000000Y-85375000D03*
X152000000Y-83475000D03*
%TD*%
D17*
%TO.C,USB_0*%
X155200000Y-79956250D03*
X157700000Y-79956250D03*
X159700000Y-79956250D03*
X162200000Y-79956250D03*
%TD*%
D18*
%TO.C,1K*%
X166687500Y-89225000D03*
X163762500Y-89225000D03*
%TD*%
D19*
%TO.C,1uF*%
X102541500Y-84424500D03*
X102541500Y-86324500D03*
%TD*%
D16*
%TO.C,22pF*%
X125744000Y-85437000D03*
X125744000Y-83537000D03*
%TD*%
D20*
%TO.C,1uF*%
X136869000Y-89637000D03*
X134969000Y-89637000D03*
%TD*%
D21*
%TO.C,16MHz*%
X92266500Y-89399500D03*
X93466500Y-89399500D03*
X94666500Y-89399500D03*
%TD*%
D17*
%TO.C,USB_0*%
X66780000Y-81406250D03*
X69280000Y-81406250D03*
X71280000Y-81406250D03*
X73780000Y-81406250D03*
%TD*%
D21*
%TO.C,16MHz*%
X123419000Y-87712000D03*
X124619000Y-87712000D03*
X125819000Y-87712000D03*
%TD*%
D22*
%TO.C,REF\u002A\u002A*%
X166525000Y-92125000D03*
D23*
X163950000Y-92125000D03*
%TD*%
D12*
%TO.C,100nF*%
X137406500Y-106262000D03*
X140331500Y-106262000D03*
%TD*%
D18*
%TO.C,10K*%
X78792500Y-88225000D03*
X75867500Y-88225000D03*
%TD*%
D10*
%TO.C,22R*%
X100216500Y-84468250D03*
X100216500Y-87393250D03*
%TD*%
D18*
%TO.C,10K*%
X167212500Y-86775000D03*
X164287500Y-86775000D03*
%TD*%
D11*
%TO.C,RESET*%
X107791500Y-78249500D03*
X107791500Y-86199500D03*
X112291500Y-86199500D03*
X112291500Y-78249500D03*
%TD*%
D10*
%TO.C,22R*%
X69080000Y-84168750D03*
X69080000Y-87093750D03*
%TD*%
D18*
%TO.C,22R*%
X137919000Y-87262000D03*
X134994000Y-87262000D03*
%TD*%
D10*
%TO.C,22R*%
X97841500Y-84468250D03*
X97841500Y-87393250D03*
%TD*%
D18*
%TO.C,1K*%
X78267500Y-90675000D03*
X75342500Y-90675000D03*
%TD*%
D12*
%TO.C,10uF*%
X104979000Y-105699500D03*
X107904000Y-105699500D03*
%TD*%
%TO.C,100nF*%
X158337500Y-105925000D03*
X161262500Y-105925000D03*
%TD*%
D10*
%TO.C,22R*%
X159875000Y-82718750D03*
X159875000Y-85643750D03*
%TD*%
D22*
%TO.C,REF\u002A\u002A*%
X78105000Y-93575000D03*
D23*
X75530000Y-93575000D03*
%TD*%
D13*
%TO.C,AT90USB162*%
X157100000Y-92200000D03*
X158300000Y-89800000D03*
X159500000Y-92200000D03*
X158300000Y-92200000D03*
X158300000Y-91000000D03*
X157100000Y-91000000D03*
X157100000Y-89800000D03*
X159500000Y-91000000D03*
X159500000Y-89800000D03*
D14*
X155850000Y-89250000D03*
X155850000Y-89750000D03*
X155850000Y-90250000D03*
X155850000Y-90750000D03*
X155850000Y-91250000D03*
X155850000Y-91750000D03*
X155850000Y-92250000D03*
X155850000Y-92750000D03*
D15*
X156550000Y-93450000D03*
X157050000Y-93450000D03*
X157550000Y-93450000D03*
X158050000Y-93450000D03*
X158550000Y-93450000D03*
X159050000Y-93450000D03*
X159550000Y-93450000D03*
X160050000Y-93450000D03*
D14*
X160750000Y-92750000D03*
X160750000Y-92250000D03*
X160750000Y-91750000D03*
X160750000Y-91250000D03*
X160750000Y-90750000D03*
X160750000Y-90250000D03*
X160750000Y-89750000D03*
X160750000Y-89250000D03*
D15*
X160050000Y-88550000D03*
X159550000Y-88550000D03*
X159050000Y-88550000D03*
X158550000Y-88550000D03*
X158050000Y-88550000D03*
X157550000Y-88550000D03*
X157050000Y-88550000D03*
X156550000Y-88550000D03*
%TD*%
D12*
%TO.C,100nF*%
X164637500Y-106275000D03*
X167562500Y-106275000D03*
%TD*%
D16*
%TO.C,22pF*%
X154250000Y-85375000D03*
X154250000Y-83475000D03*
%TD*%
D12*
%TO.C,100nF*%
X76217500Y-107725000D03*
X79142500Y-107725000D03*
%TD*%
%TO.C,10uF*%
X76217500Y-105400000D03*
X79142500Y-105400000D03*
%TD*%
D18*
%TO.C,22R*%
X137919000Y-84887000D03*
X134994000Y-84887000D03*
%TD*%
D16*
%TO.C,22pF*%
X123494000Y-85437000D03*
X123494000Y-83537000D03*
%TD*%
D12*
%TO.C,100nF*%
X69917500Y-107375000D03*
X72842500Y-107375000D03*
%TD*%
%TO.C,10uF*%
X164637500Y-103950000D03*
X167562500Y-103950000D03*
%TD*%
%TO.C,100nF*%
X98679000Y-107674500D03*
X101604000Y-107674500D03*
%TD*%
D18*
%TO.C,10K*%
X107554000Y-88524500D03*
X104629000Y-88524500D03*
%TD*%
D21*
%TO.C,16MHz*%
X151925000Y-87650000D03*
X153125000Y-87650000D03*
X154325000Y-87650000D03*
%TD*%
D18*
%TO.C,1K*%
X107029000Y-90974500D03*
X104104000Y-90974500D03*
%TD*%
D12*
%TO.C,100nF*%
X104979000Y-108024500D03*
X107904000Y-108024500D03*
%TD*%
D21*
%TO.C,16MHz*%
X63505000Y-89100000D03*
X64705000Y-89100000D03*
X65905000Y-89100000D03*
%TD*%
D10*
%TO.C,22R*%
X71455000Y-84168750D03*
X71455000Y-87093750D03*
%TD*%
D17*
%TO.C,USB_0*%
X95541500Y-81705750D03*
X98041500Y-81705750D03*
X100041500Y-81705750D03*
X102541500Y-81705750D03*
%TD*%
D12*
%TO.C,10uF*%
X137406500Y-103937000D03*
X140331500Y-103937000D03*
%TD*%
D19*
%TO.C,1uF*%
X162200000Y-82675000D03*
X162200000Y-84575000D03*
%TD*%
D22*
%TO.C,REF\u002A\u002A*%
X106866500Y-93874500D03*
D23*
X104291500Y-93874500D03*
%TD*%
D13*
%TO.C,AT90USB162*%
X99841500Y-92749500D03*
X99841500Y-93949500D03*
X97441500Y-92749500D03*
X99841500Y-91549500D03*
X98641500Y-92749500D03*
X97441500Y-91549500D03*
X97441500Y-93949500D03*
X98641500Y-93949500D03*
X98641500Y-91549500D03*
D14*
X96191500Y-90999500D03*
X96191500Y-91499500D03*
X96191500Y-91999500D03*
X96191500Y-92499500D03*
X96191500Y-92999500D03*
X96191500Y-93499500D03*
X96191500Y-93999500D03*
X96191500Y-94499500D03*
D15*
X96891500Y-95199500D03*
X97391500Y-95199500D03*
X97891500Y-95199500D03*
X98391500Y-95199500D03*
X98891500Y-95199500D03*
X99391500Y-95199500D03*
X99891500Y-95199500D03*
X100391500Y-95199500D03*
D14*
X101091500Y-94499500D03*
X101091500Y-93999500D03*
X101091500Y-93499500D03*
X101091500Y-92999500D03*
X101091500Y-92499500D03*
X101091500Y-91999500D03*
X101091500Y-91499500D03*
X101091500Y-90999500D03*
D15*
X100391500Y-90299500D03*
X99891500Y-90299500D03*
X99391500Y-90299500D03*
X98891500Y-90299500D03*
X98391500Y-90299500D03*
X97891500Y-90299500D03*
X97391500Y-90299500D03*
X96891500Y-90299500D03*
%TD*%
D19*
%TO.C,1uF*%
X73780000Y-84125000D03*
X73780000Y-86025000D03*
%TD*%
D13*
%TO.C,AT90USB162*%
X68680000Y-92450000D03*
X71080000Y-93650000D03*
X68680000Y-93650000D03*
X69880000Y-93650000D03*
X71080000Y-92450000D03*
X71080000Y-91250000D03*
X69880000Y-91250000D03*
X68680000Y-91250000D03*
X69880000Y-92450000D03*
D14*
X67430000Y-90700000D03*
X67430000Y-91200000D03*
X67430000Y-91700000D03*
X67430000Y-92200000D03*
X67430000Y-92700000D03*
X67430000Y-93200000D03*
X67430000Y-93700000D03*
X67430000Y-94200000D03*
D15*
X68130000Y-94900000D03*
X68630000Y-94900000D03*
X69130000Y-94900000D03*
X69630000Y-94900000D03*
X70130000Y-94900000D03*
X70630000Y-94900000D03*
X71130000Y-94900000D03*
X71630000Y-94900000D03*
D14*
X72330000Y-94200000D03*
X72330000Y-93700000D03*
X72330000Y-93200000D03*
X72330000Y-92700000D03*
X72330000Y-92200000D03*
X72330000Y-91700000D03*
X72330000Y-91200000D03*
X72330000Y-90700000D03*
D15*
X71630000Y-90000000D03*
X71130000Y-90000000D03*
X70630000Y-90000000D03*
X70130000Y-90000000D03*
X69630000Y-90000000D03*
X69130000Y-90000000D03*
X68630000Y-90000000D03*
X68130000Y-90000000D03*
%TD*%
M02*
