%TF.GenerationSoftware,KiCad,Pcbnew,(6.0.5)*%
%TF.CreationDate,2023-04-25T20:10:58+03:00*%
%TF.ProjectId,AT90USB162,41543930-5553-4423-9136-322e6b696361,rev?*%
%TF.SameCoordinates,Original*%
%TF.FileFunction,Soldermask,Top*%
%TF.FilePolarity,Negative*%
%FSLAX46Y46*%
G04 Gerber Fmt 4.6, Leading zero omitted, Abs format (unit mm)*
G04 Created by KiCad (PCBNEW (6.0.5)) date 2023-04-25 20:10:58*
%MOMM*%
%LPD*%
G01*
G04 APERTURE LIST*
G04 Aperture macros list*
%AMRoundRect*
0 Rectangle with rounded corners*
0 $1 Rounding radius*
0 $2 $3 $4 $5 $6 $7 $8 $9 X,Y pos of 4 corners*
0 Add a 4 corners polygon primitive as box body*
4,1,4,$2,$3,$4,$5,$6,$7,$8,$9,$2,$3,0*
0 Add four circle primitives for the rounded corners*
1,1,$1+$1,$2,$3*
1,1,$1+$1,$4,$5*
1,1,$1+$1,$6,$7*
1,1,$1+$1,$8,$9*
0 Add four rect primitives between the rounded corners*
20,1,$1+$1,$2,$3,$4,$5,0*
20,1,$1+$1,$4,$5,$6,$7,0*
20,1,$1+$1,$6,$7,$8,$9,0*
20,1,$1+$1,$8,$9,$2,$3,0*%
G04 Aperture macros list end*
%ADD10R,1.700000X1.700000*%
%ADD11O,1.700000X1.700000*%
%ADD12RoundRect,0.250000X-0.625000X0.312500X-0.625000X-0.312500X0.625000X-0.312500X0.625000X0.312500X0*%
%ADD13R,1.300000X1.550000*%
%ADD14RoundRect,0.250000X-0.312500X-0.625000X0.312500X-0.625000X0.312500X0.625000X-0.312500X0.625000X0*%
%ADD15RoundRect,0.062500X-0.337500X-0.062500X0.337500X-0.062500X0.337500X0.062500X-0.337500X0.062500X0*%
%ADD16RoundRect,0.062500X-0.062500X-0.337500X0.062500X-0.337500X0.062500X0.337500X-0.062500X0.337500X0*%
%ADD17R,3.600000X3.600000*%
%ADD18RoundRect,0.250000X0.475000X-0.250000X0.475000X0.250000X-0.475000X0.250000X-0.475000X-0.250000X0*%
%ADD19C,1.100000*%
%ADD20R,1.100000X2.500000*%
%ADD21O,1.900000X3.500000*%
%ADD22RoundRect,0.250000X0.312500X0.625000X-0.312500X0.625000X-0.312500X-0.625000X0.312500X-0.625000X0*%
%ADD23RoundRect,0.250000X-0.475000X0.250000X-0.475000X-0.250000X0.475000X-0.250000X0.475000X0.250000X0*%
%ADD24RoundRect,0.250000X0.250000X0.475000X-0.250000X0.475000X-0.250000X-0.475000X0.250000X-0.475000X0*%
%ADD25R,0.400000X1.900000*%
%ADD26R,2.500000X2.200000*%
%ADD27R,1.550000X2.200000*%
%ADD28R,1.600000X1.600000*%
%ADD29C,1.600000*%
%ADD30C,4.000000*%
G04 APERTURE END LIST*
D10*
%TO.C,REF\u002A\u002A*%
X123794000Y-92897000D03*
D11*
X123794000Y-95437000D03*
X123794000Y-97977000D03*
X123794000Y-100517000D03*
X123794000Y-103057000D03*
X123794000Y-105597000D03*
X123794000Y-108137000D03*
X123794000Y-110677000D03*
%TD*%
D12*
%TO.C,22R*%
X157500000Y-82718750D03*
X157500000Y-85643750D03*
%TD*%
D13*
%TO.C,RESET*%
X167450000Y-76500000D03*
X167450000Y-84450000D03*
X171950000Y-76500000D03*
X171950000Y-84450000D03*
%TD*%
D14*
%TO.C,100nF*%
X132531500Y-106312000D03*
X135456500Y-106312000D03*
%TD*%
D10*
%TO.C,REF\u002A\u002A*%
X163400000Y-95875000D03*
D11*
X165940000Y-95875000D03*
X163400000Y-98415000D03*
X165940000Y-98415000D03*
X163400000Y-100955000D03*
X165940000Y-100955000D03*
%TD*%
D15*
%TO.C,AT90USB162*%
X127344000Y-89312000D03*
X127344000Y-89812000D03*
X127344000Y-90312000D03*
X127344000Y-90812000D03*
X127344000Y-91312000D03*
X127344000Y-91812000D03*
X127344000Y-92312000D03*
X127344000Y-92812000D03*
D16*
X128044000Y-93512000D03*
X128544000Y-93512000D03*
X129044000Y-93512000D03*
X129544000Y-93512000D03*
X130044000Y-93512000D03*
X130544000Y-93512000D03*
X131044000Y-93512000D03*
X131544000Y-93512000D03*
D15*
X132244000Y-92812000D03*
X132244000Y-92312000D03*
X132244000Y-91812000D03*
X132244000Y-91312000D03*
X132244000Y-90812000D03*
X132244000Y-90312000D03*
X132244000Y-89812000D03*
X132244000Y-89312000D03*
D16*
X131544000Y-88612000D03*
X131044000Y-88612000D03*
X130544000Y-88612000D03*
X130044000Y-88612000D03*
X129544000Y-88612000D03*
X129044000Y-88612000D03*
X128544000Y-88612000D03*
X128044000Y-88612000D03*
D17*
X129794000Y-91062000D03*
%TD*%
D13*
%TO.C,RESET*%
X79030000Y-85900000D03*
X79030000Y-77950000D03*
X83530000Y-85900000D03*
X83530000Y-77950000D03*
%TD*%
D18*
%TO.C,22pF*%
X152000000Y-85375000D03*
X152000000Y-83475000D03*
%TD*%
D19*
%TO.C,USB_0*%
X156400000Y-77206250D03*
X161000000Y-77206250D03*
D20*
X155200000Y-79956250D03*
X157700000Y-79956250D03*
X159700000Y-79956250D03*
X162200000Y-79956250D03*
D21*
X153000000Y-77206250D03*
X164400000Y-77206250D03*
%TD*%
D22*
%TO.C,1K*%
X166687500Y-89225000D03*
X163762500Y-89225000D03*
%TD*%
D23*
%TO.C,1uF*%
X102541500Y-84424500D03*
X102541500Y-86324500D03*
%TD*%
D10*
%TO.C,REF\u002A\u002A*%
X171150000Y-87750000D03*
D11*
X171150000Y-90290000D03*
X171150000Y-92830000D03*
X171150000Y-95370000D03*
X171150000Y-97910000D03*
X171150000Y-100450000D03*
X171150000Y-102990000D03*
X171150000Y-105530000D03*
%TD*%
D18*
%TO.C,22pF*%
X125744000Y-85437000D03*
X125744000Y-83537000D03*
%TD*%
D10*
%TO.C,REF\u002A\u002A*%
X82730000Y-89200000D03*
D11*
X82730000Y-91740000D03*
X82730000Y-94280000D03*
X82730000Y-96820000D03*
X82730000Y-99360000D03*
X82730000Y-101900000D03*
X82730000Y-104440000D03*
X82730000Y-106980000D03*
%TD*%
D10*
%TO.C,REF\u002A\u002A*%
X103741500Y-97624500D03*
D11*
X106281500Y-97624500D03*
X103741500Y-100164500D03*
X106281500Y-100164500D03*
X103741500Y-102704500D03*
X106281500Y-102704500D03*
%TD*%
D10*
%TO.C,REF\u002A\u002A*%
X92641500Y-94584500D03*
D11*
X92641500Y-97124500D03*
X92641500Y-99664500D03*
X92641500Y-102204500D03*
X92641500Y-104744500D03*
X92641500Y-107284500D03*
X92641500Y-109824500D03*
X92641500Y-112364500D03*
%TD*%
D24*
%TO.C,1uF*%
X136869000Y-89637000D03*
X134969000Y-89637000D03*
%TD*%
D25*
%TO.C,16MHz*%
X92266500Y-89399500D03*
X93466500Y-89399500D03*
X94666500Y-89399500D03*
%TD*%
D19*
%TO.C,USB_0*%
X72580000Y-78656250D03*
X67980000Y-78656250D03*
D20*
X66780000Y-81406250D03*
X69280000Y-81406250D03*
X71280000Y-81406250D03*
X73780000Y-81406250D03*
D21*
X64580000Y-78656250D03*
X75980000Y-78656250D03*
%TD*%
D25*
%TO.C,16MHz*%
X123419000Y-87712000D03*
X124619000Y-87712000D03*
X125819000Y-87712000D03*
%TD*%
D26*
%TO.C,REF\u002A\u002A*%
X166525000Y-92125000D03*
D27*
X163950000Y-92125000D03*
%TD*%
D14*
%TO.C,100nF*%
X137406500Y-106262000D03*
X140331500Y-106262000D03*
%TD*%
D22*
%TO.C,10K*%
X78792500Y-88225000D03*
X75867500Y-88225000D03*
%TD*%
D12*
%TO.C,22R*%
X100216500Y-84468250D03*
X100216500Y-87393250D03*
%TD*%
D22*
%TO.C,10K*%
X167212500Y-86775000D03*
X164287500Y-86775000D03*
%TD*%
D13*
%TO.C,RESET*%
X107791500Y-78249500D03*
X107791500Y-86199500D03*
X112291500Y-86199500D03*
X112291500Y-78249500D03*
%TD*%
D12*
%TO.C,22R*%
X69080000Y-84168750D03*
X69080000Y-87093750D03*
%TD*%
D22*
%TO.C,22R*%
X137919000Y-87262000D03*
X134994000Y-87262000D03*
%TD*%
D10*
%TO.C,REF\u002A\u002A*%
X98816500Y-111799500D03*
D11*
X101356500Y-111799500D03*
X103896500Y-111799500D03*
X106436500Y-111799500D03*
X108976500Y-111799500D03*
X111516500Y-111799500D03*
%TD*%
D12*
%TO.C,22R*%
X97841500Y-84468250D03*
X97841500Y-87393250D03*
%TD*%
D22*
%TO.C,1K*%
X78267500Y-90675000D03*
X75342500Y-90675000D03*
%TD*%
D14*
%TO.C,10uF*%
X104979000Y-105699500D03*
X107904000Y-105699500D03*
%TD*%
%TO.C,100nF*%
X158337500Y-105925000D03*
X161262500Y-105925000D03*
%TD*%
D12*
%TO.C,22R*%
X159875000Y-82718750D03*
X159875000Y-85643750D03*
%TD*%
D10*
%TO.C,REF\u002A\u002A*%
X134894000Y-95937000D03*
D11*
X137434000Y-95937000D03*
X134894000Y-98477000D03*
X137434000Y-98477000D03*
X134894000Y-101017000D03*
X137434000Y-101017000D03*
%TD*%
D10*
%TO.C,REF\u002A\u002A*%
X74980000Y-97325000D03*
D11*
X77520000Y-97325000D03*
X74980000Y-99865000D03*
X77520000Y-99865000D03*
X74980000Y-102405000D03*
X77520000Y-102405000D03*
%TD*%
D10*
%TO.C,REF\u002A\u002A*%
X63880000Y-94285000D03*
D11*
X63880000Y-96825000D03*
X63880000Y-99365000D03*
X63880000Y-101905000D03*
X63880000Y-104445000D03*
X63880000Y-106985000D03*
X63880000Y-109525000D03*
X63880000Y-112065000D03*
%TD*%
D26*
%TO.C,REF\u002A\u002A*%
X78105000Y-93575000D03*
D27*
X75530000Y-93575000D03*
%TD*%
D28*
%TO.C,USB*%
X132944000Y-81837000D03*
D29*
X135444000Y-81837000D03*
X135444000Y-79837000D03*
X132944000Y-79837000D03*
D30*
X128194000Y-76977000D03*
X140194000Y-76977000D03*
%TD*%
D15*
%TO.C,AT90USB162*%
X155850000Y-89250000D03*
X155850000Y-89750000D03*
X155850000Y-90250000D03*
X155850000Y-90750000D03*
X155850000Y-91250000D03*
X155850000Y-91750000D03*
X155850000Y-92250000D03*
X155850000Y-92750000D03*
D16*
X156550000Y-93450000D03*
X157050000Y-93450000D03*
X157550000Y-93450000D03*
X158050000Y-93450000D03*
X158550000Y-93450000D03*
X159050000Y-93450000D03*
X159550000Y-93450000D03*
X160050000Y-93450000D03*
D15*
X160750000Y-92750000D03*
X160750000Y-92250000D03*
X160750000Y-91750000D03*
X160750000Y-91250000D03*
X160750000Y-90750000D03*
X160750000Y-90250000D03*
X160750000Y-89750000D03*
X160750000Y-89250000D03*
D16*
X160050000Y-88550000D03*
X159550000Y-88550000D03*
X159050000Y-88550000D03*
X158550000Y-88550000D03*
X158050000Y-88550000D03*
X157550000Y-88550000D03*
X157050000Y-88550000D03*
X156550000Y-88550000D03*
D17*
X158300000Y-91000000D03*
%TD*%
D14*
%TO.C,100nF*%
X164637500Y-106275000D03*
X167562500Y-106275000D03*
%TD*%
D18*
%TO.C,22pF*%
X154250000Y-85375000D03*
X154250000Y-83475000D03*
%TD*%
D14*
%TO.C,100nF*%
X76217500Y-107725000D03*
X79142500Y-107725000D03*
%TD*%
%TO.C,10uF*%
X76217500Y-105400000D03*
X79142500Y-105400000D03*
%TD*%
D22*
%TO.C,22R*%
X137919000Y-84887000D03*
X134994000Y-84887000D03*
%TD*%
D10*
%TO.C,REF\u002A\u002A*%
X158475000Y-110050000D03*
D11*
X161015000Y-110050000D03*
X163555000Y-110050000D03*
X166095000Y-110050000D03*
X168635000Y-110050000D03*
X171175000Y-110050000D03*
%TD*%
D10*
%TO.C,REF\u002A\u002A*%
X111491500Y-89499500D03*
D11*
X111491500Y-92039500D03*
X111491500Y-94579500D03*
X111491500Y-97119500D03*
X111491500Y-99659500D03*
X111491500Y-102199500D03*
X111491500Y-104739500D03*
X111491500Y-107279500D03*
%TD*%
D18*
%TO.C,22pF*%
X123494000Y-85437000D03*
X123494000Y-83537000D03*
%TD*%
D14*
%TO.C,100nF*%
X69917500Y-107375000D03*
X72842500Y-107375000D03*
%TD*%
%TO.C,10uF*%
X164637500Y-103950000D03*
X167562500Y-103950000D03*
%TD*%
D10*
%TO.C,REF\u002A\u002A*%
X152300000Y-92835000D03*
D11*
X152300000Y-95375000D03*
X152300000Y-97915000D03*
X152300000Y-100455000D03*
X152300000Y-102995000D03*
X152300000Y-105535000D03*
X152300000Y-108075000D03*
X152300000Y-110615000D03*
%TD*%
D14*
%TO.C,100nF*%
X98679000Y-107674500D03*
X101604000Y-107674500D03*
%TD*%
D22*
%TO.C,10K*%
X107554000Y-88524500D03*
X104629000Y-88524500D03*
%TD*%
D25*
%TO.C,16MHz*%
X151925000Y-87650000D03*
X153125000Y-87650000D03*
X154325000Y-87650000D03*
%TD*%
D22*
%TO.C,1K*%
X107029000Y-90974500D03*
X104104000Y-90974500D03*
%TD*%
D14*
%TO.C,100nF*%
X104979000Y-108024500D03*
X107904000Y-108024500D03*
%TD*%
D25*
%TO.C,16MHz*%
X63505000Y-89100000D03*
X64705000Y-89100000D03*
X65905000Y-89100000D03*
%TD*%
D12*
%TO.C,22R*%
X71455000Y-84168750D03*
X71455000Y-87093750D03*
%TD*%
D19*
%TO.C,USB_0*%
X101341500Y-78955750D03*
X96741500Y-78955750D03*
D20*
X95541500Y-81705750D03*
X98041500Y-81705750D03*
X100041500Y-81705750D03*
X102541500Y-81705750D03*
D21*
X104741500Y-78955750D03*
X93341500Y-78955750D03*
%TD*%
D14*
%TO.C,10uF*%
X137406500Y-103937000D03*
X140331500Y-103937000D03*
%TD*%
D23*
%TO.C,1uF*%
X162200000Y-82675000D03*
X162200000Y-84575000D03*
%TD*%
D26*
%TO.C,REF\u002A\u002A*%
X106866500Y-93874500D03*
D27*
X104291500Y-93874500D03*
%TD*%
D15*
%TO.C,AT90USB162*%
X96191500Y-90999500D03*
X96191500Y-91499500D03*
X96191500Y-91999500D03*
X96191500Y-92499500D03*
X96191500Y-92999500D03*
X96191500Y-93499500D03*
X96191500Y-93999500D03*
X96191500Y-94499500D03*
D16*
X96891500Y-95199500D03*
X97391500Y-95199500D03*
X97891500Y-95199500D03*
X98391500Y-95199500D03*
X98891500Y-95199500D03*
X99391500Y-95199500D03*
X99891500Y-95199500D03*
X100391500Y-95199500D03*
D15*
X101091500Y-94499500D03*
X101091500Y-93999500D03*
X101091500Y-93499500D03*
X101091500Y-92999500D03*
X101091500Y-92499500D03*
X101091500Y-91999500D03*
X101091500Y-91499500D03*
X101091500Y-90999500D03*
D16*
X100391500Y-90299500D03*
X99891500Y-90299500D03*
X99391500Y-90299500D03*
X98891500Y-90299500D03*
X98391500Y-90299500D03*
X97891500Y-90299500D03*
X97391500Y-90299500D03*
X96891500Y-90299500D03*
D17*
X98641500Y-92749500D03*
%TD*%
D23*
%TO.C,1uF*%
X73780000Y-84125000D03*
X73780000Y-86025000D03*
%TD*%
D15*
%TO.C,AT90USB162*%
X67430000Y-90700000D03*
X67430000Y-91200000D03*
X67430000Y-91700000D03*
X67430000Y-92200000D03*
X67430000Y-92700000D03*
X67430000Y-93200000D03*
X67430000Y-93700000D03*
X67430000Y-94200000D03*
D16*
X68130000Y-94900000D03*
X68630000Y-94900000D03*
X69130000Y-94900000D03*
X69630000Y-94900000D03*
X70130000Y-94900000D03*
X70630000Y-94900000D03*
X71130000Y-94900000D03*
X71630000Y-94900000D03*
D15*
X72330000Y-94200000D03*
X72330000Y-93700000D03*
X72330000Y-93200000D03*
X72330000Y-92700000D03*
X72330000Y-92200000D03*
X72330000Y-91700000D03*
X72330000Y-91200000D03*
X72330000Y-90700000D03*
D16*
X71630000Y-90000000D03*
X71130000Y-90000000D03*
X70630000Y-90000000D03*
X70130000Y-90000000D03*
X69630000Y-90000000D03*
X69130000Y-90000000D03*
X68630000Y-90000000D03*
X68130000Y-90000000D03*
D17*
X69880000Y-92450000D03*
%TD*%
D10*
%TO.C,REF\u002A\u002A*%
X70055000Y-111500000D03*
D11*
X72595000Y-111500000D03*
X75135000Y-111500000D03*
X77675000Y-111500000D03*
X80215000Y-111500000D03*
X82755000Y-111500000D03*
%TD*%
D10*
%TO.C,REF\u002A\u002A*%
X129969000Y-110112000D03*
D11*
X132509000Y-110112000D03*
X135049000Y-110112000D03*
X137589000Y-110112000D03*
X140129000Y-110112000D03*
X142669000Y-110112000D03*
%TD*%
D10*
%TO.C,REF\u002A\u002A*%
X142644000Y-87812000D03*
D11*
X142644000Y-90352000D03*
X142644000Y-92892000D03*
X142644000Y-95432000D03*
X142644000Y-97972000D03*
X142644000Y-100512000D03*
X142644000Y-103052000D03*
X142644000Y-105592000D03*
%TD*%
M02*
