%TF.GenerationSoftware,KiCad,Pcbnew,(6.0.5)*%
%TF.CreationDate,2023-04-25T20:11:02+03:00*%
%TF.ProjectId,AT90USB162,41543930-5553-4423-9136-322e6b696361,rev?*%
%TF.SameCoordinates,Original*%
%TF.FileFunction,Plated,1,2,PTH,Mixed*%
%TF.FilePolarity,Positive*%
%FSLAX46Y46*%
G04 Gerber Fmt 4.6, Leading zero omitted, Abs format (unit mm)*
G04 Created by KiCad (PCBNEW (6.0.5)) date 2023-04-25 20:11:02*
%MOMM*%
%LPD*%
G01*
G04 APERTURE LIST*
%TA.AperFunction,ViaDrill*%
%ADD10C,0.200000*%
%TD*%
%TA.AperFunction,ViaDrill*%
%ADD11C,0.400000*%
%TD*%
G04 aperture for slot hole*
%TA.AperFunction,ComponentDrill*%
%ADD12O,0.900000X2.500000*%
%TD*%
%TA.AperFunction,ComponentDrill*%
%ADD13C,0.950000*%
%TD*%
%TA.AperFunction,ComponentDrill*%
%ADD14C,1.000000*%
%TD*%
%TA.AperFunction,ComponentDrill*%
%ADD15C,2.300000*%
%TD*%
G04 APERTURE END LIST*
D10*
X66580000Y-92200000D03*
X68630000Y-95800000D03*
X69130000Y-95800000D03*
X69630000Y-95800000D03*
X70130000Y-95800000D03*
X70630000Y-95800000D03*
X71130000Y-95800000D03*
X71630000Y-95800000D03*
X72830000Y-89450000D03*
X72855000Y-88950000D03*
X73305000Y-91199317D03*
X73307112Y-91675000D03*
X73307112Y-92200000D03*
X73307112Y-92700000D03*
X73307112Y-93200000D03*
X73307112Y-93700000D03*
X73307112Y-94200000D03*
X95341500Y-92499500D03*
X97391500Y-96099500D03*
X97891500Y-96099500D03*
X98391500Y-96099500D03*
X98891500Y-96099500D03*
X99391500Y-96099500D03*
X99891500Y-96099500D03*
X100391500Y-96099500D03*
X101591500Y-89749500D03*
X101616500Y-89249500D03*
X102066500Y-91498817D03*
X102068612Y-91974500D03*
X102068612Y-92499500D03*
X102068612Y-92999500D03*
X102068612Y-93499500D03*
X102068612Y-93999500D03*
X102068612Y-94499500D03*
X126669000Y-90812000D03*
X128294000Y-88612000D03*
X128544000Y-94412000D03*
X129044000Y-94412000D03*
X129544000Y-94412000D03*
X130044000Y-94412000D03*
X130544000Y-94412000D03*
X131044000Y-94412000D03*
X131544000Y-94412000D03*
X132744000Y-88062000D03*
X132769000Y-87562000D03*
X133219000Y-89811317D03*
X133221112Y-90287000D03*
X133221112Y-90812000D03*
X133221112Y-91312000D03*
X133221112Y-91812000D03*
X133221112Y-92312000D03*
X133221112Y-92812000D03*
X155000000Y-90750000D03*
X157050000Y-94350000D03*
X157550000Y-94350000D03*
X158050000Y-94350000D03*
X158550000Y-94350000D03*
X159050000Y-94350000D03*
X159550000Y-94350000D03*
X160050000Y-94350000D03*
X161250000Y-88000000D03*
X161275000Y-87500000D03*
X161725000Y-89749317D03*
X161727112Y-90225000D03*
X161727112Y-90750000D03*
X161727112Y-91250000D03*
X161727112Y-91750000D03*
X161727112Y-92250000D03*
X161727112Y-92750000D03*
D11*
X68380000Y-90000000D03*
X75866250Y-88226250D03*
X78816250Y-88201250D03*
X79030000Y-85865000D03*
X97141500Y-90299500D03*
X104627750Y-88525750D03*
X107577750Y-88500750D03*
X107791500Y-86164500D03*
X156800000Y-88550000D03*
X164286250Y-86776250D03*
X167236250Y-86751250D03*
X167450000Y-84415000D03*
D12*
%TO.C,USB_0*%
X64580000Y-78656250D03*
X75980000Y-78656250D03*
X93341500Y-78955750D03*
X104741500Y-78955750D03*
X153000000Y-77206250D03*
X164400000Y-77206250D03*
D13*
%TO.C,USB*%
X132944000Y-79837000D03*
X132944000Y-81837000D03*
X135444000Y-79837000D03*
X135444000Y-81837000D03*
D14*
%TO.C,REF\u002A\u002A*%
X63880000Y-94285000D03*
X63880000Y-96825000D03*
X63880000Y-99365000D03*
X63880000Y-101905000D03*
X63880000Y-104445000D03*
X63880000Y-106985000D03*
X63880000Y-109525000D03*
X63880000Y-112065000D03*
X70055000Y-111500000D03*
X72595000Y-111500000D03*
X74980000Y-97325000D03*
X74980000Y-99865000D03*
X74980000Y-102405000D03*
X75135000Y-111500000D03*
X77520000Y-97325000D03*
X77520000Y-99865000D03*
X77520000Y-102405000D03*
X77675000Y-111500000D03*
X80215000Y-111500000D03*
X82730000Y-89200000D03*
X82730000Y-91740000D03*
X82730000Y-94280000D03*
X82730000Y-96820000D03*
X82730000Y-99360000D03*
X82730000Y-101900000D03*
X82730000Y-104440000D03*
X82730000Y-106980000D03*
X82755000Y-111500000D03*
X92641500Y-94584500D03*
X92641500Y-97124500D03*
X92641500Y-99664500D03*
X92641500Y-102204500D03*
X92641500Y-104744500D03*
X92641500Y-107284500D03*
X92641500Y-109824500D03*
X92641500Y-112364500D03*
X98816500Y-111799500D03*
X101356500Y-111799500D03*
X103741500Y-97624500D03*
X103741500Y-100164500D03*
X103741500Y-102704500D03*
X103896500Y-111799500D03*
X106281500Y-97624500D03*
X106281500Y-100164500D03*
X106281500Y-102704500D03*
X106436500Y-111799500D03*
X108976500Y-111799500D03*
X111491500Y-89499500D03*
X111491500Y-92039500D03*
X111491500Y-94579500D03*
X111491500Y-97119500D03*
X111491500Y-99659500D03*
X111491500Y-102199500D03*
X111491500Y-104739500D03*
X111491500Y-107279500D03*
X111516500Y-111799500D03*
X123794000Y-92897000D03*
X123794000Y-95437000D03*
X123794000Y-97977000D03*
X123794000Y-100517000D03*
X123794000Y-103057000D03*
X123794000Y-105597000D03*
X123794000Y-108137000D03*
X123794000Y-110677000D03*
X129969000Y-110112000D03*
X132509000Y-110112000D03*
X134894000Y-95937000D03*
X134894000Y-98477000D03*
X134894000Y-101017000D03*
X135049000Y-110112000D03*
X137434000Y-95937000D03*
X137434000Y-98477000D03*
X137434000Y-101017000D03*
X137589000Y-110112000D03*
X140129000Y-110112000D03*
X142644000Y-87812000D03*
X142644000Y-90352000D03*
X142644000Y-92892000D03*
X142644000Y-95432000D03*
X142644000Y-97972000D03*
X142644000Y-100512000D03*
X142644000Y-103052000D03*
X142644000Y-105592000D03*
X142669000Y-110112000D03*
X152300000Y-92835000D03*
X152300000Y-95375000D03*
X152300000Y-97915000D03*
X152300000Y-100455000D03*
X152300000Y-102995000D03*
X152300000Y-105535000D03*
X152300000Y-108075000D03*
X152300000Y-110615000D03*
X158475000Y-110050000D03*
X161015000Y-110050000D03*
X163400000Y-95875000D03*
X163400000Y-98415000D03*
X163400000Y-100955000D03*
X163555000Y-110050000D03*
X165940000Y-95875000D03*
X165940000Y-98415000D03*
X165940000Y-100955000D03*
X166095000Y-110050000D03*
X168635000Y-110050000D03*
X171150000Y-87750000D03*
X171150000Y-90290000D03*
X171150000Y-92830000D03*
X171150000Y-95370000D03*
X171150000Y-97910000D03*
X171150000Y-100450000D03*
X171150000Y-102990000D03*
X171150000Y-105530000D03*
X171175000Y-110050000D03*
D15*
%TO.C,USB*%
X128194000Y-76977000D03*
X140194000Y-76977000D03*
M02*
