%TF.GenerationSoftware,KiCad,Pcbnew,(6.0.5)*%
%TF.CreationDate,2023-04-25T20:10:58+03:00*%
%TF.ProjectId,AT90USB162,41543930-5553-4423-9136-322e6b696361,rev?*%
%TF.SameCoordinates,Original*%
%TF.FileFunction,Copper,L2,Bot*%
%TF.FilePolarity,Positive*%
%FSLAX46Y46*%
G04 Gerber Fmt 4.6, Leading zero omitted, Abs format (unit mm)*
G04 Created by KiCad (PCBNEW (6.0.5)) date 2023-04-25 20:10:58*
%MOMM*%
%LPD*%
G01*
G04 APERTURE LIST*
%TA.AperFunction,ComponentPad*%
%ADD10R,1.700000X1.700000*%
%TD*%
%TA.AperFunction,ComponentPad*%
%ADD11O,1.700000X1.700000*%
%TD*%
%TA.AperFunction,ComponentPad*%
%ADD12O,1.900000X3.500000*%
%TD*%
%TA.AperFunction,ComponentPad*%
%ADD13R,1.600000X1.600000*%
%TD*%
%TA.AperFunction,ComponentPad*%
%ADD14C,1.600000*%
%TD*%
%TA.AperFunction,ComponentPad*%
%ADD15C,4.000000*%
%TD*%
%TA.AperFunction,ViaPad*%
%ADD16C,0.400000*%
%TD*%
%TA.AperFunction,ViaPad*%
%ADD17C,0.800000*%
%TD*%
%TA.AperFunction,ViaPad*%
%ADD18C,0.750000*%
%TD*%
%TA.AperFunction,Conductor*%
%ADD19C,0.250000*%
%TD*%
%TA.AperFunction,Conductor*%
%ADD20C,0.750000*%
%TD*%
G04 APERTURE END LIST*
D10*
%TO.P,REF\u002A\u002A,1*%
%TO.N,N/C*%
X123794000Y-92897000D03*
D11*
%TO.P,REF\u002A\u002A,2*%
X123794000Y-95437000D03*
%TO.P,REF\u002A\u002A,3*%
X123794000Y-97977000D03*
%TO.P,REF\u002A\u002A,4*%
X123794000Y-100517000D03*
%TO.P,REF\u002A\u002A,5*%
X123794000Y-103057000D03*
%TO.P,REF\u002A\u002A,6*%
X123794000Y-105597000D03*
%TO.P,REF\u002A\u002A,7*%
X123794000Y-108137000D03*
%TO.P,REF\u002A\u002A,8*%
X123794000Y-110677000D03*
%TD*%
D10*
%TO.P,REF\u002A\u002A,1*%
%TO.N,N/C*%
X163400000Y-95875000D03*
D11*
%TO.P,REF\u002A\u002A,2*%
X165940000Y-95875000D03*
%TO.P,REF\u002A\u002A,3*%
X163400000Y-98415000D03*
%TO.P,REF\u002A\u002A,4*%
X165940000Y-98415000D03*
%TO.P,REF\u002A\u002A,5*%
X163400000Y-100955000D03*
%TO.P,REF\u002A\u002A,6*%
X165940000Y-100955000D03*
%TD*%
D12*
%TO.P,USB_0,5*%
%TO.N,N/C*%
X153000000Y-77206250D03*
X164400000Y-77206250D03*
%TD*%
D10*
%TO.P,REF\u002A\u002A,1*%
%TO.N,N/C*%
X171150000Y-87750000D03*
D11*
%TO.P,REF\u002A\u002A,2*%
X171150000Y-90290000D03*
%TO.P,REF\u002A\u002A,3*%
X171150000Y-92830000D03*
%TO.P,REF\u002A\u002A,4*%
X171150000Y-95370000D03*
%TO.P,REF\u002A\u002A,5*%
X171150000Y-97910000D03*
%TO.P,REF\u002A\u002A,6*%
X171150000Y-100450000D03*
%TO.P,REF\u002A\u002A,7*%
X171150000Y-102990000D03*
%TO.P,REF\u002A\u002A,8*%
X171150000Y-105530000D03*
%TD*%
D10*
%TO.P,REF\u002A\u002A,1*%
%TO.N,N/C*%
X82730000Y-89200000D03*
D11*
%TO.P,REF\u002A\u002A,2*%
X82730000Y-91740000D03*
%TO.P,REF\u002A\u002A,3*%
X82730000Y-94280000D03*
%TO.P,REF\u002A\u002A,4*%
X82730000Y-96820000D03*
%TO.P,REF\u002A\u002A,5*%
X82730000Y-99360000D03*
%TO.P,REF\u002A\u002A,6*%
X82730000Y-101900000D03*
%TO.P,REF\u002A\u002A,7*%
X82730000Y-104440000D03*
%TO.P,REF\u002A\u002A,8*%
X82730000Y-106980000D03*
%TD*%
D10*
%TO.P,REF\u002A\u002A,1*%
%TO.N,N/C*%
X103741500Y-97624500D03*
D11*
%TO.P,REF\u002A\u002A,2*%
X106281500Y-97624500D03*
%TO.P,REF\u002A\u002A,3*%
X103741500Y-100164500D03*
%TO.P,REF\u002A\u002A,4*%
X106281500Y-100164500D03*
%TO.P,REF\u002A\u002A,5*%
X103741500Y-102704500D03*
%TO.P,REF\u002A\u002A,6*%
X106281500Y-102704500D03*
%TD*%
D10*
%TO.P,REF\u002A\u002A,1*%
%TO.N,N/C*%
X92641500Y-94584500D03*
D11*
%TO.P,REF\u002A\u002A,2*%
X92641500Y-97124500D03*
%TO.P,REF\u002A\u002A,3*%
X92641500Y-99664500D03*
%TO.P,REF\u002A\u002A,4*%
X92641500Y-102204500D03*
%TO.P,REF\u002A\u002A,5*%
X92641500Y-104744500D03*
%TO.P,REF\u002A\u002A,6*%
X92641500Y-107284500D03*
%TO.P,REF\u002A\u002A,7*%
X92641500Y-109824500D03*
%TO.P,REF\u002A\u002A,8*%
X92641500Y-112364500D03*
%TD*%
D12*
%TO.P,USB_0,5*%
%TO.N,N/C*%
X64580000Y-78656250D03*
X75980000Y-78656250D03*
%TD*%
D10*
%TO.P,REF\u002A\u002A,1*%
%TO.N,N/C*%
X98816500Y-111799500D03*
D11*
%TO.P,REF\u002A\u002A,2*%
X101356500Y-111799500D03*
%TO.P,REF\u002A\u002A,3*%
X103896500Y-111799500D03*
%TO.P,REF\u002A\u002A,4*%
X106436500Y-111799500D03*
%TO.P,REF\u002A\u002A,5*%
X108976500Y-111799500D03*
%TO.P,REF\u002A\u002A,6*%
X111516500Y-111799500D03*
%TD*%
D10*
%TO.P,REF\u002A\u002A,1*%
%TO.N,N/C*%
X134894000Y-95937000D03*
D11*
%TO.P,REF\u002A\u002A,2*%
X137434000Y-95937000D03*
%TO.P,REF\u002A\u002A,3*%
X134894000Y-98477000D03*
%TO.P,REF\u002A\u002A,4*%
X137434000Y-98477000D03*
%TO.P,REF\u002A\u002A,5*%
X134894000Y-101017000D03*
%TO.P,REF\u002A\u002A,6*%
X137434000Y-101017000D03*
%TD*%
D10*
%TO.P,REF\u002A\u002A,1*%
%TO.N,N/C*%
X74980000Y-97325000D03*
D11*
%TO.P,REF\u002A\u002A,2*%
X77520000Y-97325000D03*
%TO.P,REF\u002A\u002A,3*%
X74980000Y-99865000D03*
%TO.P,REF\u002A\u002A,4*%
X77520000Y-99865000D03*
%TO.P,REF\u002A\u002A,5*%
X74980000Y-102405000D03*
%TO.P,REF\u002A\u002A,6*%
X77520000Y-102405000D03*
%TD*%
D10*
%TO.P,REF\u002A\u002A,1*%
%TO.N,N/C*%
X63880000Y-94285000D03*
D11*
%TO.P,REF\u002A\u002A,2*%
X63880000Y-96825000D03*
%TO.P,REF\u002A\u002A,3*%
X63880000Y-99365000D03*
%TO.P,REF\u002A\u002A,4*%
X63880000Y-101905000D03*
%TO.P,REF\u002A\u002A,5*%
X63880000Y-104445000D03*
%TO.P,REF\u002A\u002A,6*%
X63880000Y-106985000D03*
%TO.P,REF\u002A\u002A,7*%
X63880000Y-109525000D03*
%TO.P,REF\u002A\u002A,8*%
X63880000Y-112065000D03*
%TD*%
D13*
%TO.P,USB,1*%
%TO.N,N/C*%
X132944000Y-81837000D03*
D14*
%TO.P,USB,2*%
X135444000Y-81837000D03*
%TO.P,USB,3*%
X135444000Y-79837000D03*
%TO.P,USB,4*%
X132944000Y-79837000D03*
D15*
%TO.P,USB,5*%
X128194000Y-76977000D03*
X140194000Y-76977000D03*
%TD*%
D10*
%TO.P,REF\u002A\u002A,1*%
%TO.N,N/C*%
X158475000Y-110050000D03*
D11*
%TO.P,REF\u002A\u002A,2*%
X161015000Y-110050000D03*
%TO.P,REF\u002A\u002A,3*%
X163555000Y-110050000D03*
%TO.P,REF\u002A\u002A,4*%
X166095000Y-110050000D03*
%TO.P,REF\u002A\u002A,5*%
X168635000Y-110050000D03*
%TO.P,REF\u002A\u002A,6*%
X171175000Y-110050000D03*
%TD*%
D10*
%TO.P,REF\u002A\u002A,1*%
%TO.N,N/C*%
X111491500Y-89499500D03*
D11*
%TO.P,REF\u002A\u002A,2*%
X111491500Y-92039500D03*
%TO.P,REF\u002A\u002A,3*%
X111491500Y-94579500D03*
%TO.P,REF\u002A\u002A,4*%
X111491500Y-97119500D03*
%TO.P,REF\u002A\u002A,5*%
X111491500Y-99659500D03*
%TO.P,REF\u002A\u002A,6*%
X111491500Y-102199500D03*
%TO.P,REF\u002A\u002A,7*%
X111491500Y-104739500D03*
%TO.P,REF\u002A\u002A,8*%
X111491500Y-107279500D03*
%TD*%
D10*
%TO.P,REF\u002A\u002A,1*%
%TO.N,N/C*%
X152300000Y-92835000D03*
D11*
%TO.P,REF\u002A\u002A,2*%
X152300000Y-95375000D03*
%TO.P,REF\u002A\u002A,3*%
X152300000Y-97915000D03*
%TO.P,REF\u002A\u002A,4*%
X152300000Y-100455000D03*
%TO.P,REF\u002A\u002A,5*%
X152300000Y-102995000D03*
%TO.P,REF\u002A\u002A,6*%
X152300000Y-105535000D03*
%TO.P,REF\u002A\u002A,7*%
X152300000Y-108075000D03*
%TO.P,REF\u002A\u002A,8*%
X152300000Y-110615000D03*
%TD*%
D12*
%TO.P,USB_0,5*%
%TO.N,N/C*%
X104741500Y-78955750D03*
X93341500Y-78955750D03*
%TD*%
D10*
%TO.P,REF\u002A\u002A,1*%
%TO.N,N/C*%
X70055000Y-111500000D03*
D11*
%TO.P,REF\u002A\u002A,2*%
X72595000Y-111500000D03*
%TO.P,REF\u002A\u002A,3*%
X75135000Y-111500000D03*
%TO.P,REF\u002A\u002A,4*%
X77675000Y-111500000D03*
%TO.P,REF\u002A\u002A,5*%
X80215000Y-111500000D03*
%TO.P,REF\u002A\u002A,6*%
X82755000Y-111500000D03*
%TD*%
D10*
%TO.P,REF\u002A\u002A,1*%
%TO.N,N/C*%
X129969000Y-110112000D03*
D11*
%TO.P,REF\u002A\u002A,2*%
X132509000Y-110112000D03*
%TO.P,REF\u002A\u002A,3*%
X135049000Y-110112000D03*
%TO.P,REF\u002A\u002A,4*%
X137589000Y-110112000D03*
%TO.P,REF\u002A\u002A,5*%
X140129000Y-110112000D03*
%TO.P,REF\u002A\u002A,6*%
X142669000Y-110112000D03*
%TD*%
D10*
%TO.P,REF\u002A\u002A,1*%
%TO.N,N/C*%
X142644000Y-87812000D03*
D11*
%TO.P,REF\u002A\u002A,2*%
X142644000Y-90352000D03*
%TO.P,REF\u002A\u002A,3*%
X142644000Y-92892000D03*
%TO.P,REF\u002A\u002A,4*%
X142644000Y-95432000D03*
%TO.P,REF\u002A\u002A,5*%
X142644000Y-97972000D03*
%TO.P,REF\u002A\u002A,6*%
X142644000Y-100512000D03*
%TO.P,REF\u002A\u002A,7*%
X142644000Y-103052000D03*
%TO.P,REF\u002A\u002A,8*%
X142644000Y-105592000D03*
%TD*%
D16*
%TO.N,*%
X160050000Y-94350000D03*
D17*
X107577750Y-88500750D03*
D16*
X161275000Y-87500000D03*
X102068612Y-92499500D03*
X70130000Y-95800000D03*
X158050000Y-94350000D03*
X161727112Y-92750000D03*
X159050000Y-94350000D03*
X95341500Y-92499500D03*
X161725000Y-89749317D03*
X133221112Y-90287000D03*
X101591500Y-89749500D03*
X66580000Y-92200000D03*
X158550000Y-94350000D03*
X133221112Y-90812000D03*
D17*
X79030000Y-85865000D03*
X164286250Y-86776250D03*
D16*
X161727112Y-90750000D03*
X71130000Y-95800000D03*
X70630000Y-95800000D03*
D17*
X104627750Y-88525750D03*
D16*
X130044000Y-94412000D03*
X133221112Y-91812000D03*
D17*
X107791500Y-86164500D03*
D16*
X157050000Y-94350000D03*
X132744000Y-88062000D03*
X72855000Y-88950000D03*
X157550000Y-94350000D03*
D17*
X75866250Y-88226250D03*
D16*
X102068612Y-93499500D03*
X98891500Y-96099500D03*
X101616500Y-89249500D03*
D17*
X78816250Y-88201250D03*
X167450000Y-84415000D03*
D16*
X133221112Y-91312000D03*
X102068612Y-92999500D03*
X73307112Y-94200000D03*
X159550000Y-94350000D03*
X131044000Y-94412000D03*
X132769000Y-87562000D03*
X71630000Y-95800000D03*
X73307112Y-91675000D03*
X97891500Y-96099500D03*
X102068612Y-94499500D03*
X73307112Y-93200000D03*
X99391500Y-96099500D03*
D17*
X167236250Y-86751250D03*
D18*
X68380000Y-90000000D03*
D16*
X73305000Y-91199317D03*
X133219000Y-89811317D03*
D18*
X156800000Y-88550000D03*
D16*
X161727112Y-90225000D03*
X129044000Y-94412000D03*
X98391500Y-96099500D03*
X69630000Y-95800000D03*
X155000000Y-90750000D03*
X161727112Y-91750000D03*
X131544000Y-94412000D03*
X102066500Y-91498817D03*
X133221112Y-92812000D03*
X133221112Y-92312000D03*
X102068612Y-93999500D03*
X129544000Y-94412000D03*
X100391500Y-96099500D03*
X69130000Y-95800000D03*
D18*
X97141500Y-90299500D03*
D16*
X73307112Y-93700000D03*
X130544000Y-94412000D03*
X161727112Y-91250000D03*
X97391500Y-96099500D03*
X73307112Y-92200000D03*
X128294000Y-88612000D03*
X161727112Y-92250000D03*
X161250000Y-88000000D03*
X99891500Y-96099500D03*
X102068612Y-91974500D03*
X68630000Y-95800000D03*
X72830000Y-89450000D03*
X126669000Y-90812000D03*
X73307112Y-92700000D03*
X128544000Y-94412000D03*
%TD*%
D19*
%TO.N,*%
X161752112Y-90250000D02*
X166400000Y-90250000D01*
D20*
X108976500Y-106359500D02*
X108976500Y-111799500D01*
D19*
X162150000Y-92750000D02*
X163400000Y-94000000D01*
X161725000Y-89749317D02*
X161725683Y-89750000D01*
X136169000Y-97212000D02*
X137434000Y-98477000D01*
X77680000Y-92200000D02*
X80605000Y-95125000D01*
X153570000Y-100455000D02*
X152300000Y-100455000D01*
D20*
X105541500Y-89589500D02*
X103691500Y-89589500D01*
D19*
X73307112Y-93200000D02*
X77105000Y-93200000D01*
X133246112Y-90312000D02*
X137894000Y-90312000D01*
X136894000Y-92312000D02*
X139044000Y-94462000D01*
D20*
X74930000Y-89290000D02*
X73605000Y-87965000D01*
D19*
X102068612Y-93999500D02*
X105741500Y-93999500D01*
X128544000Y-94412000D02*
X128544000Y-97037000D01*
X109366500Y-97534500D02*
X111491500Y-99659500D01*
X167112500Y-89212500D02*
X168190000Y-90290000D01*
D20*
X99176500Y-88264500D02*
X97141500Y-90299500D01*
D19*
X78755000Y-90125000D02*
X79680000Y-89200000D01*
D20*
X140129000Y-104672000D02*
X140129000Y-110112000D01*
D19*
X169025000Y-93675000D02*
X169025000Y-95785000D01*
X125069000Y-108137000D02*
X123794000Y-108137000D01*
X72630000Y-98600000D02*
X76255000Y-98600000D01*
X128544000Y-97037000D02*
X125064000Y-100517000D01*
X161725683Y-89750000D02*
X166775000Y-89750000D01*
X105741500Y-93999500D02*
X107891500Y-96149500D01*
D20*
X162025000Y-86515000D02*
X158835000Y-86515000D01*
D19*
X157050000Y-94350000D02*
X157050000Y-96975000D01*
D20*
X77520000Y-103365000D02*
X80215000Y-106060000D01*
X106281500Y-103664500D02*
X108976500Y-106359500D01*
D19*
X167550000Y-101930000D02*
X171150000Y-105530000D01*
X160050000Y-94350000D02*
X160050000Y-96150000D01*
X163390000Y-98425000D02*
X163400000Y-98415000D01*
X140519000Y-95847000D02*
X142644000Y-97972000D01*
X81435000Y-94280000D02*
X82730000Y-94280000D01*
X133219000Y-89811317D02*
X133219683Y-89812000D01*
X162600000Y-88675000D02*
X167175000Y-88675000D01*
D20*
X165940000Y-100955000D02*
X165940000Y-101915000D01*
D19*
X108531500Y-92039500D02*
X111491500Y-92039500D01*
X137894000Y-90312000D02*
X142644000Y-95062000D01*
X133221112Y-91812000D02*
X137019000Y-91812000D01*
D20*
X163350000Y-87840000D02*
X162025000Y-86515000D01*
D19*
X161050000Y-97150000D02*
X164675000Y-97150000D01*
X74180000Y-90125000D02*
X78755000Y-90125000D01*
X157550000Y-94350000D02*
X157550000Y-98800000D01*
D20*
X167236250Y-86751250D02*
X166288750Y-86751250D01*
D19*
X157050000Y-96975000D02*
X153570000Y-100455000D01*
X133221112Y-92312000D02*
X136894000Y-92312000D01*
X107116500Y-91499500D02*
X110196500Y-94579500D01*
X79605000Y-101315000D02*
X82730000Y-104440000D01*
X139594000Y-87812000D02*
X142644000Y-87812000D01*
X80080000Y-99250000D02*
X82730000Y-101900000D01*
X73305683Y-91200000D02*
X78355000Y-91200000D01*
X160850000Y-98425000D02*
X163390000Y-98425000D01*
X76255000Y-98600000D02*
X77520000Y-99865000D01*
D20*
X77868750Y-88201250D02*
X76780000Y-89290000D01*
D19*
X166400000Y-90250000D02*
X171150000Y-95000000D01*
X71130000Y-95800000D02*
X71130000Y-98575000D01*
X131544000Y-96212000D02*
X132544000Y-97212000D01*
X65155000Y-109525000D02*
X63880000Y-109525000D01*
X156800000Y-89800000D02*
X156800000Y-88550000D01*
D20*
X73605000Y-87965000D02*
X70415000Y-87965000D01*
D19*
X133221112Y-92812000D02*
X133644000Y-92812000D01*
X99391500Y-106849500D02*
X93876500Y-112364500D01*
X162462500Y-89212500D02*
X167112500Y-89212500D01*
X100391500Y-96099500D02*
X100391500Y-97899500D01*
X134094000Y-88737000D02*
X138669000Y-88737000D01*
X102093612Y-91999500D02*
X106741500Y-91999500D01*
D20*
X103691500Y-89589500D02*
X102366500Y-88264500D01*
D19*
X130544000Y-94412000D02*
X130544000Y-105162000D01*
X161275000Y-87500000D02*
X161425000Y-87500000D01*
X161727112Y-92750000D02*
X162150000Y-92750000D01*
X103741500Y-95749500D02*
X103741500Y-97624500D01*
X82730000Y-96450000D02*
X82730000Y-96820000D01*
X80080000Y-95375000D02*
X80080000Y-99250000D01*
X139519000Y-94312000D02*
X139519000Y-99927000D01*
X101191500Y-100174500D02*
X103731500Y-100174500D01*
X97891500Y-100549500D02*
X93696500Y-104744500D01*
X160050000Y-96150000D02*
X161050000Y-97150000D01*
X102068612Y-92999500D02*
X106166500Y-92999500D01*
D20*
X104627750Y-88525750D02*
X106989000Y-86164500D01*
D19*
X139044000Y-94462000D02*
X139044000Y-101992000D01*
D20*
X165940000Y-101915000D02*
X168635000Y-104610000D01*
D19*
X161425000Y-87500000D02*
X162600000Y-88675000D01*
X132344000Y-98487000D02*
X134884000Y-98487000D01*
X98391500Y-96099500D02*
X98391500Y-102824500D01*
X158050000Y-101075000D02*
X153590000Y-105535000D01*
X169855000Y-92830000D02*
X171150000Y-92830000D01*
X96191500Y-92499500D02*
X97141500Y-91549500D01*
X74980000Y-95450000D02*
X74980000Y-97325000D01*
X73305000Y-91199317D02*
X73305683Y-91200000D01*
X73730000Y-94200000D02*
X74980000Y-95450000D01*
X97891500Y-96099500D02*
X97891500Y-100549500D01*
X80605000Y-95125000D02*
X80605000Y-97235000D01*
X79130000Y-103380000D02*
X82730000Y-106980000D01*
X166775000Y-89750000D02*
X169855000Y-92830000D01*
X69630000Y-102525000D02*
X65170000Y-106985000D01*
X168500000Y-93925000D02*
X168500000Y-97800000D01*
D20*
X106989000Y-86164500D02*
X107791500Y-86164500D01*
D19*
X73307112Y-92700000D02*
X77405000Y-92700000D01*
X155000000Y-90750000D02*
X155850000Y-90750000D01*
X134894000Y-94062000D02*
X134894000Y-95937000D01*
X159050000Y-94350000D02*
X159050000Y-105100000D01*
X133221112Y-90812000D02*
X137594000Y-90812000D01*
X139994000Y-93987000D02*
X139994000Y-97862000D01*
X73307112Y-91675000D02*
X73332112Y-91700000D01*
X99391500Y-96099500D02*
X99391500Y-106849500D01*
X127694000Y-90812000D02*
X126669000Y-90812000D01*
X93911500Y-102204500D02*
X92641500Y-102204500D01*
X69130000Y-100250000D02*
X64935000Y-104445000D01*
X129544000Y-94412000D02*
X129544000Y-101137000D01*
X132544000Y-97212000D02*
X136169000Y-97212000D01*
X139519000Y-99927000D02*
X142644000Y-103052000D01*
X125084000Y-105597000D02*
X123794000Y-105597000D01*
X67430000Y-92200000D02*
X68380000Y-91250000D01*
X165825000Y-91250000D02*
X168500000Y-93925000D01*
X71630000Y-97600000D02*
X72630000Y-98600000D01*
X168100000Y-87750000D02*
X171150000Y-87750000D01*
X125064000Y-100517000D02*
X123794000Y-100517000D01*
X98891500Y-96099500D02*
X98891500Y-104849500D01*
X109366500Y-95424500D02*
X109366500Y-97534500D01*
X128294000Y-90212000D02*
X127694000Y-90812000D01*
X165400000Y-92250000D02*
X167550000Y-94400000D01*
X130044000Y-94412000D02*
X130044000Y-103162000D01*
D20*
X78227500Y-85865000D02*
X79030000Y-85865000D01*
D19*
X139684000Y-90352000D02*
X142644000Y-90352000D01*
X107516500Y-90424500D02*
X108441500Y-89499500D01*
X93931500Y-107284500D02*
X92641500Y-107284500D01*
X164675000Y-97150000D02*
X165940000Y-98415000D01*
X105866500Y-93499500D02*
X108366500Y-95999500D01*
X129544000Y-101137000D02*
X125084000Y-105597000D01*
X69130000Y-95800000D02*
X69130000Y-100250000D01*
X129044000Y-94412000D02*
X129044000Y-98862000D01*
X168025000Y-94250000D02*
X168025000Y-99865000D01*
X107454000Y-90962000D02*
X108531500Y-92039500D01*
X141349000Y-92892000D02*
X142644000Y-92892000D01*
X108841500Y-95674500D02*
X108841500Y-99549500D01*
X78355000Y-91200000D02*
X81435000Y-94280000D01*
X142644000Y-95062000D02*
X142644000Y-95432000D01*
X140519000Y-93737000D02*
X140519000Y-95847000D01*
X101616500Y-89249500D02*
X101766500Y-89249500D01*
D20*
X165200000Y-87840000D02*
X163350000Y-87840000D01*
D19*
X65170000Y-106985000D02*
X63880000Y-106985000D01*
X159550000Y-94350000D02*
X159550000Y-97125000D01*
X68630000Y-98425000D02*
X65150000Y-101905000D01*
X137019000Y-91812000D02*
X139519000Y-94312000D01*
X106441500Y-92499500D02*
X109366500Y-95424500D01*
X69630000Y-95800000D02*
X69630000Y-102525000D01*
X101766500Y-89249500D02*
X102941500Y-90424500D01*
D20*
X137434000Y-101017000D02*
X137434000Y-101977000D01*
X70415000Y-87965000D02*
X68380000Y-90000000D01*
X107577750Y-88500750D02*
X106630250Y-88500750D01*
D19*
X79770000Y-91740000D02*
X82730000Y-91740000D01*
X74970000Y-99875000D02*
X74980000Y-99865000D01*
X159050000Y-105100000D02*
X153535000Y-110615000D01*
X102804000Y-90962000D02*
X107454000Y-90962000D01*
X139044000Y-101992000D02*
X142644000Y-105592000D01*
X103731500Y-100174500D02*
X103741500Y-100164500D01*
X98891500Y-104849500D02*
X93916500Y-109824500D01*
D20*
X102366500Y-88264500D02*
X99176500Y-88264500D01*
D19*
X125029000Y-110677000D02*
X123794000Y-110677000D01*
X74042500Y-90662500D02*
X78692500Y-90662500D01*
X137594000Y-90812000D02*
X140519000Y-93737000D01*
X161727112Y-90225000D02*
X161752112Y-90250000D01*
X102491500Y-94499500D02*
X103741500Y-95749500D01*
X102068612Y-93499500D02*
X105866500Y-93499500D01*
X68380000Y-91250000D02*
X68380000Y-90000000D01*
X72430000Y-99875000D02*
X74970000Y-99875000D01*
X72830000Y-89450000D02*
X74042500Y-90662500D01*
X78692500Y-90662500D02*
X79770000Y-91740000D01*
X134884000Y-98487000D02*
X134894000Y-98477000D01*
X166100000Y-90750000D02*
X169025000Y-93675000D01*
X101391500Y-98899500D02*
X105016500Y-98899500D01*
X107891500Y-96149500D02*
X107891500Y-103679500D01*
X64935000Y-104445000D02*
X63880000Y-104445000D01*
X130544000Y-105162000D02*
X125029000Y-110677000D01*
X99891500Y-98874500D02*
X101191500Y-100174500D01*
X131044000Y-97187000D02*
X132344000Y-98487000D01*
X153535000Y-110615000D02*
X152300000Y-110615000D01*
X99891500Y-96099500D02*
X99891500Y-98874500D01*
X168500000Y-97800000D02*
X171150000Y-100450000D01*
X133221112Y-91312000D02*
X137319000Y-91312000D01*
X159550000Y-97125000D02*
X160850000Y-98425000D01*
D20*
X77520000Y-102405000D02*
X77520000Y-103365000D01*
D19*
X153575000Y-108075000D02*
X152300000Y-108075000D01*
X167550000Y-94400000D02*
X167550000Y-101930000D01*
X80605000Y-97235000D02*
X82730000Y-99360000D01*
X138669000Y-88737000D02*
X139594000Y-87812000D01*
D20*
X80215000Y-106060000D02*
X80215000Y-111500000D01*
D19*
X139994000Y-97862000D02*
X142644000Y-100512000D01*
X72855000Y-88950000D02*
X73005000Y-88950000D01*
X158550000Y-103100000D02*
X153575000Y-108075000D01*
X102068612Y-94499500D02*
X102491500Y-94499500D01*
X101591500Y-89749500D02*
X102804000Y-90962000D01*
X138269000Y-89812000D02*
X141349000Y-92892000D01*
X107891500Y-103679500D02*
X111491500Y-107279500D01*
X102941500Y-90424500D02*
X107516500Y-90424500D01*
X70130000Y-104550000D02*
X65155000Y-109525000D01*
X130044000Y-103162000D02*
X125069000Y-108137000D01*
X79680000Y-89200000D02*
X82730000Y-89200000D01*
X97391500Y-98724500D02*
X93911500Y-102204500D01*
X102067183Y-91499500D02*
X107116500Y-91499500D01*
D20*
X106630250Y-88500750D02*
X105541500Y-89589500D01*
D19*
X76980000Y-93700000D02*
X79130000Y-95850000D01*
X167175000Y-88675000D02*
X168100000Y-87750000D01*
X102066500Y-91498817D02*
X102067183Y-91499500D01*
X73307112Y-94200000D02*
X73730000Y-94200000D01*
X153355000Y-102995000D02*
X152300000Y-102995000D01*
X161727112Y-92250000D02*
X165400000Y-92250000D01*
X137319000Y-91312000D02*
X139994000Y-93987000D01*
X70630000Y-106550000D02*
X65115000Y-112065000D01*
X133219683Y-89812000D02*
X138269000Y-89812000D01*
X158050000Y-94350000D02*
X158050000Y-101075000D01*
X108841500Y-99549500D02*
X111491500Y-102199500D01*
X73332112Y-91700000D02*
X77980000Y-91700000D01*
X138606500Y-89274500D02*
X139684000Y-90352000D01*
X70130000Y-95800000D02*
X70130000Y-104550000D01*
D20*
X166647500Y-84415000D02*
X167450000Y-84415000D01*
D19*
X65150000Y-101905000D02*
X63880000Y-101905000D01*
D20*
X76780000Y-89290000D02*
X74930000Y-89290000D01*
D19*
X95341500Y-92499500D02*
X96191500Y-92499500D01*
X161250000Y-88000000D02*
X162462500Y-89212500D01*
X129044000Y-98862000D02*
X124849000Y-103057000D01*
D20*
X75866250Y-88226250D02*
X78227500Y-85865000D01*
D19*
X102068612Y-92499500D02*
X106441500Y-92499500D01*
D20*
X168635000Y-104610000D02*
X168635000Y-110050000D01*
D19*
X161727112Y-91750000D02*
X165525000Y-91750000D01*
X93876500Y-112364500D02*
X92641500Y-112364500D01*
X108366500Y-101614500D02*
X111491500Y-104739500D01*
X124849000Y-103057000D02*
X123794000Y-103057000D01*
X93696500Y-104744500D02*
X92641500Y-104744500D01*
X163400000Y-94000000D02*
X163400000Y-95875000D01*
X133221112Y-90287000D02*
X133246112Y-90312000D01*
X105016500Y-98899500D02*
X106281500Y-100164500D01*
X73307112Y-93700000D02*
X76980000Y-93700000D01*
X110196500Y-94579500D02*
X111491500Y-94579500D01*
X161727112Y-91250000D02*
X165825000Y-91250000D01*
D20*
X166288750Y-86751250D02*
X165200000Y-87840000D01*
D19*
X97141500Y-91549500D02*
X97141500Y-90299500D01*
X77405000Y-92700000D02*
X80080000Y-95375000D01*
X73307112Y-92200000D02*
X77680000Y-92200000D01*
D20*
X158835000Y-86515000D02*
X156800000Y-88550000D01*
D19*
X79605000Y-95700000D02*
X79605000Y-101315000D01*
X131044000Y-94412000D02*
X131044000Y-97187000D01*
X93916500Y-109824500D02*
X92641500Y-109824500D01*
X133644000Y-92812000D02*
X134894000Y-94062000D01*
X157550000Y-98800000D02*
X153355000Y-102995000D01*
X71630000Y-95800000D02*
X71630000Y-97600000D01*
X132769000Y-87562000D02*
X132919000Y-87562000D01*
X169025000Y-95785000D02*
X171150000Y-97910000D01*
X70630000Y-95800000D02*
X70630000Y-106550000D01*
X132744000Y-88062000D02*
X133956500Y-89274500D01*
X161727112Y-90750000D02*
X166100000Y-90750000D01*
X97391500Y-96099500D02*
X97391500Y-98724500D01*
D20*
X164286250Y-86776250D02*
X166647500Y-84415000D01*
D19*
X100391500Y-97899500D02*
X101391500Y-98899500D01*
D20*
X137434000Y-101977000D02*
X140129000Y-104672000D01*
X78816250Y-88201250D02*
X77868750Y-88201250D01*
D19*
X111491500Y-96749500D02*
X111491500Y-97119500D01*
X108441500Y-89499500D02*
X111491500Y-89499500D01*
X155850000Y-90750000D02*
X156800000Y-89800000D01*
X128294000Y-88612000D02*
X128294000Y-90212000D01*
D20*
X106281500Y-102704500D02*
X106281500Y-103664500D01*
D19*
X108366500Y-95999500D02*
X108366500Y-101614500D01*
X71130000Y-98575000D02*
X72430000Y-99875000D01*
X133956500Y-89274500D02*
X138606500Y-89274500D01*
X171150000Y-95000000D02*
X171150000Y-95370000D01*
X65115000Y-112065000D02*
X63880000Y-112065000D01*
X66580000Y-92200000D02*
X67430000Y-92200000D01*
X106166500Y-92999500D02*
X108841500Y-95674500D01*
X153590000Y-105535000D02*
X152300000Y-105535000D01*
X98391500Y-102824500D02*
X93931500Y-107284500D01*
X168190000Y-90290000D02*
X171150000Y-90290000D01*
X131544000Y-94412000D02*
X131544000Y-96212000D01*
X168025000Y-99865000D02*
X171150000Y-102990000D01*
X132919000Y-87562000D02*
X134094000Y-88737000D01*
X79130000Y-95850000D02*
X79130000Y-103380000D01*
X106741500Y-91999500D02*
X111491500Y-96749500D01*
X158550000Y-94350000D02*
X158550000Y-103100000D01*
X102068612Y-91974500D02*
X102093612Y-91999500D01*
X73005000Y-88950000D02*
X74180000Y-90125000D01*
X68630000Y-95800000D02*
X68630000Y-98425000D01*
X165525000Y-91750000D02*
X168025000Y-94250000D01*
X77980000Y-91700000D02*
X82730000Y-96450000D01*
X77105000Y-93200000D02*
X79605000Y-95700000D01*
%TD*%
M02*
